JosefinSans-SemiBoldItalic.ufo
<glyph name="exclam" format="2">
  <advance width="201.4"/>
  <unicode hex="0021"/>
  <outline>
    <contour>
      <point x="122.8" y="753.9000000000001" type="line"/>
      <point x="52.49999999999999" y="184.0" type="line"/>
      <point x="152.9" y="184.0" type="line"/>
      <point x="223.20000000000002" y="753.9000000000001" type="line"/>
    </contour>
    <contour>
      <point x="72.8" y="-6.800000000000004" type="curve" smooth="yes"/>
      <point x="110.00000000000001" y="-11.000000000000002"/>
      <point x="138.40000000000003" y="6.900000000000001"/>
      <point x="145.20000000000002" y="40.60000000000001" type="curve" smooth="yes"/>
      <point x="151.70000000000002" y="72.60000000000002"/>
      <point x="132.4" y="101.20000000000002"/>
      <point x="95.9" y="106.30000000000003" type="curve" smooth="yes"/>
      <point x="59.09999999999999" y="110.80000000000001"/>
      <point x="26.999999999999986" y="89.20000000000002"/>
      <point x="20.799999999999983" y="57.2" type="curve" smooth="yes"/>
      <point x="14.29999999999999" y="23.499999999999996"/>
      <point x="35.29999999999999" y="-2.000000000000007"/>
    </contour>
  </outline>
</glyph>
<glyph name="quotedbl" format="2">
  <advance width="349.8"/>
  <unicode hex="0022"/>
  <outline>
    <contour>
      <point x="252.3" y="731.0" type="curve"/>
      <point x="153.4" y="731.0" type="line"/>
      <point x="122.7" y="478.9" type="line"/>
      <point x="217.60000000000002" y="478.9" type="line"/>
      <point x="228.60000000000002" y="563.6"/>
      <point x="241.3" y="647.0"/>
    </contour>
    <contour>
      <point x="387.7" y="731.0" type="curve"/>
      <point x="288.8" y="731.0" type="line"/>
      <point x="257.8" y="478.9" type="line"/>
      <point x="353.0" y="478.9" type="line"/>
      <point x="364.0" y="563.6"/>
      <point x="376.7" y="647.0"/>
    </contour>
  </outline>
</glyph>
<glyph name="numbersign" format="2">
  <advance width="579.6"/>
  <unicode hex="0023"/>
  <outline>
    <contour>
      <point x="350.90000000000003" y="653.0" type="curve"/>
      <point x="249.5" y="653.0" type="line"/>
      <point x="233.2" y="590.0"/>
      <point x="218.3" y="529.4"/>
      <point x="202.4" y="466.1" type="curve"/>
      <point x="115.0" y="466.1" type="line"/>
      <point x="107.1" y="433.9"/>
      <point x="100.60000000000001" y="401.0"/>
      <point x="92.7" y="368.79999999999995" type="curve"/>
      <point x="179.8" y="368.79999999999995" type="line"/>
      <point x="172.0" y="339.29999999999995"/>
      <point x="166.2" y="309.8"/>
      <point x="158.4" y="280.3" type="curve"/>
      <point x="71.0" y="280.3" type="line"/>
      <point x="63.800000000000004" y="247.4"/>
      <point x="54.900000000000006" y="215.2"/>
      <point x="47.0" y="182.0" type="curve"/>
      <point x="134.39999999999998" y="182.0" type="line"/>
      <point x="120.19999999999999" y="121.1"/>
      <point x="104.6" y="60.89999999999999"/>
      <point x="90.39999999999999" y="0.0" type="curve"/>
      <point x="192.5" y="0.0" type="line"/>
      <point x="206.0" y="60.89999999999999"/>
      <point x="222.3" y="121.1"/>
      <point x="236.20000000000002" y="182.0" type="curve"/>
      <point x="321.5" y="182.0" type="line"/>
      <point x="307.3" y="121.1"/>
      <point x="291.7" y="60.89999999999999"/>
      <point x="277.5" y="0.0" type="curve"/>
      <point x="378.90000000000003" y="0.0" type="line"/>
      <point x="393.1" y="60.89999999999999"/>
      <point x="408.70000000000005" y="121.1"/>
      <point x="422.6" y="182.0" type="curve"/>
      <point x="519.0" y="182.0" type="line"/>
      <point x="526.2" y="215.2"/>
      <point x="534.8000000000001" y="247.4"/>
      <point x="543.0" y="280.3" type="curve"/>
      <point x="446.90000000000003" y="280.3" type="line"/>
      <point x="454.0" y="309.8"/>
      <point x="460.5" y="339.29999999999995"/>
      <point x="468.3" y="368.79999999999995" type="curve"/>
      <point x="564.7" y="368.79999999999995" type="line"/>
      <point x="572.6" y="401.0"/>
      <point x="579.1" y="433.9"/>
      <point x="586.3000000000001" y="466.1" type="curve"/>
      <point x="490.90000000000003" y="466.1" type="line"/>
      <point x="506.5" y="529.4"/>
      <point x="521.4000000000001" y="590.0"/>
      <point x="538.0" y="653.0" type="curve"/>
      <point x="435.90000000000003" y="653.0" type="line"/>
      <point x="420.29999999999995" y="590.0"/>
      <point x="404.4" y="529.4"/>
      <point x="389.5" y="466.1" type="curve"/>
      <point x="303.8" y="466.1" type="line"/>
      <point x="319.40000000000003" y="529.4"/>
      <point x="334.3" y="590.0"/>
    </contour>
    <contour>
      <point x="281.20000000000005" y="368.79999999999995" type="curve"/>
      <point x="366.2" y="368.79999999999995" type="line"/>
      <point x="359.09999999999997" y="339.29999999999995"/>
      <point x="352.6" y="309.8"/>
      <point x="345.5" y="280.3" type="curve"/>
      <point x="259.8" y="280.3" type="line"/>
      <point x="267.6" y="309.8"/>
      <point x="274.1" y="339.29999999999995"/>
    </contour>
  </outline>
</glyph>
<glyph name="dollar" format="2">
  <advance width="582.5"/>
  <unicode hex="0024"/>
  <anchor x="283.0" y="0.0" name="bottom"/>
  <anchor x="333.2" y="700.0" name="top"/>
  <outline>
    <contour>
      <point x="213.1" y="-68.0" type="line"/>
      <point x="281.8" y="-68.0" type="line"/>
      <point x="331.70000000000005" y="342.7" type="line"/>
      <point x="371.1" y="378.1" type="line"/>
      <point x="421.9" y="795.3" type="line"/>
      <point x="353.2" y="795.3" type="line"/>
      <point x="305.5" y="407.0" type="line"/>
      <point x="266.09999999999997" y="372.2" type="line"/>
    </contour>
    <component base="S"/>
  </outline>
</glyph>
<glyph name="percent" format="2">
  <advance width="828.6999999999999"/>
  <unicode hex="0025"/>
  <outline>
    <contour>
      <point x="213.8" y="277.8" type="curve"/>
      <point x="315.6" y="274.5"/>
      <point x="371.8" y="354.6"/>
      <point x="380.9" y="456.0" type="curve"/>
      <point x="390.0" y="566.6"/>
      <point x="335.3" y="629.4000000000001"/>
      <point x="251.1" y="634.3000000000001" type="curve"/>
      <point x="147.1" y="638.2"/>
      <point x="91.29999999999998" y="558.1"/>
      <point x="82.19999999999999" y="457.1" type="curve"/>
      <point x="73.1" y="345.50000000000006"/>
      <point x="126.19999999999999" y="282.7"/>
    </contour>
    <contour>
      <point x="222.2" y="356.90000000000003" type="curve"/>
      <point x="194.5" y="358.3"/>
      <point x="175.60000000000002" y="386.0"/>
      <point x="179.8" y="451.8" type="curve"/>
      <point x="185.4" y="514.5"/>
      <point x="200.9" y="555.0"/>
      <point x="241.2" y="554.2" type="curve"/>
      <point x="268.0" y="552.8000000000001"/>
      <point x="288.5" y="532.4"/>
      <point x="282.9" y="461.0" type="curve"/>
      <point x="278.0" y="404.5"/>
      <point x="261.6" y="356.1"/>
    </contour>
    <contour>
      <point x="605.1" y="-20.800000000000004" type="curve"/>
      <point x="707.8" y="-25.000000000000007"/>
      <point x="764.6" y="56.3"/>
      <point x="773.7" y="156.8" type="curve"/>
      <point x="782.8" y="266.5"/>
      <point x="729.9" y="330.8"/>
      <point x="643.9000000000001" y="335.70000000000005" type="curve"/>
      <point x="539.9" y="339.90000000000003"/>
      <point x="484.1" y="259.2"/>
      <point x="475.0" y="157.9" type="curve"/>
      <point x="465.9" y="47.50000000000001"/>
      <point x="518.4" y="-15.900000000000006"/>
    </contour>
    <contour>
      <point x="614.4" y="58.30000000000001" type="curve"/>
      <point x="587.3000000000001" y="59.7"/>
      <point x="568.1" y="87.4"/>
      <point x="572.3" y="153.2" type="curve"/>
      <point x="577.9000000000001" y="216.2"/>
      <point x="594.0" y="257.0"/>
      <point x="634.3" y="255.59999999999997" type="curve"/>
      <point x="661.1" y="254.2"/>
      <point x="681.0" y="233.20000000000002"/>
      <point x="675.4" y="163.0" type="curve"/>
      <point x="670.5" y="107.10000000000001"/>
      <point x="655.6" y="57.20000000000001"/>
    </contour>
    <contour>
      <point x="752.2" y="634.9" type="line"/>
      <point x="640.2" y="634.9" type="line"/>
      <point x="119.79999999999998" y="0.0" type="line"/>
      <point x="230.1" y="-1.7000000000000004" type="line"/>
    </contour>
  </outline>
</glyph>
<glyph name="ampersand" format="2">
  <advance width="715.5"/>
  <unicode hex="0026"/>
  <outline>
    <contour>
      <point x="642.8000000000001" y="0.0" type="curve"/>
      <point x="331.40000000000003" y="502.5" type="line" smooth="yes"/>
      <point x="324.6" y="514.2"/>
      <point x="304.0" y="552.9"/>
      <point x="307.1" y="580.0" type="curve" smooth="yes"/>
      <point x="310.20000000000005" y="622.5"/>
      <point x="339.8" y="661.6999999999999"/>
      <point x="398.3" y="661.6999999999999" type="curve" smooth="yes"/>
      <point x="435.8" y="661.6999999999999"/>
      <point x="470.3" y="635.6999999999999"/>
      <point x="507.3" y="595.5" type="curve"/>
      <point x="575.2" y="673.3000000000001" type="line"/>
      <point x="539.7" y="719.8000000000001"/>
      <point x="476.8" y="759.7"/>
      <point x="392.09999999999997" y="759.7" type="curve" smooth="yes"/>
      <point x="266.9" y="759.7"/>
      <point x="195.1" y="673.9"/>
      <point x="188.2" y="590.7" type="curve" smooth="yes"/>
      <point x="182.0" y="536.5"/>
      <point x="209.6" y="479.9"/>
      <point x="227.6" y="451.9" type="curve" smooth="yes"/>
      <point x="507.79999999999995" y="0.0" type="line"/>
      <point x="507.79999999999995" y="0.0"/>
      <point x="613.9" y="0.0"/>
    </contour>
    <contour>
      <point x="319.8" y="340.79999999999995" type="curve"/>
      <point x="329.5" y="432.20000000000005" type="line"/>
      <point x="201.9" y="436.2"/>
      <point x="61.699999999999996" y="347.1"/>
      <point x="49.0" y="216.9" type="curve" smooth="yes"/>
      <point x="36.599999999999994" y="91.80000000000001"/>
      <point x="130.8" y="-4.6"/>
      <point x="267.29999999999995" y="-10.8" type="curve" smooth="yes"/>
      <point x="378.0" y="-16.300000000000004"/>
      <point x="458.6" y="31.300000000000004"/>
      <point x="501.4" y="95.5" type="curve"/>
      <point x="434.9" y="162.8" type="line"/>
      <point x="409.4" y="121.20000000000002"/>
      <point x="364.29999999999995" y="88.60000000000001"/>
      <point x="295.5" y="91.70000000000002" type="curve" smooth="yes"/>
      <point x="220.3" y="94.80000000000003"/>
      <point x="163.40000000000003" y="145.50000000000003"/>
      <point x="169.90000000000003" y="215.60000000000002" type="curve" smooth="yes"/>
      <point x="175.10000000000002" y="288.59999999999997"/>
      <point x="248.3" y="345.09999999999997"/>
    </contour>
    <contour>
      <point x="563.8000000000001" y="433.9" type="line"/>
      <point x="434.4" y="177.3" type="line"/>
      <point x="511.6" y="125.80000000000001" type="line"/>
      <point x="670.3000000000001" y="433.9" type="line"/>
    </contour>
  </outline>
</glyph>
<glyph name="quotesingle" format="2">
  <advance width="168.70000000000002"/>
  <unicode hex="0027"/>
  <outline>
    <contour>
      <point x="226.70000000000002" y="731.0" type="curve"/>
      <point x="126.1" y="731.0" type="line"/>
      <point x="95.39999999999999" y="478.9" type="line"/>
      <point x="192.0" y="478.9" type="line"/>
      <point x="203.0" y="563.6"/>
      <point x="215.70000000000002" y="647.0"/>
    </contour>
  </outline>
</glyph>
<glyph name="parenleft" format="2">
  <advance width="389.5"/>
  <unicode hex="0028"/>
  <outline>
    <contour>
      <point x="91.1" y="285.8" type="curve" smooth="yes"/>
      <point x="91.1" y="285.8" type="line" smooth="yes"/>
      <point x="71.5" y="90.5"/>
      <point x="131.7" y="-76.3"/>
      <point x="202.3" y="-167.8" type="curve"/>
      <point x="297.8" y="-126.8" type="line"/>
      <point x="233.9" y="-37.29999999999999"/>
      <point x="190.40000000000003" y="102.10000000000001"/>
      <point x="207.3" y="279.8" type="curve" smooth="yes"/>
      <point x="225.20000000000002" y="471.8"/>
      <point x="308.3" y="616.0"/>
      <point x="399.0" y="704.6" type="curve"/>
      <point x="315.7" y="755.6" type="line"/>
      <point x="217.0" y="666.7"/>
      <point x="110.7" y="496.0"/>
    </contour>
  </outline>
</glyph>
<glyph name="parenright" format="2">
  <advance width="389.5"/>
  <unicode hex="0029"/>
  <outline>
    <contour>
      <point x="318.90000000000003" y="304.4" type="curve" smooth="yes"/>
      <point x="318.90000000000003" y="304.4" type="line" smooth="yes"/>
      <point x="338.20000000000005" y="499.69999999999993"/>
      <point x="278.3" y="666.5"/>
      <point x="207.70000000000002" y="758.0" type="curve"/>
      <point x="112.2" y="717.3" type="line"/>
      <point x="175.8" y="627.8"/>
      <point x="219.6" y="488.09999999999997"/>
      <point x="202.4" y="310.7" type="curve" smooth="yes"/>
      <point x="184.5" y="118.4"/>
      <point x="101.7" y="-25.799999999999997"/>
      <point x="10.7" y="-114.39999999999999" type="curve"/>
      <point x="94.30000000000003" y="-165.4" type="line"/>
      <point x="193.0" y="-76.5"/>
      <point x="299.3" y="94.5"/>
    </contour>
  </outline>
</glyph>
<glyph name="asterisk" format="2">
  <advance width="335.0"/>
  <unicode hex="002A"/>
  <outline>
    <contour>
      <point x="198.1" y="516.6" type="curve"/>
      <point x="188.29999999999998" y="434.0" type="line"/>
      <point x="253.9" y="434.0" type="line"/>
      <point x="257.8" y="461.5"/>
      <point x="261.1" y="488.69999999999993"/>
      <point x="264.7" y="515.9" type="curve"/>
      <point x="288.0" y="501.79999999999995"/>
      <point x="309.59999999999997" y="486.70000000000005"/>
      <point x="332.9" y="472.6" type="curve"/>
      <point x="346.9" y="492.4"/>
      <point x="360.9" y="512.9"/>
      <point x="374.9" y="532.7" type="curve"/>
      <point x="351.6" y="546.8"/>
      <point x="329.0" y="560.9"/>
      <point x="306.0" y="575.0" type="curve"/>
      <point x="306.0" y="575.0" type="line"/>
      <point x="333.6" y="589.1"/>
      <point x="359.5" y="604.2"/>
      <point x="387.4" y="618.3000000000001" type="curve"/>
      <point x="378.2" y="637.1"/>
      <point x="369.3" y="655.9"/>
      <point x="361.1" y="674.7" type="curve"/>
      <point x="334.9" y="660.9000000000001"/>
      <point x="307.3" y="646.5"/>
      <point x="281.1" y="632.7" type="curve"/>
      <point x="285.0" y="661.9000000000001"/>
      <point x="289.3" y="690.8"/>
      <point x="292.90000000000003" y="720.0" type="curve"/>
      <point x="223.29999999999998" y="720.0" type="line"/>
      <point x="212.8" y="632.7" type="line"/>
      <point x="189.79999999999998" y="646.8"/>
      <point x="167.20000000000002" y="661.6"/>
      <point x="143.9" y="675.7" type="curve"/>
      <point x="130.9" y="656.9"/>
      <point x="118.3" y="638.1"/>
      <point x="105.6" y="619.3000000000001" type="curve"/>
      <point x="127.19999999999999" y="605.2"/>
      <point x="150.2" y="590.1"/>
      <point x="171.79999999999998" y="576.0" type="curve"/>
      <point x="145.89999999999998" y="562.9"/>
      <point x="120.3" y="548.8"/>
      <point x="94.1" y="535.6999999999999" type="curve"/>
      <point x="103.3" y="515.9"/>
      <point x="112.5" y="495.1"/>
      <point x="121.4" y="475.3" type="curve"/>
      <point x="147.3" y="489.4"/>
      <point x="172.9" y="502.49999999999994"/>
    </contour>
  </outline>
</glyph>
<glyph name="plus" format="2">
  <advance width="551.6"/>
  <unicode hex="002B"/>
  <outline>
    <contour>
      <point x="270.4" y="417.2" type="line"/>
      <point x="253.89999999999998" y="282.7" type="line"/>
      <point x="122.2" y="282.7" type="line"/>
      <point x="110.2" y="185.39999999999998" type="line"/>
      <point x="241.89999999999998" y="185.39999999999998" type="line"/>
      <point x="225.4" y="51.7" type="line"/>
      <point x="327.5" y="51.7" type="line"/>
      <point x="344.0" y="185.39999999999998" type="line"/>
      <point x="475.70000000000005" y="185.39999999999998" type="line"/>
      <point x="487.70000000000005" y="282.7" type="line"/>
      <point x="356.0" y="282.7" type="line"/>
      <point x="372.20000000000005" y="417.2" type="line"/>
    </contour>
  </outline>
</glyph>
<glyph name="comma" format="2">
  <advance width="203.8"/>
  <unicode hex="002C"/>
  <outline>
    <contour>
      <point x="44.2" y="-206.5" type="line"/>
      <point x="102.60000000000001" y="-170.5"/>
      <point x="134.10000000000002" y="-90.0"/>
      <point x="125.5" y="-33.89999999999999" type="curve"/>
      <point x="26.89999999999999" y="-32.89999999999999" type="line"/>
      <point x="33.8" y="-82.3"/>
      <point x="18.59999999999999" y="-140.1"/>
      <point x="-13.100000000000007" y="-167.2" type="curve"/>
    </contour>
  </outline>
</glyph>
<glyph name="hyphen" format="2">
  <advance width="304.8"/>
  <unicode hex="002D"/>
  <outline>
    <contour>
      <point x="87.3" y="269.6" type="line"/>
      <point x="75.3" y="171.6" type="line"/>
      <point x="262.40000000000003" y="171.6" type="line"/>
      <point x="274.40000000000003" y="269.6" type="line"/>
    </contour>
  </outline>
</glyph>
<glyph name="period" format="2">
  <advance width="166.10000000000002"/>
  <unicode hex="002E"/>
  <outline>
    <contour>
      <point x="32.89999999999999" y="53.80000000000001" type="curve" smooth="yes"/>
      <point x="32.89999999999999" y="53.80000000000001" type="line" smooth="yes"/>
      <point x="32.89999999999999" y="21.400000000000006"/>
      <point x="58.8" y="0.0"/>
      <point x="86.7" y="0.0" type="curve" smooth="yes"/>
      <point x="116.60000000000001" y="0.0"/>
      <point x="153.4" y="26.500000000000004"/>
      <point x="153.4" y="66.4" type="curve" smooth="yes"/>
      <point x="153.4" y="97.4"/>
      <point x="128.20000000000002" y="121.90000000000002"/>
      <point x="102.0" y="121.90000000000002" type="curve" smooth="yes"/>
      <point x="69.0" y="121.90000000000002"/>
      <point x="32.89999999999999" y="92.30000000000001"/>
    </contour>
  </outline>
</glyph>
<glyph name="slash" format="2">
  <advance width="399.1"/>
  <unicode hex="002F"/>
  <outline>
    <contour>
      <point x="493.6" y="747.7" type="curve"/>
      <point x="392.2" y="747.7" type="line"/>
      <point x="265.8" y="491.9"/>
      <point x="141.4" y="236.8"/>
      <point x="15.0" y="-19.0" type="curve"/>
      <point x="116.40000000000002" y="-19.0" type="line"/>
      <point x="242.5" y="236.8"/>
      <point x="367.20000000000005" y="491.9"/>
    </contour>
  </outline>
</glyph>
<glyph name="zero" format="2">
  <advance width="648.3000000000001"/>
  <unicode hex="0030"/>
  <outline>
    <contour>
      <point x="307.7" y="-0.1999999999999993" type="curve"/>
      <point x="502.5" y="-2.899999999999997"/>
      <point x="603.9000000000001" y="160.6"/>
      <point x="617.7" y="355.5" type="curve"/>
      <point x="639.4" y="558.3000000000001"/>
      <point x="509.9" y="663.3000000000001"/>
      <point x="374.3" y="665.4000000000001" type="curve"/>
      <point x="100.69999999999997" y="668.1"/>
      <point x="63.3" y="372.4"/>
      <point x="58.8" y="287.29999999999995" type="curve"/>
      <point x="54.3" y="92.39999999999999"/>
      <point x="168.0" y="1.899999999999999"/>
    </contour>
    <contour>
      <point x="321.8" y="110.20000000000003" type="curve"/>
      <point x="245.20000000000002" y="111.70000000000002"/>
      <point x="176.8" y="158.5"/>
      <point x="181.90000000000003" y="296.3" type="curve"/>
      <point x="187.60000000000002" y="419.29999999999995"/>
      <point x="244.70000000000002" y="557.4"/>
      <point x="356.1" y="555.0" type="curve"/>
      <point x="432.7" y="553.5"/>
      <point x="500.70000000000005" y="506.7"/>
      <point x="495.6" y="368.90000000000003" type="curve"/>
      <point x="489.9" y="245.90000000000003"/>
      <point x="433.5" y="107.80000000000003"/>
    </contour>
  </outline>
</glyph>
<glyph name="one" format="2">
  <advance width="358.90000000000003"/>
  <unicode hex="0031"/>
  <outline>
    <contour>
      <point x="127.0" y="660.0" type="line"/>
      <point x="112.60000000000001" y="547.9" type="line"/>
      <point x="178.79999999999998" y="547.9" type="line"/>
      <point x="111.8" y="0.0" type="line"/>
      <point x="228.70000000000002" y="0.0" type="line"/>
      <point x="310.40000000000003" y="660.0" type="line"/>
    </contour>
  </outline>
</glyph>
<glyph name="two" format="2">
  <advance width="574.9000000000001"/>
  <unicode hex="0032"/>
  <outline>
    <contour>
      <point x="38.999999999999986" y="0.0" type="curve"/>
      <point x="499.7" y="0.0" type="line"/>
      <point x="513.4" y="112.10000000000002" type="line"/>
      <point x="239.50000000000003" y="112.10000000000002" type="line"/>
      <point x="292.80000000000007" y="95.80000000000003" type="line"/>
      <point x="482.3" y="278.1"/>
      <point x="530.7" y="362.29999999999995"/>
      <point x="531.3" y="474.1" type="curve" smooth="yes"/>
      <point x="532.2" y="593.4"/>
      <point x="449.40000000000003" y="668.0"/>
      <point x="311.9" y="668.0" type="curve" smooth="yes"/>
      <point x="134.0" y="668.0"/>
      <point x="69.19999999999999" y="541.7"/>
      <point x="69.19999999999999" y="452.7" type="curve" smooth="yes"/>
      <point x="69.19999999999999" y="388.29999999999995"/>
      <point x="101.5" y="324.8"/>
      <point x="131.5" y="292.7" type="curve"/>
      <point x="210.40000000000003" y="357.5" type="line"/>
      <point x="192.10000000000002" y="380.09999999999997"/>
      <point x="183.00000000000003" y="408.3"/>
      <point x="183.00000000000003" y="444.2" type="curve" smooth="yes"/>
      <point x="183.00000000000003" y="491.5"/>
      <point x="213.5" y="556.1999999999999"/>
      <point x="298.7" y="556.1999999999999" type="curve" smooth="yes"/>
      <point x="362.5" y="556.1999999999999"/>
      <point x="409.2" y="522.2"/>
      <point x="409.2" y="448.40000000000003" type="curve" smooth="yes"/>
      <point x="409.2" y="373.0"/>
      <point x="375.2" y="302.3"/>
    </contour>
  </outline>
</glyph>
<glyph name="three" format="2">
  <advance width="507.0"/>
  <unicode hex="0033"/>
  <outline>
    <contour>
      <point x="471.3" y="660.0" type="line"/>
      <point x="119.60000000000001" y="660.0" type="line"/>
      <point x="105.89999999999999" y="548.1999999999999" type="line"/>
      <point x="333.79999999999995" y="548.1999999999999" type="line"/>
      <point x="300.09999999999997" y="562.8" type="line"/>
      <point x="137.8" y="331.79999999999995" type="line"/>
      <point x="141.1" y="327.79999999999995" type="line"/>
      <point x="155.79999999999998" y="334.59999999999997"/>
      <point x="186.79999999999998" y="342.59999999999997"/>
      <point x="217.99999999999997" y="342.0" type="curve" smooth="yes"/>
      <point x="293.59999999999997" y="340.79999999999995"/>
      <point x="348.4" y="300.7"/>
      <point x="348.4" y="232.3" type="curve" smooth="yes"/>
      <point x="348.4" y="163.5"/>
      <point x="305.3" y="105.90000000000002"/>
      <point x="227.4" y="104.70000000000002" type="curve" smooth="yes"/>
      <point x="183.1" y="104.10000000000002"/>
      <point x="133.5" y="127.20000000000003"/>
      <point x="105.10000000000002" y="168.70000000000002" type="curve"/>
      <point x="35.4" y="77.9" type="line"/>
      <point x="81.3" y="18.1"/>
      <point x="166.0" y="-7.6"/>
      <point x="228.3" y="-6.7" type="curve" smooth="yes"/>
      <point x="402.0" y="-4.0"/>
      <point x="468.4" y="123.89999999999999"/>
      <point x="468.4" y="236.9" type="curve" smooth="yes"/>
      <point x="468.4" y="346.3"/>
      <point x="385.70000000000005" y="414.8"/>
      <point x="295.7" y="419.6" type="curve"/>
      <point x="277.9" y="420.2"/>
      <point x="250.4" y="418.9"/>
      <point x="213.8" y="410.5" type="curve"/>
      <point x="277.3" y="376.2" type="line"/>
    </contour>
  </outline>
</glyph>
<glyph name="four" format="2">
  <advance width="518.1"/>
  <unicode hex="0034"/>
  <outline>
    <contour>
      <point x="-4.600000000000012" y="153.4" type="line"/>
      <point x="289.59999999999997" y="153.4" type="line"/>
      <point x="270.7" y="0.0" type="line"/>
      <point x="387.6" y="0.0" type="line"/>
      <point x="406.5" y="153.4" type="line"/>
      <point x="489.4" y="153.4" type="line"/>
      <point x="500.0" y="242.10000000000002" type="line"/>
      <point x="417.09999999999997" y="242.10000000000002" type="line"/>
      <point x="469.0" y="668.0" type="line"/>
      <point x="468.0" y="668.0" type="line"/>
      <point x="-4.600000000000012" y="154.4" type="line"/>
    </contour>
    <contour>
      <point x="330.19999999999993" y="412.19999999999993" type="line"/>
      <point x="322.5" y="421.5" type="line"/>
      <point x="300.2" y="242.10000000000002" type="line"/>
      <point x="156.10000000000002" y="242.10000000000002" type="line"/>
      <point x="166.8" y="227.0" type="line"/>
    </contour>
  </outline>
</glyph>
<glyph name="five" format="2">
  <advance width="518.9"/>
  <unicode hex="0035"/>
  <outline>
    <contour>
      <point x="235.0" y="-7.7" type="curve" smooth="yes"/>
      <point x="407.5" y="-7.1"/>
      <point x="473.4" y="124.5"/>
      <point x="473.40000000000003" y="230.60000000000002" type="curve" smooth="yes"/>
      <point x="473.4" y="380.8"/>
      <point x="356.0" y="436.1"/>
      <point x="270.0" y="437.6" type="curve" smooth="yes"/>
      <point x="243.6" y="437.90000000000003"/>
      <point x="217.5" y="434.7"/>
      <point x="202.20000000000002" y="429.0" type="curve"/>
      <point x="208.4" y="404.6" type="line"/>
      <point x="236.9" y="548.1999999999999" type="line"/>
      <point x="464.5" y="548.1999999999999" type="line"/>
      <point x="477.5" y="660.0" type="line"/>
      <point x="163.29999999999998" y="660.0" type="line"/>
      <point x="91.89999999999998" y="304.2" type="line"/>
      <point x="93.79999999999998" y="303.9" type="line"/>
      <point x="139.1" y="333.5"/>
      <point x="182.5" y="343.3"/>
      <point x="219.89999999999998" y="342.7" type="curve" smooth="yes"/>
      <point x="274.4" y="341.2"/>
      <point x="353.4" y="317.7"/>
      <point x="353.4" y="224.8" type="curve" smooth="yes"/>
      <point x="353.4" y="163.60000000000002"/>
      <point x="316.6" y="106.10000000000002"/>
      <point x="231.2" y="106.10000000000002" type="curve" smooth="yes"/>
      <point x="197.20000000000002" y="106.10000000000002"/>
      <point x="147.0" y="120.60000000000002"/>
      <point x="116.9" y="164.40000000000003" type="curve"/>
      <point x="45.29999999999999" y="75.5" type="line"/>
      <point x="94.79999999999998" y="17.0"/>
      <point x="185.1" y="-7.700000000000001"/>
    </contour>
  </outline>
</glyph>
<glyph name="six" format="2">
  <advance width="571.0"/>
  <unicode hex="0036"/>
  <outline>
    <contour>
      <point x="282.6" y="-7.7" type="curve" smooth="yes"/>
      <point x="451.6" y="-7.699999999999999"/>
      <point x="531.3" y="127.9"/>
      <point x="531.3" y="229.4" type="curve" smooth="yes"/>
      <point x="531.3" y="370.3"/>
      <point x="421.4" y="425.3"/>
      <point x="350.0" y="425.3" type="curve" smooth="yes"/>
      <point x="258.7" y="425.3"/>
      <point x="203.70000000000002" y="385.40000000000003"/>
      <point x="161.3" y="315.3" type="curve"/>
      <point x="189.40000000000003" y="307.8" type="line"/>
      <point x="207.9" y="397.29999999999995"/>
      <point x="299.5" y="514.4000000000001"/>
      <point x="469.5" y="577.6" type="curve"/>
      <point x="402.6" y="667.0" type="line"/>
      <point x="132.99999999999997" y="525.8000000000001"/>
      <point x="54.8" y="365.8"/>
      <point x="54.8" y="232.70000000000002" type="curve" smooth="yes"/>
      <point x="54.800000000000004" y="82.5"/>
      <point x="150.9" y="-7.700000000000001"/>
    </contour>
    <contour>
      <point x="283.6" y="96.50000000000001" type="curve" smooth="yes"/>
      <point x="217.10000000000002" y="96.50000000000001"/>
      <point x="169.00000000000003" y="146.60000000000002"/>
      <point x="169.0" y="208.8" type="curve" smooth="yes"/>
      <point x="169.0" y="251.7"/>
      <point x="194.70000000000002" y="329.7"/>
      <point x="295.0" y="329.7" type="curve" smooth="yes"/>
      <point x="361.2" y="329.7"/>
      <point x="410.9" y="288.6"/>
      <point x="410.9" y="224.0" type="curve" smooth="yes"/>
      <point x="410.9" y="178.3"/>
      <point x="382.70000000000005" y="96.50000000000003"/>
    </contour>
  </outline>
</glyph>
<glyph name="seven" format="2">
  <advance width="494.9"/>
  <unicode hex="0037"/>
  <outline>
    <contour>
      <point x="527.7" y="660.0" type="line"/>
      <point x="89.9" y="660.0" type="line"/>
      <point x="75.5" y="548.1999999999999" type="line"/>
      <point x="388.99999999999994" y="548.1999999999999" type="line"/>
      <point x="348.29999999999995" y="563.4" type="line"/>
      <point x="56.8" y="0.0" type="line"/>
      <point x="192.20000000000002" y="0.0" type="line"/>
    </contour>
  </outline>
</glyph>
<glyph name="eight" format="2">
  <advance width="558.9000000000001"/>
  <unicode hex="0038"/>
  <outline>
    <contour>
      <point x="39.599999999999994" y="201.3" type="curve" smooth="yes"/>
      <point x="39.6" y="90.8"/>
      <point x="131.6" y="-7.700000000000001"/>
      <point x="269.2" y="-7.7" type="curve" smooth="yes"/>
      <point x="448.9" y="-7.699999999999999"/>
      <point x="520.6" y="143.60000000000002"/>
      <point x="520.6" y="223.1" type="curve" smooth="yes"/>
      <point x="520.6" y="306.8"/>
      <point x="466.6" y="361.3"/>
      <point x="418.90000000000003" y="390.8" type="curve"/>
      <point x="467.5" y="425.3"/>
      <point x="498.70000000000005" y="461.5"/>
      <point x="498.7" y="526.5" type="curve" smooth="yes"/>
      <point x="498.70000000000005" y="604.9000000000001"/>
      <point x="420.8" y="668.0"/>
      <point x="319.7" y="668.0" type="curve" smooth="yes"/>
      <point x="191.6" y="668.0"/>
      <point x="139.8" y="576.9"/>
      <point x="137.7" y="506.90000000000003" type="curve" smooth="yes"/>
      <point x="136.2" y="461.2"/>
      <point x="157.5" y="430.9"/>
      <point x="186.39999999999998" y="404.40000000000003" type="curve"/>
      <point x="110.39999999999999" y="373.0"/>
      <point x="39.599999999999994" y="305.9"/>
    </contour>
    <contour>
      <point x="158.60000000000002" y="207.1" type="curve" smooth="yes"/>
      <point x="158.60000000000002" y="268.5"/>
      <point x="204.8" y="340.0"/>
      <point x="290.8" y="340.0" type="curve" smooth="yes"/>
      <point x="356.7" y="340.0"/>
      <point x="405.4" y="286.90000000000003"/>
      <point x="405.4" y="223.2" type="curve" smooth="yes"/>
      <point x="405.4" y="150.3"/>
      <point x="348.3" y="90.30000000000003"/>
      <point x="271.2" y="90.30000000000003" type="curve" smooth="yes"/>
      <point x="199.50000000000003" y="90.30000000000003"/>
      <point x="158.60000000000002" y="143.10000000000002"/>
    </contour>
    <contour>
      <point x="249.5" y="501.1" type="curve" smooth="yes"/>
      <point x="252.20000000000002" y="541.5"/>
      <point x="279.2" y="570.3"/>
      <point x="322.4" y="570.3" type="curve" smooth="yes"/>
      <point x="356.9" y="570.3000000000001"/>
      <point x="384.9" y="544.0"/>
      <point x="384.90000000000003" y="505.4" type="curve" smooth="yes"/>
      <point x="384.9" y="474.1"/>
      <point x="361.7" y="437.0"/>
      <point x="314.2" y="437.0" type="curve" smooth="yes"/>
      <point x="278.90000000000003" y="437.0"/>
      <point x="248.0" y="465.8"/>
    </contour>
  </outline>
</glyph>
<glyph name="nine" format="2">
  <advance width="561.9"/>
  <unicode hex="0039"/>
  <outline>
    <contour>
      <point x="252.10000000000002" y="214.5" type="curve" smooth="yes"/>
      <point x="339.0" y="213.6"/>
      <point x="390.3" y="252.6"/>
      <point x="435.7" y="321.8" type="curve"/>
      <point x="405.2" y="329.90000000000003" type="line"/>
      <point x="387.9" y="245.5"/>
      <point x="270.2" y="150.6"/>
      <point x="97.8" y="85.60000000000002" type="curve"/>
      <point x="165.0" y="-3.800000000000001" type="line"/>
      <point x="424.70000000000005" y="129.6"/>
      <point x="539.4" y="259.40000000000003"/>
      <point x="544.5" y="425.2" type="curve"/>
      <point x="547.8000000000001" y="550.9"/>
      <point x="450.3" y="646.3000000000001"/>
      <point x="315.9" y="647.5" type="curve" smooth="yes"/>
      <point x="147.79999999999998" y="649.0"/>
      <point x="67.5" y="515.4"/>
      <point x="64.5" y="415.79999999999995" type="curve" smooth="yes"/>
      <point x="61.49999999999999" y="288.59999999999997"/>
      <point x="163.2" y="216.0"/>
    </contour>
    <contour>
      <point x="297.5" y="310.40000000000003" type="curve" smooth="yes"/>
      <point x="231.70000000000002" y="311.6"/>
      <point x="183.20000000000002" y="354.09999999999997"/>
      <point x="185.90000000000003" y="419.6" type="curve" smooth="yes"/>
      <point x="188.90000000000003" y="474.4"/>
      <point x="227.8" y="544.8"/>
      <point x="314.9" y="543.3" type="curve" smooth="yes"/>
      <point x="384.6" y="541.8"/>
      <point x="431.8" y="486.79999999999995"/>
      <point x="425.79999999999995" y="424.2" type="curve"/>
      <point x="416.4" y="343.6"/>
      <point x="372.2" y="308.6"/>
    </contour>
  </outline>
</glyph>
<glyph name="colon" format="2">
  <advance width="178.10000000000002"/>
  <unicode hex="003A"/>
  <outline>
    <contour>
      <point x="32.599999999999994" y="53.80000000000001" type="curve" smooth="yes"/>
      <point x="32.599999999999994" y="53.80000000000001" type="line" smooth="yes"/>
      <point x="32.599999999999994" y="21.400000000000006"/>
      <point x="58.5" y="0.0"/>
      <point x="86.7" y="0.0" type="curve" smooth="yes"/>
      <point x="116.6" y="0.0"/>
      <point x="153.10000000000002" y="26.500000000000004"/>
      <point x="153.10000000000002" y="66.4" type="curve" smooth="yes"/>
      <point x="153.10000000000002" y="97.4"/>
      <point x="128.2" y="121.90000000000002"/>
      <point x="101.7" y="121.90000000000002" type="curve" smooth="yes"/>
      <point x="68.7" y="121.90000000000002"/>
      <point x="32.599999999999994" y="92.30000000000001"/>
    </contour>
    <contour>
      <point x="66.69999999999999" y="331.0" type="curve" smooth="yes"/>
      <point x="66.69999999999999" y="331.0" type="line" smooth="yes"/>
      <point x="66.69999999999999" y="298.6"/>
      <point x="92.9" y="277.2"/>
      <point x="120.8" y="277.2" type="curve" smooth="yes"/>
      <point x="150.70000000000002" y="277.2"/>
      <point x="187.20000000000002" y="303.7"/>
      <point x="187.20000000000002" y="343.6" type="curve" smooth="yes"/>
      <point x="187.20000000000002" y="374.9"/>
      <point x="162.3" y="399.1"/>
      <point x="135.8" y="399.1" type="curve" smooth="yes"/>
      <point x="102.8" y="399.1"/>
      <point x="66.69999999999999" y="369.5"/>
    </contour>
  </outline>
</glyph>
<glyph name="semicolon" format="2">
  <advance width="204.10000000000002"/>
  <unicode hex="003B"/>
  <outline>
    <contour>
      <point x="98.3" y="307.9" type="curve" smooth="yes"/>
      <point x="98.3" y="307.9" type="line" smooth="yes"/>
      <point x="98.3" y="275.2"/>
      <point x="123.2" y="253.8"/>
      <point x="150.4" y="253.8" type="curve" smooth="yes"/>
      <point x="182.0" y="253.8"/>
      <point x="217.8" y="280.3"/>
      <point x="217.8" y="320.20000000000005" type="curve" smooth="yes"/>
      <point x="217.8" y="351.5"/>
      <point x="192.9" y="375.7"/>
      <point x="165.70000000000002" y="375.7" type="curve" smooth="yes"/>
      <point x="134.1" y="375.7"/>
      <point x="98.3" y="346.4"/>
    </contour>
    <contour>
      <point x="171.20000000000002" y="87.7" type="curve"/>
      <point x="71.8" y="87.7" type="line"/>
      <point x="36.099999999999994" y="17.0"/>
      <point x="2.7999999999999936" y="-51.7"/>
      <point x="-32.60000000000001" y="-121.7" type="curve"/>
      <point x="57.800000000000004" y="-121.7" type="line"/>
      <point x="95.5" y="-51.7"/>
      <point x="132.5" y="17.0"/>
    </contour>
  </outline>
</glyph>
<glyph name="less" format="2">
  <advance width="582.6"/>
  <unicode hex="003C"/>
  <outline>
    <contour>
      <point x="461.5" y="-14.3" type="curve"/>
      <point x="478.99999999999994" y="123.50000000000003" type="line"/>
      <point x="478.99999999999994" y="123.50000000000003" type="line"/>
      <point x="416.0" y="162.60000000000002"/>
      <point x="351.70000000000005" y="202.70000000000002"/>
      <point x="288.40000000000003" y="241.8" type="curve"/>
      <point x="360.7" y="281.2"/>
      <point x="435.09999999999997" y="321.29999999999995"/>
      <point x="507.4" y="360.4" type="curve"/>
      <point x="524.1999999999999" y="497.2" type="line"/>
      <point x="365.79999999999995" y="412.5"/>
      <point x="208.09999999999997" y="326.8"/>
      <point x="49.699999999999974" y="241.8" type="curve"/>
      <point x="187.39999999999998" y="156.4"/>
      <point x="323.79999999999995" y="71.39999999999999"/>
    </contour>
  </outline>
</glyph>
<glyph name="equal" format="2">
  <advance width="719.0"/>
  <unicode hex="003D"/>
  <outline>
    <contour>
      <point x="126.2" y="202.9" type="line"/>
      <point x="114.2" y="104.89999999999999" type="line"/>
      <point x="627.8000000000001" y="104.89999999999999" type="line"/>
      <point x="640.1" y="202.9" type="line"/>
    </contour>
    <contour>
      <point x="150.20000000000002" y="400.0" type="line"/>
      <point x="138.2" y="302.0" type="line"/>
      <point x="651.8000000000001" y="302.0" type="line"/>
      <point x="664.1" y="400.0" type="line"/>
    </contour>
  </outline>
</glyph>
<glyph name="greater" format="2">
  <advance width="576.7"/>
  <unicode hex="003E"/>
  <outline>
    <contour>
      <point x="90.19999999999999" y="123.50000000000003" type="curve"/>
      <point x="73.39999999999999" y="-14.3" type="line"/>
      <point x="73.39999999999999" y="-14.3" type="line"/>
      <point x="232.5" y="71.39999999999999"/>
      <point x="389.5" y="156.4"/>
      <point x="548.6" y="241.8" type="curve"/>
      <point x="410.2" y="326.8"/>
      <point x="274.5" y="412.5"/>
      <point x="136.1" y="497.2" type="curve"/>
      <point x="119.29999999999998" y="360.4" type="line"/>
      <point x="182.99999999999994" y="321.29999999999995"/>
      <point x="246.59999999999997" y="281.2"/>
      <point x="310.6" y="241.8" type="curve"/>
      <point x="236.89999999999995" y="202.70000000000002"/>
      <point x="163.89999999999998" y="162.60000000000002"/>
    </contour>
  </outline>
</glyph>
<glyph name="question" format="2">
  <advance width="445.79999999999995"/>
  <unicode hex="003F"/>
  <outline>
    <contour>
      <point x="137.79999999999995" y="264.8" type="curve" smooth="yes"/>
      <point x="125.79999999999997" y="166.4" type="line"/>
      <point x="226.5" y="166.4" type="line"/>
      <point x="236.5" y="245.8" type="line" smooth="yes"/>
      <point x="245.1" y="313.5"/>
      <point x="307.8" y="343.0"/>
      <point x="345.2" y="368.29999999999995" type="curve" smooth="yes"/>
      <point x="421.29999999999995" y="420.40000000000003"/>
      <point x="468.0" y="480.8"/>
      <point x="468.0" y="565.6" type="curve" smooth="yes"/>
      <point x="468.0" y="664.0"/>
      <point x="394.9" y="743.7"/>
      <point x="291.90000000000003" y="743.7" type="curve" smooth="yes"/>
      <point x="142.2" y="743.7"/>
      <point x="89.39999999999998" y="637.8"/>
      <point x="65.39999999999999" y="583.5" type="curve"/>
      <point x="92.5" y="572.2"/>
      <point x="121.6" y="561.2"/>
      <point x="149.0" y="550.9" type="curve"/>
      <point x="149.0" y="550.9" type="line"/>
      <point x="176.20000000000002" y="614.3"/>
      <point x="205.4" y="645.4"/>
      <point x="279.90000000000003" y="645.4" type="curve" smooth="yes"/>
      <point x="332.59999999999997" y="645.4"/>
      <point x="364.49999999999994" y="608.0"/>
      <point x="364.49999999999994" y="557.7" type="curve" smooth="yes"/>
      <point x="364.49999999999994" y="504.8"/>
      <point x="334.29999999999995" y="457.9"/>
      <point x="273.7" y="414.9" type="curve" smooth="yes"/>
      <point x="207.19999999999996" y="368.2"/>
      <point x="148.79999999999998" y="352.3"/>
    </contour>
    <contour>
      <point x="153.29999999999998" y="-5.300000000000008" type="curve" smooth="yes"/>
      <point x="153.29999999999998" y="-5.300000000000008" type="line" smooth="yes"/>
      <point x="184.6" y="-5.300000000000008"/>
      <point x="220.0" y="20.89999999999999"/>
      <point x="220.0" y="60.400000000000006" type="curve" smooth="yes"/>
      <point x="220.0" y="91.4"/>
      <point x="194.5" y="115.60000000000002"/>
      <point x="168.29999999999998" y="115.60000000000002" type="curve" smooth="yes"/>
      <point x="135.89999999999998" y="115.60000000000002"/>
      <point x="99.79999999999998" y="86.30000000000001"/>
      <point x="99.79999999999998" y="48.50000000000001" type="curve" smooth="yes"/>
      <point x="99.79999999999998" y="15.799999999999997"/>
      <point x="125.69999999999997" y="-5.300000000000008"/>
    </contour>
  </outline>
</glyph>
<glyph name="at" format="2">
  <advance width="1031.0"/>
  <unicode hex="0040"/>
  <outline>
    <contour>
      <point x="444.3" y="-221.8" type="curve"/>
      <point x="535.1" y="-221.8"/>
      <point x="647.8000000000001" y="-193.1"/>
      <point x="726.7" y="-131.6" type="curve"/>
      <point x="681.5" y="-67.29999999999998" type="line"/>
      <point x="615.6" y="-108.6"/>
      <point x="538.6" y="-134.5"/>
      <point x="461.1" y="-134.5" type="curve"/>
      <point x="282.5" y="-134.5"/>
      <point x="141.40000000000003" y="-41.39999999999999"/>
      <point x="141.40000000000003" y="171.5" type="curve"/>
      <point x="141.40000000000003" y="292.8"/>
      <point x="228.5" y="571.0"/>
      <point x="584.7" y="571.0" type="curve"/>
      <point x="787.9" y="571.0"/>
      <point x="892.7" y="447.40000000000003"/>
      <point x="892.7" y="300.0" type="curve"/>
      <point x="892.7" y="181.3"/>
      <point x="829.8" y="94.20000000000002"/>
      <point x="769.6999999999999" y="94.20000000000002" type="curve"/>
      <point x="737.7" y="94.20000000000002"/>
      <point x="728.7" y="119.00000000000001"/>
      <point x="733.7" y="155.5" type="curve"/>
      <point x="771.3000000000001" y="423.20000000000005" type="line"/>
      <point x="664.6" y="423.20000000000005" type="line"/>
      <point x="647.7" y="361.20000000000005" type="line"/>
      <point x="624.6" y="404.6"/>
      <point x="585.5" y="442.2"/>
      <point x="498.5" y="442.2" type="curve"/>
      <point x="354.3" y="442.2"/>
      <point x="253.79999999999998" y="329.20000000000005"/>
      <point x="253.79999999999998" y="185.6" type="curve"/>
      <point x="252.9" y="62.8"/>
      <point x="335.09999999999997" y="-10.8"/>
      <point x="445.2" y="-10.8" type="curve"/>
      <point x="525.6" y="-10.8"/>
      <point x="607.0" y="48.6"/>
      <point x="638.5" y="97.19999999999999" type="curve"/>
      <point x="619.0" y="148.1" type="line"/>
      <point x="602.8000000000001" y="56.400000000000006"/>
      <point x="658.8" y="-8.299999999999999"/>
      <point x="741.8000000000001" y="-8.299999999999999" type="curve"/>
      <point x="892.4" y="-8.299999999999999"/>
      <point x="996.8000000000001" y="134.5"/>
      <point x="996.8000000000001" y="300.0" type="curve"/>
      <point x="996.8000000000001" y="500.1"/>
      <point x="853.3000000000001" y="659.0"/>
      <point x="600.8" y="659.0" type="curve"/>
      <point x="195.6" y="659.0"/>
      <point x="39.699999999999996" y="378.8"/>
      <point x="39.699999999999996" y="167.8" type="curve"/>
      <point x="39.699999999999996" y="-95.5"/>
      <point x="225.3" y="-221.8"/>
    </contour>
    <contour>
      <point x="488.9" y="81.00000000000001" type="curve"/>
      <point x="420.5" y="81.00000000000001"/>
      <point x="372.8" y="132.8"/>
      <point x="373.1" y="200.4" type="curve"/>
      <point x="373.1" y="279.0"/>
      <point x="435.8" y="350.4"/>
      <point x="516.8000000000001" y="350.4" type="curve"/>
      <point x="579.1" y="350.4"/>
      <point x="624.3" y="314.70000000000005"/>
      <point x="633.1" y="262.7" type="curve"/>
      <point x="620.2" y="171.0" type="line"/>
      <point x="594.8" y="114.4"/>
      <point x="549.1" y="81.00000000000001"/>
    </contour>
  </outline>
</glyph>
<glyph name="A" format="2">
  <advance width="699.0"/>
  <unicode hex="0041"/>
  <anchor x="332.7" y="0.0" name="bottom"/>
  <anchor x="624.6" y="10.0" name="ogonek"/>
  <anchor x="411.90000000000003" y="740.8" name="top"/>
  <outline>
    <contour>
      <point x="109.30000000000001" y="0.0" type="line"/>
      <point x="446.1" y="629.8" type="line"/>
      <point x="355.2" y="573.6999999999999" type="line"/>
      <point x="512.0" y="0.0" type="line"/>
      <point x="646.1" y="0.0" type="line"/>
      <point x="416.8" y="757.8" type="line"/>
      <point x="410.0" y="757.8" type="line"/>
      <point x="-5.500000000000007" y="0.0" type="line"/>
    </contour>
    <contour>
      <point x="230.5" y="270.5" type="line"/>
      <point x="183.1" y="171.29999999999998" type="line"/>
      <point x="507.3" y="171.29999999999998" type="line"/>
      <point x="479.7" y="270.5" type="line"/>
    </contour>
  </outline>
</glyph>
<glyph name="B" format="2">
  <advance width="623.6"/>
  <unicode hex="0042"/>
  <anchor x="282.3" y="0.0" name="bottom"/>
  <anchor x="296.7" y="700.0" name="top"/>
  <outline>
    <contour>
      <point x="359.3" y="728.2" type="curve" smooth="yes"/>
      <point x="161.3" y="728.2" type="line"/>
      <point x="72.19999999999999" y="0.0" type="line"/>
      <point x="303.4" y="0.0" type="line" smooth="yes"/>
      <point x="440.20000000000005" y="0.0"/>
      <point x="566.6" y="65.2"/>
      <point x="566.6" y="221.3" type="curve" smooth="yes"/>
      <point x="566.6" y="313.20000000000005"/>
      <point x="504.3" y="358.9"/>
      <point x="439.7" y="373.3" type="curve"/>
      <point x="443.50000000000006" y="368.6" type="line"/>
      <point x="542.7" y="394.8"/>
      <point x="574.3000000000001" y="488.70000000000005"/>
      <point x="574.3000000000001" y="567.3" type="curve" smooth="yes"/>
      <point x="574.3000000000001" y="682.4"/>
      <point x="493.1" y="728.2"/>
    </contour>
    <contour>
      <point x="337.90000000000003" y="417.90000000000003" type="curve" smooth="yes"/>
      <point x="243.10000000000002" y="417.90000000000003" type="line"/>
      <point x="268.3" y="619.9" type="line"/>
      <point x="348.3" y="619.9" type="line" smooth="yes"/>
      <point x="412.90000000000003" y="619.9"/>
      <point x="451.9" y="592.9"/>
      <point x="451.9" y="535.8" type="curve" smooth="yes"/>
      <point x="451.9" y="486.9"/>
      <point x="421.9" y="417.90000000000003"/>
    </contour>
    <contour>
      <point x="307.5" y="108.00000000000003" type="curve" smooth="yes"/>
      <point x="205.90000000000003" y="108.00000000000003" type="line"/>
      <point x="230.8" y="316.8" type="line"/>
      <point x="322.4" y="316.8" type="line" smooth="yes"/>
      <point x="384.9" y="316.8"/>
      <point x="449.0" y="294.2"/>
      <point x="449.0" y="226.2" type="curve" smooth="yes"/>
      <point x="449.0" y="154.5"/>
      <point x="394.2" y="108.00000000000003"/>
    </contour>
  </outline>
</glyph>
<glyph name="C" format="2">
  <advance width="699.1"/>
  <unicode hex="0043"/>
  <anchor x="430.9" y="-0.899999999999999" name="bottom"/>
  <anchor x="452.0" y="721.7" name="top"/>
  <outline>
    <contour>
      <point x="621.6999999999999" y="39.7" type="curve"/>
      <point x="585.5" y="146.70000000000002" type="line"/>
      <point x="556.8" y="130.90000000000003"/>
      <point x="505.6" y="100.10000000000002"/>
      <point x="426.9" y="100.10000000000002" type="curve" smooth="yes"/>
      <point x="287.40000000000003" y="100.10000000000002"/>
      <point x="195.40000000000003" y="196.10000000000002"/>
      <point x="195.40000000000003" y="334.9" type="curve" smooth="yes"/>
      <point x="195.40000000000003" y="495.8"/>
      <point x="292.8" y="626.7"/>
      <point x="465.0" y="619.5" type="curve" smooth="yes"/>
      <point x="536.0" y="615.6999999999999"/>
      <point x="592.3" y="581.3"/>
      <point x="626.4" y="551.9" type="curve"/>
      <point x="686.0" y="657.9" type="line"/>
      <point x="636.2" y="694.5"/>
      <point x="556.5" y="732.3000000000001"/>
      <point x="454.3" y="732.3000000000001" type="curve" smooth="yes"/>
      <point x="183.6" y="732.3000000000001"/>
      <point x="74.0" y="523.1"/>
      <point x="74.0" y="326.3" type="curve" smooth="yes"/>
      <point x="74.0" y="81.1"/>
      <point x="259.8" y="-12.7"/>
      <point x="422.4" y="-12.7" type="curve" smooth="yes"/>
      <point x="514.0" y="-12.7"/>
      <point x="591.0" y="20.900000000000006"/>
    </contour>
  </outline>
</glyph>
<glyph name="D" format="2">
  <advance width="758.3000000000001"/>
  <unicode hex="0044"/>
  <anchor x="352.40000000000003" y="0.0" name="bottom"/>
  <anchor x="180.8" y="350.0" name="center"/>
  <anchor x="397.2" y="700.0" name="top"/>
  <outline>
    <contour>
      <point x="72.19999999999999" y="0.0" type="line"/>
      <point x="332.90000000000003" y="0.0" type="line" smooth="yes"/>
      <point x="528.4" y="0.0"/>
      <point x="701.6" y="135.7"/>
      <point x="720.2" y="362.2" type="curve" smooth="yes"/>
      <point x="736.3" y="543.0"/>
      <point x="659.2" y="728.2"/>
      <point x="392.20000000000005" y="728.2" type="curve" smooth="yes"/>
      <point x="161.3" y="728.2" type="line"/>
    </contour>
    <contour>
      <point x="201.8" y="112.10000000000002" type="line"/>
      <point x="263.5" y="616.5" type="line"/>
      <point x="386.0" y="616.5" type="line" smooth="yes"/>
      <point x="493.5" y="616.5"/>
      <point x="619.8" y="554.0"/>
      <point x="601.9" y="369.5" type="curve" smooth="yes"/>
      <point x="589.2" y="200.20000000000002"/>
      <point x="476.5" y="112.10000000000002"/>
      <point x="328.5" y="112.10000000000002" type="curve"/>
    </contour>
  </outline>
</glyph>
<glyph name="E" format="2">
  <advance width="658.6"/>
  <unicode hex="0045"/>
  <anchor x="345.0" y="0.0" name="bottom"/>
  <anchor x="546.8" y="10.0" name="ogonek"/>
  <anchor x="392.8" y="723.4" name="top"/>
  <anchor x="20.69999999999999" y="700.0" name="topleft"/>
  <outline>
    <contour>
      <point x="161.3" y="728.2" type="line"/>
      <point x="72.19999999999999" y="0.0" type="line"/>
      <point x="569.0" y="0.0" type="line"/>
      <point x="582.7" y="111.40000000000002" type="line"/>
      <point x="205.90000000000003" y="111.40000000000002" type="line"/>
      <point x="230.10000000000002" y="309.5" type="line"/>
      <point x="552.5" y="309.5" type="line"/>
      <point x="566.1999999999999" y="419.9" type="line"/>
      <point x="243.8" y="419.9" type="line"/>
      <point x="268.3" y="619.9" type="line"/>
      <point x="631.1" y="619.9" type="line"/>
      <point x="644.1" y="728.2" type="line"/>
    </contour>
  </outline>
</glyph>
<glyph name="F" format="2">
  <advance width="593.4"/>
  <unicode hex="0046"/>
  <anchor x="272.0" y="0.0" name="bottom"/>
  <anchor x="357.3" y="700.0" name="top"/>
  <outline>
    <contour>
      <point x="161.3" y="728.2" type="line"/>
      <point x="72.19999999999999" y="0.0" type="line"/>
      <point x="192.20000000000002" y="0.0" type="line"/>
      <point x="228.40000000000003" y="299.5" type="line"/>
      <point x="508.4" y="299.5" type="line"/>
      <point x="522.8000000000001" y="410.90000000000003" type="line"/>
      <point x="242.8" y="410.90000000000003" type="line"/>
      <point x="267.6" y="617.5" type="line"/>
      <point x="588.6999999999999" y="617.5" type="line"/>
      <point x="602.4" y="728.2" type="line"/>
    </contour>
  </outline>
</glyph>
<glyph name="G" format="2">
  <advance width="764.1999999999999"/>
  <unicode hex="0047"/>
  <anchor x="391.5" y="0.0" name="bottom"/>
  <anchor x="472.7" y="731.3" name="top"/>
  <outline>
    <contour>
      <point x="664.5" y="49.7" type="curve"/>
      <point x="702.3000000000001" y="362.8" type="line"/>
      <point x="446.5" y="362.8" type="line"/>
      <point x="432.8" y="251.7" type="line"/>
      <point x="570.0" y="251.7" type="line"/>
      <point x="554.8" y="122.40000000000002" type="line"/>
      <point x="525.6" y="108.40000000000002"/>
      <point x="485.3" y="102.60000000000002"/>
      <point x="446.1" y="104.20000000000003" type="curve" smooth="yes"/>
      <point x="354.5" y="107.50000000000001"/>
      <point x="193.20000000000002" y="161.5"/>
      <point x="194.40000000000003" y="332.4" type="curve" smooth="yes"/>
      <point x="195.90000000000003" y="448.7"/>
      <point x="261.4" y="612.8"/>
      <point x="468.5" y="614.0" type="curve" smooth="yes"/>
      <point x="531.0" y="614.7"/>
      <point x="606.3" y="592.8"/>
      <point x="657.0999999999999" y="558.8" type="curve"/>
      <point x="708.8000000000001" y="664.1" type="line"/>
      <point x="641.1999999999999" y="708.4000000000001"/>
      <point x="551.6" y="729.6"/>
      <point x="470.5" y="730.9000000000001" type="curve" smooth="yes"/>
      <point x="188.4" y="733.2"/>
      <point x="75.69999999999999" y="501.9"/>
      <point x="73.0" y="328.6" type="curve" smooth="yes"/>
      <point x="70.89999999999999" y="65.29999999999998"/>
      <point x="315.40000000000003" y="-10.1"/>
      <point x="430.8" y="-11.0" type="curve" smooth="yes"/>
      <point x="514.1" y="-12.3"/>
      <point x="623.5" y="18.200000000000003"/>
    </contour>
  </outline>
</glyph>
<glyph name="H" format="2">
  <advance width="792.9000000000001"/>
  <unicode hex="0048"/>
  <anchor x="366.4" y="0.0" name="bottom"/>
  <anchor x="407.0" y="357.9" name="center"/>
  <anchor x="447.6" y="731.3" name="top"/>
  <anchor x="-26.800000000000026" y="700.0" name="topleft"/>
  <outline>
    <contour>
      <point x="752.1" y="728.2" type="line"/>
      <point x="632.0999999999999" y="728.2" type="line"/>
      <point x="594.9" y="423.0" type="line"/>
      <point x="243.8" y="423.0" type="line"/>
      <point x="281.3" y="728.2" type="line"/>
      <point x="161.3" y="728.2" type="line"/>
      <point x="72.19999999999999" y="0.0" type="line"/>
      <point x="192.20000000000002" y="0.0" type="line"/>
      <point x="230.40000000000003" y="309.5" type="line"/>
      <point x="581.5" y="309.5" type="line"/>
      <point x="543.0" y="0.0" type="line"/>
      <point x="663.0" y="0.0" type="line"/>
    </contour>
  </outline>
</glyph>
<glyph name="I" format="2">
  <advance width="322.1"/>
  <unicode hex="0049"/>
  <anchor x="129.8" y="0.0" name="bottom"/>
  <anchor x="191.60000000000002" y="2.099999999999998" name="ogonek"/>
  <anchor x="218.9" y="723.4" name="top"/>
  <anchor x="12.099999999999987" y="700.0" name="topleft"/>
  <outline>
    <contour>
      <point x="161.3" y="728.2" type="line"/>
      <point x="72.19999999999999" y="0.0" type="line"/>
      <point x="192.20000000000002" y="0.0" type="line"/>
      <point x="281.3" y="728.2" type="line"/>
    </contour>
  </outline>
</glyph>
<glyph name="J" format="2">
  <advance width="382.40000000000003"/>
  <unicode hex="004A"/>
  <anchor x="163.60000000000002" y="0.0" name="bottom"/>
  <anchor x="276.7" y="728.2" name="top"/>
  <outline>
    <contour>
      <point x="269.70000000000005" y="140.60000000000002" type="curve" smooth="yes"/>
      <point x="341.6" y="728.2" type="line"/>
      <point x="225.0" y="728.2" type="line"/>
      <point x="153.79999999999998" y="143.60000000000002" type="line" smooth="yes"/>
      <point x="138.5" y="20.30000000000001"/>
      <point x="66.2" y="-32.499999999999986"/>
      <point x="-26.3" y="-37.499999999999986" type="curve"/>
      <point x="-40.0" y="-150.6" type="line"/>
      <point x="-40.0" y="-150.6" type="line"/>
      <point x="120.20000000000002" y="-145.9"/>
      <point x="247.90000000000003" y="-41.5"/>
    </contour>
  </outline>
</glyph>
<glyph name="K" format="2">
  <advance width="687.2"/>
  <unicode hex="004B"/>
  <anchor x="317.70000000000005" y="0.0" name="bottom"/>
  <anchor x="407.8" y="728.2" name="top"/>
  <outline>
    <contour>
      <point x="244.5" y="448.8" type="line"/>
      <point x="278.90000000000003" y="728.2" type="line"/>
      <point x="161.3" y="728.2" type="line"/>
      <point x="72.19999999999999" y="0.0" type="line"/>
      <point x="189.8" y="0.0" type="line"/>
      <point x="224.70000000000002" y="286.4" type="line"/>
      <point x="281.5" y="336.2" type="line"/>
      <point x="489.7" y="0.0" type="line"/>
      <point x="637.1" y="0.0" type="line"/>
      <point x="376.1" y="409.90000000000003" type="line"/>
      <point x="715.6" y="728.2" type="line"/>
      <point x="565.1" y="728.2" type="line"/>
      <point x="255.8" y="434.70000000000005" type="line"/>
      <point x="236.40000000000003" y="412.4" type="line"/>
    </contour>
  </outline>
</glyph>
<glyph name="L" format="2">
  <advance width="620.0"/>
  <unicode hex="004C"/>
  <anchor x="299.2" y="0.0" name="bottom"/>
  <anchor x="387.4" y="364.09999999999997" name="center"/>
  <anchor x="217.4" y="743.7" name="top"/>
  <anchor x="655.4000000000001" y="728.2" name="topright"/>
  <outline>
    <contour>
      <point x="161.3" y="728.2" type="line"/>
      <point x="72.19999999999999" y="0.0" type="line"/>
      <point x="547.3" y="0.0" type="line"/>
      <point x="561.0" y="112.10000000000002" type="line"/>
      <point x="201.8" y="112.10000000000002" type="line"/>
      <point x="277.20000000000005" y="728.2" type="line"/>
    </contour>
  </outline>
</glyph>
<glyph name="M" format="2">
  <advance width="936.3"/>
  <unicode hex="004D"/>
  <anchor x="453.2" y="0.0" name="bottom"/>
  <anchor x="503.4" y="700.0" name="top"/>
  <outline>
    <contour>
      <point x="183.90000000000003" y="0.0" type="line"/>
      <point x="243.5" y="486.3999999999999" type="line"/>
      <point x="217.1" y="431.49999999999994" type="line"/>
      <point x="439.6" y="58.599999999999966" type="line"/>
      <point x="441.6" y="58.599999999999966" type="line"/>
      <point x="750.8000000000001" y="431.49999999999994" type="line"/>
      <point x="750.5" y="491.2" type="line"/>
      <point x="690.2" y="0.0" type="line"/>
      <point x="806.1" y="0.0" type="line"/>
      <point x="898.9000000000001" y="754.0" type="line"/>
      <point x="897.2" y="754.0" type="line"/>
      <point x="439.7" y="209.6" type="line"/>
      <point x="488.59999999999997" y="198.89999999999998" type="line"/>
      <point x="165.3" y="754.0" type="line"/>
      <point x="164.3" y="754.0" type="line"/>
      <point x="71.5" y="0.0" type="line"/>
    </contour>
  </outline>
</glyph>
<glyph name="N" format="2">
  <advance width="844.3"/>
  <unicode hex="004E"/>
  <anchor x="405.0" y="0.0" name="bottom"/>
  <anchor x="472.4" y="700.0" name="top"/>
  <outline>
    <contour>
      <point x="711.0" y="-26.100000000000005" type="line"/>
      <point x="803.5" y="728.2" type="line"/>
      <point x="687.2" y="728.2" type="line"/>
      <point x="627.3" y="219.40000000000003" type="line"/>
      <point x="652.1999999999999" y="209.90000000000003" type="line"/>
      <point x="168.79999999999998" y="753.0" type="line"/>
      <point x="164.0" y="753.0" type="line"/>
      <point x="71.5" y="0.0" type="line"/>
      <point x="188.5" y="0.0" type="line"/>
      <point x="247.70000000000002" y="502.2" type="line"/>
      <point x="216.1" y="517.1999999999999" type="line"/>
      <point x="707.6" y="-26.100000000000005" type="line"/>
    </contour>
  </outline>
</glyph>
<glyph name="O" format="2">
  <advance width="855.9"/>
  <unicode hex="004F"/>
  <anchor x="451.9" y="0.0" name="bottom"/>
  <anchor x="461.2" y="350.0" name="center"/>
  <anchor x="582.7" y="7.900000000000002" name="ogonek"/>
  <anchor x="470.8" y="723.4" name="top"/>
  <anchor x="49.599999999999994" y="700.0" name="topleft"/>
  <anchor x="715.9" y="588.7" name="topright"/>
  <outline>
    <contour>
      <point x="423.4" y="-7.0" type="curve" smooth="yes"/>
      <point x="688.0" y="-7.0"/>
      <point x="819.1999999999999" y="213.0"/>
      <point x="819.1999999999999" y="389.40000000000003" type="curve" smooth="yes"/>
      <point x="819.1999999999999" y="623.4000000000001"/>
      <point x="642.9" y="735.2"/>
      <point x="469.8" y="735.2" type="curve" smooth="yes"/>
      <point x="205.2" y="735.2"/>
      <point x="74.0" y="515.2"/>
      <point x="74.0" y="338.5" type="curve" smooth="yes"/>
      <point x="74.0" y="104.8"/>
      <point x="250.3" y="-7.0"/>
    </contour>
    <contour>
      <point x="425.1" y="105.10000000000002" type="curve" smooth="yes"/>
      <point x="289.0" y="105.10000000000002"/>
      <point x="194.00000000000003" y="216.4"/>
      <point x="194.00000000000003" y="344.70000000000005" type="curve" smooth="yes"/>
      <point x="194.00000000000003" y="467.2"/>
      <point x="272.2" y="623.1"/>
      <point x="465.0" y="623.1" type="curve" smooth="yes"/>
      <point x="600.8000000000001" y="623.1"/>
      <point x="699.1999999999999" y="511.49999999999994"/>
      <point x="699.1999999999999" y="383.2" type="curve" smooth="yes"/>
      <point x="699.1999999999999" y="261.0"/>
      <point x="617.9" y="105.10000000000002"/>
    </contour>
  </outline>
</glyph>
<glyph name="P" format="2">
  <advance width="597.6"/>
  <unicode hex="0050"/>
  <outline>
    <contour>
      <point x="366.0" y="728.2" type="curve" smooth="yes"/>
      <point x="161.3" y="728.2" type="line"/>
      <point x="72.19999999999999" y="0.0" type="line"/>
      <point x="192.20000000000002" y="0.0" type="line"/>
      <point x="223.3" y="252.5" type="line"/>
      <point x="325.0" y="252.5" type="line" smooth="yes"/>
      <point x="528.2" y="252.5"/>
      <point x="604.2" y="400.7"/>
      <point x="604.2" y="522.9" type="curve" smooth="yes"/>
      <point x="604.2" y="652.5"/>
      <point x="512.0" y="728.2"/>
    </contour>
    <contour>
      <point x="334.8" y="365.3" type="curve" smooth="yes"/>
      <point x="237.00000000000003" y="365.3" type="line"/>
      <point x="267.6" y="615.8" type="line"/>
      <point x="366.40000000000003" y="615.8" type="line" smooth="yes"/>
      <point x="456.0" y="615.8"/>
      <point x="482.5" y="552.3"/>
      <point x="482.5" y="506.4" type="curve" smooth="yes"/>
      <point x="482.5" y="457.1"/>
      <point x="446.6" y="365.3"/>
    </contour>
  </outline>
</glyph>
<glyph name="Q" format="2">
  <advance width="943.1999999999999"/>
  <unicode hex="0051"/>
  <outline>
    <contour>
      <point x="646.5" y="84.9" type="line"/>
      <point x="490.90000000000003" y="0.0" type="line"/>
      <point x="878.1" y="0.0" type="line"/>
      <point x="891.8000000000001" y="113.80000000000003" type="line"/>
    </contour>
    <contour>
      <point x="465.3" y="-7.0" type="curve" smooth="yes"/>
      <point x="729.9000000000001" y="-7.0"/>
      <point x="861.1" y="213.0"/>
      <point x="861.1" y="389.40000000000003" type="curve" smooth="yes"/>
      <point x="861.1" y="623.4000000000001"/>
      <point x="684.8000000000001" y="735.2"/>
      <point x="511.70000000000005" y="735.2" type="curve" smooth="yes"/>
      <point x="247.1" y="735.2"/>
      <point x="115.9" y="515.2"/>
      <point x="115.9" y="338.5" type="curve" smooth="yes"/>
      <point x="115.9" y="104.8"/>
      <point x="292.2" y="-7.0"/>
    </contour>
    <contour>
      <point x="467.0" y="105.10000000000002" type="curve" smooth="yes"/>
      <point x="331.2" y="105.10000000000002"/>
      <point x="235.90000000000003" y="216.4"/>
      <point x="235.90000000000003" y="344.70000000000005" type="curve" smooth="yes"/>
      <point x="235.90000000000003" y="467.2"/>
      <point x="314.1" y="623.1"/>
      <point x="506.9" y="623.1" type="curve" smooth="yes"/>
      <point x="642.7" y="623.1"/>
      <point x="741.0999999999999" y="511.49999999999994"/>
      <point x="741.0999999999999" y="383.2" type="curve" smooth="yes"/>
      <point x="741.0999999999999" y="261.0"/>
      <point x="659.8" y="105.10000000000002"/>
    </contour>
  </outline>
</glyph>
<glyph name="R" format="2">
  <advance width="670.8"/>
  <unicode hex="0052"/>
  <anchor x="323.9" y="0.0" name="bottom"/>
  <anchor x="367.2" y="723.4" name="top"/>
  <outline>
    <contour>
      <point x="366.0" y="728.2" type="curve" smooth="yes"/>
      <point x="161.3" y="728.2" type="line"/>
      <point x="72.19999999999999" y="0.0" type="line"/>
      <point x="188.10000000000002" y="0.0" type="line"/>
      <point x="219.5" y="253.2" type="line"/>
      <point x="325.0" y="253.2" type="line" smooth="yes"/>
      <point x="512.6" y="253.2"/>
      <point x="591.6" y="377.79999999999995"/>
      <point x="606.0" y="494.29999999999995" type="curve" smooth="yes"/>
      <point x="623.7" y="642.3"/>
      <point x="527.0" y="728.2"/>
    </contour>
    <contour>
      <point x="337.4" y="365.3" type="curve" smooth="yes"/>
      <point x="233.20000000000002" y="365.3" type="line"/>
      <point x="263.5" y="616.1" type="line"/>
      <point x="372.3" y="616.1" type="line" smooth="yes"/>
      <point x="474.3" y="616.1"/>
      <point x="491.1" y="537.0999999999999"/>
      <point x="485.3" y="490.2" type="curve" smooth="yes"/>
      <point x="479.1" y="438.9"/>
      <point x="441.6" y="365.3"/>
    </contour>
    <contour>
      <point x="454.3" y="295.7" type="line"/>
      <point x="315.4" y="292.59999999999997" type="line"/>
      <point x="469.2" y="0.0" type="line"/>
      <point x="604.6" y="0.0" type="line"/>
    </contour>
  </outline>
</glyph>
<glyph name="S" format="2">
  <advance width="573.8000000000001"/>
  <unicode hex="0053"/>
  <anchor x="283.0" y="0.0" name="bottom"/>
  <anchor x="333.2" y="700.0" name="top"/>
  <outline>
    <contour>
      <point x="522.0" y="566.6" type="curve"/>
      <point x="577.5" y="652.3" type="line"/>
      <point x="523.4000000000001" y="691.0"/>
      <point x="458.40000000000003" y="723.6999999999999"/>
      <point x="354.2" y="729.2" type="curve" smooth="yes"/>
      <point x="224.0" y="730.6"/>
      <point x="125.0" y="658.6"/>
      <point x="113.3" y="537.2" type="curve" smooth="yes"/>
      <point x="99.19999999999999" y="409.79999999999995"/>
      <point x="205.29999999999998" y="359.5"/>
      <point x="290.0" y="320.09999999999997" type="curve" smooth="yes"/>
      <point x="351.9" y="291.7"/>
      <point x="406.2" y="254.89999999999998"/>
      <point x="402.09999999999997" y="198.3" type="curve" smooth="yes"/>
      <point x="395.9" y="129.8"/>
      <point x="332.5" y="94.10000000000002"/>
      <point x="260.7" y="96.50000000000001" type="curve" smooth="yes"/>
      <point x="199.7" y="99.60000000000002"/>
      <point x="127.70000000000002" y="132.3"/>
      <point x="83.2" y="173.3" type="curve"/>
      <point x="20.499999999999996" y="85.6" type="line"/>
      <point x="83.7" y="32.0"/>
      <point x="167.7" y="-2.1999999999999993"/>
      <point x="258.0" y="-6.3" type="curve" smooth="yes"/>
      <point x="422.29999999999995" y="-13.900000000000002"/>
      <point x="512.1" y="86.89999999999999"/>
      <point x="523.1" y="192.0" type="curve" smooth="yes"/>
      <point x="536.2" y="324.09999999999997"/>
      <point x="451.40000000000003" y="374.7"/>
      <point x="368.5" y="412.0" type="curve" smooth="yes"/>
      <point x="297.20000000000005" y="444.09999999999997"/>
      <point x="228.5" y="481.8"/>
      <point x="234.0" y="539.5" type="curve" smooth="yes"/>
      <point x="238.8" y="588.1"/>
      <point x="277.70000000000005" y="628.1"/>
      <point x="358.7" y="626.0" type="curve" smooth="yes"/>
      <point x="413.3" y="623.5999999999999"/>
      <point x="473.3" y="597.3"/>
    </contour>
  </outline>
</glyph>
<glyph name="T" format="2">
  <advance width="583.3000000000001"/>
  <unicode hex="0054"/>
  <anchor x="260.2" y="0.0" name="bottom"/>
  <anchor x="304.4" y="350.0" name="center"/>
  <anchor x="349.3" y="700.0" name="top"/>
  <outline>
    <contour>
      <point x="108.89999999999999" y="728.2" type="line"/>
      <point x="94.5" y="613.6999999999999" type="line"/>
      <point x="275.59999999999997" y="613.6999999999999" type="line"/>
      <point x="200.2" y="0.0" type="line"/>
      <point x="320.2" y="0.0" type="line"/>
      <point x="395.6" y="613.6999999999999" type="line"/>
      <point x="581.1999999999999" y="613.6999999999999" type="line"/>
      <point x="595.6" y="728.2" type="line"/>
    </contour>
  </outline>
</glyph>
<glyph name="U" format="2">
  <advance width="766.0"/>
  <unicode hex="0055"/>
  <anchor x="354.0" y="0.0" name="bottom"/>
  <anchor x="503.1" y="10.0" name="ogonek"/>
  <anchor x="445.5" y="723.4" name="top"/>
  <anchor x="707.2" y="622.2" name="topright"/>
  <outline>
    <contour>
      <point x="224.3" y="262.4" type="curve" smooth="yes"/>
      <point x="281.3" y="728.2" type="line"/>
      <point x="161.3" y="728.2" type="line"/>
      <point x="104.0" y="259.40000000000003" type="line" smooth="yes"/>
      <point x="84.3" y="99.5"/>
      <point x="195.4" y="-8.0"/>
      <point x="352.3" y="-8.0" type="curve" smooth="yes"/>
      <point x="352.3" y="-8.0" type="line" smooth="yes"/>
      <point x="514.1" y="-8.0"/>
      <point x="647.9000000000001" y="99.5"/>
      <point x="667.9" y="259.40000000000003" type="curve" smooth="yes"/>
      <point x="724.9000000000001" y="728.2" type="line"/>
      <point x="604.9" y="728.2" type="line"/>
      <point x="547.9" y="262.4" type="line" smooth="yes"/>
      <point x="537.1" y="176.20000000000002"/>
      <point x="459.70000000000005" y="104.80000000000003"/>
      <point x="366.0" y="104.80000000000003" type="curve" smooth="yes"/>
      <point x="274.70000000000005" y="104.80000000000003"/>
      <point x="213.20000000000002" y="176.20000000000002"/>
    </contour>
  </outline>
</glyph>
<glyph name="V" format="2">
  <advance width="729.0"/>
  <unicode hex="0056"/>
  <anchor x="339.1" y="0.0" name="bottom"/>
  <anchor x="358.0" y="700.0" name="top"/>
  <outline>
    <contour>
      <point x="333.70000000000005" y="-28.299999999999997" type="line"/>
      <point x="337.8" y="-28.299999999999997" type="line"/>
      <point x="754.0" y="728.2" type="line"/>
      <point x="616.8" y="728.2" type="line"/>
      <point x="335.09999999999997" y="173.50000000000003" type="line"/>
      <point x="400.6" y="160.40000000000003" type="line"/>
      <point x="241.3" y="728.2" type="line"/>
      <point x="102.4" y="728.2" type="line"/>
    </contour>
  </outline>
</glyph>
<glyph name="W" format="2">
  <advance width="1017.2"/>
  <unicode hex="0057"/>
  <anchor x="503.6" y="0.0" name="bottom"/>
  <anchor x="593.6999999999999" y="728.2" name="top"/>
  <outline>
    <contour>
      <point x="101.7" y="724.1" type="line"/>
      <point x="300.1" y="-33.699999999999996" type="line"/>
      <point x="555.1999999999999" y="416.5" type="line"/>
      <point x="520.3000000000001" y="574.7" type="line"/>
      <point x="335.90000000000003" y="216.90000000000003" type="line"/>
      <point x="354.3" y="209.00000000000006" type="line"/>
      <point x="237.5" y="724.1" type="line"/>
    </contour>
    <contour>
      <point x="458.4" y="724.1" type="line"/>
      <point x="664.4000000000001" y="-32.0" type="line"/>
      <point x="1041.5" y="724.1" type="line"/>
      <point x="916.7" y="724.1" type="line"/>
      <point x="689.9000000000001" y="223.50000000000006" type="line"/>
      <point x="711.6" y="219.50000000000006" type="line"/>
      <point x="573.9000000000001" y="724.1" type="line"/>
    </contour>
  </outline>
</glyph>
<glyph name="X" format="2">
  <advance width="659.1"/>
  <unicode hex="0058"/>
  <outline>
    <contour>
      <point x="89.6" y="728.2" type="line"/>
      <point x="473.4" y="0.0" type="line"/>
      <point x="622.9" y="0.0" type="line"/>
      <point x="237.10000000000002" y="728.2" type="line"/>
    </contour>
    <contour>
      <point x="-9.500000000000007" y="0.0" type="line"/>
      <point x="134.5" y="0.0" type="line"/>
      <point x="336.7" y="285.79999999999995" type="line"/>
      <point x="294.1" y="400.90000000000003" type="line"/>
    </contour>
    <contour>
      <point x="361.40000000000003" y="443.5" type="line"/>
      <point x="410.6" y="344.29999999999995" type="line"/>
      <point x="702.9000000000001" y="728.2" type="line"/>
      <point x="561.7" y="728.2" type="line"/>
    </contour>
  </outline>
</glyph>
<glyph name="Y" format="2">
  <advance width="703.7"/>
  <unicode hex="0059"/>
  <anchor x="314.9" y="0.0" name="bottom"/>
  <anchor x="404.70000000000005" y="728.2" name="top"/>
  <anchor x="103.0" y="728.2" name="topleft"/>
  <outline>
    <contour>
      <point x="295.2" y="236.2" type="line"/>
      <point x="266.29999999999995" y="0.0" type="line"/>
      <point x="382.8" y="0.0" type="line"/>
      <point x="411.7" y="236.2" type="line"/>
      <point x="744.9" y="728.2" type="line"/>
      <point x="601.3000000000001" y="728.2" type="line"/>
      <point x="350.8" y="333.6" type="line"/>
      <point x="386.0" y="336.0" type="line"/>
      <point x="229.20000000000002" y="728.2" type="line"/>
      <point x="86.5" y="728.2" type="line"/>
    </contour>
  </outline>
</glyph>
<glyph name="Z" format="2">
  <advance width="665.5"/>
  <unicode hex="005A"/>
  <anchor x="309.2" y="0.0" name="bottom"/>
  <anchor x="423.9" y="728.2" name="top"/>
  <outline>
    <contour>
      <point x="1.8999999999999986" y="0.0" type="line"/>
      <point x="616.8" y="0.0" type="line"/>
      <point x="630.5" y="112.10000000000002" type="line"/>
      <point x="199.80000000000004" y="112.10000000000002" type="line"/>
      <point x="210.40000000000003" y="98.50000000000001" type="line"/>
      <point x="699.4000000000001" y="728.2" type="line"/>
      <point x="275.70000000000005" y="728.2" type="line"/>
      <point x="252.3" y="728.2"/>
      <point x="246.00000000000003" y="735.1"/>
      <point x="247.00000000000003" y="751.2" type="curve" smooth="yes"/>
      <point x="248.3" y="764.6" type="line"/>
      <point x="141.1" y="764.6" type="line"/>
      <point x="130.8" y="681.8000000000001" type="line" smooth="yes"/>
      <point x="125.8" y="641.7"/>
      <point x="169.6" y="616.1"/>
      <point x="211.10000000000002" y="616.1" type="curve" smooth="yes"/>
      <point x="516.5999999999999" y="616.1" type="line"/>
      <point x="501.99999999999994" y="648.0" type="line"/>
    </contour>
  </outline>
</glyph>
<glyph name="bracketleft" format="2">
  <advance width="350.6"/>
  <unicode hex="005B"/>
  <outline>
    <contour>
      <point x="165.2" y="757.7" type="line"/>
      <point x="53.49999999999999" y="-151.4" type="line"/>
      <point x="255.7" y="-151.4" type="line"/>
      <point x="267.7" y="-53.79999999999998" type="line"/>
      <point x="165.8" y="-53.79999999999998" type="line"/>
      <point x="253.20000000000002" y="659.4" type="line"/>
      <point x="355.1" y="659.4" type="line"/>
      <point x="367.1" y="757.7" type="line"/>
    </contour>
  </outline>
</glyph>
<glyph name="backslash" format="2">
  <advance width="405.7"/>
  <unicode hex="005C"/>
  <outline>
    <contour>
      <point x="201.20000000000002" y="747.7" type="curve"/>
      <point x="87.4" y="747.7" type="line"/>
      <point x="150.4" y="491.9"/>
      <point x="212.8" y="236.8"/>
      <point x="275.5" y="-19.0" type="curve"/>
      <point x="389.30000000000007" y="-19.0" type="line"/>
      <point x="326.6" y="236.8"/>
      <point x="264.20000000000005" y="491.9"/>
    </contour>
  </outline>
</glyph>
<glyph name="bracketright" format="2">
  <advance width="365.40000000000003"/>
  <unicode hex="005D"/>
  <outline>
    <contour>
      <point x="126.99999999999999" y="757.7" type="line"/>
      <point x="114.99999999999999" y="659.4" type="line"/>
      <point x="216.59999999999997" y="659.4" type="line"/>
      <point x="129.5" y="-53.79999999999998" type="line"/>
      <point x="27.599999999999987" y="-53.79999999999998" type="line"/>
      <point x="15.29999999999999" y="-151.4" type="line"/>
      <point x="217.5" y="-151.4" type="line"/>
      <point x="328.90000000000003" y="757.7" type="line"/>
    </contour>
  </outline>
</glyph>
<glyph name="asciicircum" format="2">
  <advance width="476.90000000000003"/>
  <unicode hex="005E"/>
  <outline>
    <contour>
      <point x="347.5" y="486.9" type="curve"/>
      <point x="417.2" y="486.9" type="line"/>
      <point x="383.5" y="547.6"/>
      <point x="350.8" y="609.3"/>
      <point x="317.8" y="670.0" type="curve"/>
      <point x="317.8" y="670.0" type="line"/>
      <point x="269.8" y="609.3"/>
      <point x="221.1" y="547.6"/>
      <point x="173.4" y="486.9" type="curve"/>
      <point x="243.10000000000002" y="486.9" type="line"/>
      <point x="252.10000000000002" y="498.0"/>
      <point x="294.8" y="544.5"/>
      <point x="303.8" y="555.9" type="curve"/>
      <point x="310.09999999999997" y="544.5"/>
      <point x="341.2" y="498.0"/>
    </contour>
  </outline>
</glyph>
<glyph name="underscore" format="2">
  <advance width="609.3000000000001"/>
  <unicode hex="005F"/>
  <outline>
    <contour>
      <point x="113.7" y="97.30000000000001" type="line"/>
      <point x="101.7" y="0.0" type="line"/>
      <point x="507.9" y="0.0" type="line"/>
      <point x="519.9" y="97.30000000000001" type="line"/>
    </contour>
  </outline>
</glyph>
<glyph name="grave" format="2">
  <advance width="203.8"/>
  <unicode hex="0060"/>
  <outline>
    <contour>
      <point x="161.3" y="621.3" type="line"/>
      <point x="36.89999999999999" y="621.3" type="line"/>
      <point x="156.0" y="486.9" type="line"/>
      <point x="225.70000000000002" y="486.9" type="line"/>
    </contour>
  </outline>
</glyph>
<glyph name="a" format="2">
  <advance width="600.9"/>
  <unicode hex="0061"/>
  <anchor x="279.3" y="-15.500000000000005" name="bottom"/>
  <anchor x="506.4" y="7.900000000000002" name="ogonek"/>
  <anchor x="336.3" y="449.00000000000006" name="top"/>
  <outline>
    <contour>
      <point x="220.8" y="-8.8" type="curve" smooth="yes"/>
      <point x="331.0" y="-10.5"/>
      <point x="393.3" y="59.6"/>
      <point x="405.2" y="74.29999999999998" type="curve"/>
      <point x="397.5" y="100.7" type="line"/>
      <point x="385.6" y="0.0" type="line"/>
      <point x="497.70000000000005" y="0.0" type="line"/>
      <point x="548.9" y="423.20000000000005" type="line"/>
      <point x="445.6" y="423.20000000000005" type="line"/>
      <point x="423.90000000000003" y="339.90000000000003" type="line"/>
      <point x="432.9" y="358.8" type="line"/>
      <point x="409.2" y="403.4"/>
      <point x="366.8" y="442.2"/>
      <point x="278.6" y="442.2" type="curve" smooth="yes"/>
      <point x="132.5" y="442.2"/>
      <point x="41.599999999999994" y="315.6"/>
      <point x="41.599999999999994" y="197.0" type="curve" smooth="yes"/>
      <point x="41.599999999999994" y="68.1"/>
      <point x="130.3" y="-10.5"/>
    </contour>
    <contour>
      <point x="283.0" y="81.30000000000001" type="curve" smooth="yes"/>
      <point x="208.8" y="81.30000000000001"/>
      <point x="157.8" y="133.20000000000002"/>
      <point x="157.8" y="210.4" type="curve" smooth="yes"/>
      <point x="157.8" y="266.7"/>
      <point x="196.5" y="350.4"/>
      <point x="298.6" y="350.4" type="curve" smooth="yes"/>
      <point x="360.90000000000003" y="350.4"/>
      <point x="408.0" y="313.5"/>
      <point x="416.79999999999995" y="260.3" type="curve"/>
      <point x="405.9" y="168.3" type="line"/>
      <point x="382.2" y="113.2"/>
      <point x="335.0" y="81.30000000000001"/>
    </contour>
  </outline>
</glyph>
<glyph name="b" format="2">
  <advance width="607.4"/>
  <unicode hex="0062"/>
  <anchor x="295.90000000000003" y="0.0" name="bottom"/>
  <anchor x="353.6" y="472.40000000000003" name="top"/>
  <outline>
    <contour>
      <point x="319.90000000000003" y="-10.5" type="curve" smooth="yes"/>
      <point x="471.90000000000003" y="-10.5"/>
      <point x="566.2" y="105.8"/>
      <point x="566.2" y="229.9" type="curve" smooth="yes"/>
      <point x="566.2" y="371.70000000000005"/>
      <point x="474.90000000000003" y="441.9"/>
      <point x="367.40000000000003" y="441.9" type="curve" smooth="yes"/>
      <point x="298.8" y="441.9"/>
      <point x="241.3" y="414.1"/>
      <point x="206.70000000000002" y="377.0" type="curve"/>
      <point x="204.40000000000003" y="338.6" type="line"/>
      <point x="258.20000000000005" y="780.3000000000001" type="line"/>
      <point x="146.8" y="780.3000000000001" type="line"/>
      <point x="51.0" y="0.0" type="line"/>
      <point x="163.10000000000002" y="0.0" type="line"/>
      <point x="175.60000000000002" y="100.29999999999998" type="line"/>
      <point x="161.20000000000002" y="72.39999999999998" type="line"/>
      <point x="191.10000000000002" y="23.99999999999999"/>
      <point x="241.70000000000002" y="-10.5"/>
    </contour>
    <contour>
      <point x="307.4" y="84.40000000000002" type="curve" smooth="yes"/>
      <point x="232.60000000000002" y="84.40000000000002"/>
      <point x="199.90000000000003" y="133.4"/>
      <point x="184.8" y="177.1" type="curve"/>
      <point x="196.60000000000002" y="267.9" type="line"/>
      <point x="218.90000000000003" y="319.3"/>
      <point x="266.7" y="353.5"/>
      <point x="327.2" y="353.5" type="curve" smooth="yes"/>
      <point x="403.1" y="353.5"/>
      <point x="451.4" y="304.0"/>
      <point x="451.4" y="222.7" type="curve" smooth="yes"/>
      <point x="451.4" y="164.8"/>
      <point x="410.8" y="84.40000000000002"/>
    </contour>
  </outline>
</glyph>
<glyph name="c" format="2">
  <advance width="470.3"/>
  <unicode hex="0063"/>
  <anchor x="200.1" y="0.0" name="bottom"/>
  <anchor x="266.40000000000003" y="433.5" name="top"/>
  <outline>
    <contour>
      <point x="407.0" y="28.0" type="curve"/>
      <point x="359.1" y="102.00000000000001" type="line"/>
      <point x="337.40000000000003" y="87.50000000000001"/>
      <point x="311.70000000000005" y="79.30000000000001"/>
      <point x="282.0" y="79.30000000000001" type="curve" smooth="yes"/>
      <point x="204.0" y="79.30000000000001"/>
      <point x="154.0" y="132.60000000000002"/>
      <point x="154.0" y="199.8" type="curve" smooth="yes"/>
      <point x="154.0" y="281.0"/>
      <point x="215.8" y="339.8"/>
      <point x="284.40000000000003" y="339.8" type="curve" smooth="yes"/>
      <point x="332.1" y="339.8"/>
      <point x="367.5" y="318.4"/>
      <point x="387.90000000000003" y="298.7" type="curve"/>
      <point x="451.9" y="367.5" type="line"/>
      <point x="414.40000000000003" y="405.0"/>
      <point x="358.1" y="432.3"/>
      <point x="277.2" y="432.3" type="curve" smooth="yes"/>
      <point x="122.8" y="432.3"/>
      <point x="40.9" y="306.6"/>
      <point x="40.9" y="192.2" type="curve" smooth="yes"/>
      <point x="40.9" y="34.39999999999999"/>
      <point x="181.9" y="-11.8"/>
      <point x="262.4" y="-11.8" type="curve" smooth="yes"/>
      <point x="313.0" y="-11.8"/>
      <point x="368.2" y="2.899999999999999"/>
    </contour>
  </outline>
</glyph>
<glyph name="d" format="2">
  <advance width="607.4000000000001"/>
  <unicode hex="0064"/>
  <anchor x="304.8" y="0.0" name="bottom"/>
  <anchor x="363.0" y="324.09999999999997" name="center"/>
  <anchor x="315.0" y="472.40000000000003" name="top"/>
  <anchor x="640.6" y="550.0999999999999" name="topright"/>
  <outline>
    <contour>
      <point x="247.0" y="-9.900000000000002" type="curve" smooth="yes"/>
      <point x="311.7" y="-11.4"/>
      <point x="364.1" y="21.499999999999996"/>
      <point x="410.7" y="66.69999999999999" type="curve"/>
      <point x="403.4" y="93.39999999999999" type="line"/>
      <point x="391.5" y="0.0" type="line"/>
      <point x="503.6" y="0.0" type="line"/>
      <point x="600.0" y="780.3000000000001" type="line"/>
      <point x="488.29999999999995" y="780.3000000000001" type="line"/>
      <point x="433.9" y="334.1" type="line"/>
      <point x="455.2" y="361.0" type="line"/>
      <point x="427.0" y="405.40000000000003"/>
      <point x="367.59999999999997" y="441.0"/>
      <point x="294.0" y="442.2" type="curve" smooth="yes"/>
      <point x="136.7" y="443.7"/>
      <point x="44.89999999999999" y="321.1"/>
      <point x="41.9" y="200.3" type="curve" smooth="yes"/>
      <point x="38.900000000000006" y="87.1"/>
      <point x="125.6" y="-8.700000000000003"/>
    </contour>
    <contour>
      <point x="281.4" y="84.70000000000002" type="curve" smooth="yes"/>
      <point x="205.10000000000002" y="86.20000000000002"/>
      <point x="154.70000000000002" y="139.9"/>
      <point x="157.10000000000002" y="216.5" type="curve" smooth="yes"/>
      <point x="160.10000000000002" y="301.8"/>
      <point x="220.9" y="355.29999999999995"/>
      <point x="304.7" y="353.5" type="curve" smooth="yes"/>
      <point x="368.2" y="352.59999999999997"/>
      <point x="414.9" y="315.09999999999997"/>
      <point x="424.40000000000003" y="262.5" type="curve"/>
      <point x="413.5" y="172.3" type="line"/>
      <point x="387.4" y="116.30000000000001"/>
      <point x="337.0" y="83.20000000000002"/>
    </contour>
  </outline>
</glyph>
<glyph name="e" format="2">
  <advance width="534.9"/>
  <unicode hex="0065"/>
  <anchor x="251.0" y="-15.500000000000005" name="bottom"/>
  <anchor x="386.0" y="28.200000000000003" name="ogonek"/>
  <anchor x="290.8" y="456.90000000000003" name="top"/>
  <outline>
    <contour>
      <point x="280.7" y="84.80000000000003" type="curve" smooth="yes"/>
      <point x="220.10000000000002" y="84.80000000000003"/>
      <point x="154.40000000000003" y="122.00000000000001"/>
      <point x="154.40000000000003" y="219.0" type="curve" smooth="yes"/>
      <point x="154.40000000000003" y="287.8"/>
      <point x="199.0" y="352.5"/>
      <point x="285.5" y="352.5" type="curve" smooth="yes"/>
      <point x="334.6" y="352.5"/>
      <point x="372.5" y="320.9"/>
      <point x="385.6" y="271.7" type="curve"/>
      <point x="425.3" y="286.40000000000003" type="line"/>
      <point x="134.20000000000002" y="206.10000000000002" type="line"/>
      <point x="152.0" y="140.7" type="line"/>
      <point x="505.5" y="234.9" type="line"/>
      <point x="482.1" y="396.6"/>
      <point x="388.9" y="440.5"/>
      <point x="289.3" y="440.5" type="curve" smooth="yes"/>
      <point x="119.39999999999999" y="440.5"/>
      <point x="42.3" y="311.70000000000005"/>
      <point x="42.3" y="206.3" type="curve" smooth="yes"/>
      <point x="42.3" y="65.0"/>
      <point x="133.1" y="-9.8"/>
      <point x="269.0" y="-9.8" type="curve" smooth="yes"/>
      <point x="314.3" y="-9.8"/>
      <point x="364.1" y="3.799999999999999"/>
      <point x="406.3" y="26.3" type="curve"/>
      <point x="366.0" y="112.70000000000002" type="line"/>
      <point x="338.8" y="96.00000000000001"/>
      <point x="310.6" y="84.80000000000003"/>
    </contour>
  </outline>
</glyph>
<glyph name="f" format="2">
  <advance width="402.4"/>
  <unicode hex="0066"/>
  <anchor x="174.00000000000003" y="0.0" name="bottom"/>
  <anchor x="220.5" y="558.4999999999999" name="top"/>
  <outline>
    <contour>
      <point x="86.1" y="0.0" type="line"/>
      <point x="198.20000000000002" y="0.0" type="line"/>
      <point x="237.40000000000003" y="324.6" type="line"/>
      <point x="369.1" y="324.6" type="line"/>
      <point x="381.80000000000007" y="424.3" type="line"/>
      <point x="250.10000000000002" y="424.3" type="line"/>
      <point x="270.20000000000005" y="587.3" type="line" smooth="yes"/>
      <point x="278.70000000000005" y="658.5"/>
      <point x="310.3" y="687.2"/>
      <point x="355.70000000000005" y="687.2" type="curve" smooth="yes"/>
      <point x="371.1" y="687.2"/>
      <point x="387.00000000000006" y="682.8000000000001"/>
      <point x="397.8" y="668.8" type="curve"/>
      <point x="455.70000000000005" y="749.7" type="line"/>
      <point x="427.9" y="770.2"/>
      <point x="386.30000000000007" y="779.4"/>
      <point x="355.0" y="779.4" type="curve" smooth="yes"/>
      <point x="242.0" y="779.4"/>
      <point x="172.1" y="707.1"/>
      <point x="157.79999999999998" y="589.8" type="curve" smooth="yes"/>
      <point x="138.0" y="424.3" type="line"/>
      <point x="66.1" y="424.3" type="line"/>
      <point x="53.39999999999999" y="324.6" type="line"/>
      <point x="125.3" y="324.6" type="line"/>
    </contour>
  </outline>
</glyph>
<glyph name="g" format="2">
  <advance width="614.7"/>
  <unicode hex="0067"/>
  <anchor x="273.5" y="-39.29999999999997" name="bottom"/>
  <anchor x="329.20000000000005" y="472.40000000000003" name="top"/>
  <outline>
    <contour>
      <point x="258.0" y="-211.0" type="curve" smooth="yes"/>
      <point x="391.6" y="-211.0"/>
      <point x="494.70000000000005" y="-139.9"/>
      <point x="507.80000000000007" y="-22.1" type="curve" smooth="yes"/>
      <point x="563.7" y="423.20000000000005" type="line"/>
      <point x="461.09999999999997" y="423.20000000000005" type="line"/>
      <point x="437.1" y="348.6" type="line"/>
      <point x="448.1" y="368.40000000000003" type="line"/>
      <point x="425.0" y="410.90000000000003"/>
      <point x="366.20000000000005" y="441.9"/>
      <point x="285.90000000000003" y="441.9" type="curve" smooth="yes"/>
      <point x="117.7" y="441.9"/>
      <point x="42.3" y="300.0"/>
      <point x="42.3" y="208.3" type="curve" smooth="yes"/>
      <point x="42.3" y="70.5"/>
      <point x="131.7" y="-10.5"/>
      <point x="249.4" y="-10.5" type="curve" smooth="yes"/>
      <point x="331.4" y="-10.5"/>
      <point x="391.40000000000003" y="30.4"/>
      <point x="417.5" y="82.6" type="curve"/>
      <point x="411.7" y="102.8" type="line"/>
      <point x="399.2" y="-2.4999999999999964" type="line"/>
      <point x="391.0" y="-71.5"/>
      <point x="340.0" y="-112.99999999999999"/>
      <point x="268.0" y="-112.99999999999999" type="curve" smooth="yes"/>
      <point x="198.2" y="-112.99999999999999"/>
      <point x="155.0" y="-87.29999999999998"/>
      <point x="116.60000000000001" y="-47.89999999999999" type="curve"/>
      <point x="41.2" y="-124.4" type="line"/>
      <point x="90.19999999999999" y="-170.9"/>
      <point x="146.1" y="-211.0"/>
    </contour>
    <contour>
      <point x="305.8" y="350.4" type="curve" smooth="yes"/>
      <point x="371.20000000000005" y="350.4"/>
      <point x="419.40000000000003" y="313.5"/>
      <point x="431.3" y="260.0" type="curve"/>
      <point x="420.1" y="167.7" type="line"/>
      <point x="394.29999999999995" y="114.4"/>
      <point x="343.0" y="81.30000000000001"/>
      <point x="287.6" y="81.30000000000001" type="curve" smooth="yes"/>
      <point x="207.5" y="81.30000000000001"/>
      <point x="156.8" y="130.10000000000002"/>
      <point x="156.8" y="208.3" type="curve" smooth="yes"/>
      <point x="156.8" y="263.40000000000003"/>
      <point x="196.0" y="350.4"/>
    </contour>
  </outline>
</glyph>
<glyph name="h" format="2">
  <advance width="570.1"/>
  <unicode hex="0068"/>
  <anchor x="271.0" y="0.0" name="bottom"/>
  <anchor x="178.2" y="614.0" name="center"/>
  <anchor x="192.2" y="715.6" name="top"/>
  <outline>
    <contour>
      <point x="200.3" y="347.70000000000005" type="curve"/>
      <point x="201.60000000000002" y="325.4" type="line"/>
      <point x="256.8" y="780.3000000000001" type="line"/>
      <point x="146.8" y="780.3000000000001" type="line"/>
      <point x="51.7" y="0.0" type="line"/>
      <point x="163.8" y="0.0" type="line"/>
      <point x="187.0" y="187.29999999999998" type="line" smooth="yes"/>
      <point x="198.0" y="278.8"/>
      <point x="255.10000000000002" y="345.3"/>
      <point x="325.8" y="345.3" type="curve"/>
      <point x="373.5" y="344.7"/>
      <point x="391.1" y="316.4"/>
      <point x="387.8" y="275.29999999999995" type="curve"/>
      <point x="354.8" y="0.0" type="line"/>
      <point x="466.9" y="0.0" type="line"/>
      <point x="505.40000000000003" y="314.40000000000003" type="line"/>
      <point x="512.1" y="389.0"/>
      <point x="461.0" y="441.2"/>
      <point x="381.4" y="441.2" type="curve" smooth="yes"/>
      <point x="301.3" y="441.2"/>
      <point x="236.40000000000003" y="403.0"/>
    </contour>
  </outline>
</glyph>
<glyph name="k" format="2">
  <advance width="518.2"/>
  <unicode hex="006B"/>
  <anchor x="237.3" y="0.0" name="bottom"/>
  <anchor x="289.8" y="423.20000000000005" name="top"/>
  <outline>
    <contour>
      <point x="51.7" y="0.0" type="line"/>
      <point x="163.8" y="0.0" type="line"/>
      <point x="259.20000000000005" y="780.3000000000001" type="line"/>
      <point x="146.8" y="780.3000000000001" type="line"/>
    </contour>
    <contour>
      <point x="303.0" y="284.1" type="line"/>
      <point x="220.8" y="220.3" type="line"/>
      <point x="331.1" y="0.0" type="line"/>
      <point x="461.70000000000005" y="0.0" type="line"/>
    </contour>
    <contour>
      <point x="145.20000000000002" y="127.3" type="line"/>
      <point x="488.6" y="373.3" type="line"/>
      <point x="426.50000000000006" y="433.3" type="line"/>
      <point x="145.4" y="234.50000000000003" type="line"/>
    </contour>
  </outline>
</glyph>
<glyph name="l" format="2">
  <advance width="267.3"/>
  <unicode hex="006C"/>
  <anchor x="111.00000000000001" y="0.0" name="bottom"/>
  <anchor x="137.10000000000002" y="282.3" name="center"/>
  <anchor x="194.3" y="770.3000000000001" name="top"/>
  <anchor x="328.1" y="739.0" name="topright"/>
  <outline>
    <contour>
      <point x="146.8" y="780.3000000000001" type="line"/>
      <point x="51.7" y="0.0" type="line"/>
      <point x="163.8" y="0.0" type="line"/>
      <point x="259.20000000000005" y="780.3000000000001" type="line"/>
    </contour>
  </outline>
</glyph>
<glyph name="m" format="2">
  <advance width="841.2"/>
  <unicode hex="006D"/>
  <anchor x="441.3" y="0.0" name="bottom"/>
  <anchor x="451.20000000000005" y="472.40000000000003" name="top"/>
  <outline>
    <contour>
      <point x="204.40000000000003" y="423.20000000000005" type="line"/>
      <point x="103.19999999999999" y="423.20000000000005" type="line"/>
      <point x="51.7" y="0.0" type="line"/>
      <point x="163.8" y="0.0" type="line"/>
      <point x="187.0" y="189.7" type="line" smooth="yes"/>
      <point x="196.60000000000002" y="267.79999999999995"/>
      <point x="250.60000000000002" y="344.6"/>
      <point x="321.70000000000005" y="344.6" type="curve"/>
      <point x="364.9" y="341.6"/>
      <point x="375.59999999999997" y="312.59999999999997"/>
      <point x="372.29999999999995" y="271.5" type="curve"/>
      <point x="339.0" y="0.0" type="line"/>
      <point x="451.40000000000003" y="0.0" type="line"/>
      <point x="474.6" y="189.5" type="line"/>
      <point x="484.8" y="268.4"/>
      <point x="538.2" y="344.6"/>
      <point x="611.4" y="344.6" type="curve"/>
      <point x="653.9" y="341.6"/>
      <point x="662.9" y="312.59999999999997"/>
      <point x="659.5999999999999" y="271.5" type="curve"/>
      <point x="626.3" y="0.0" type="line"/>
      <point x="738.0" y="0.0" type="line"/>
      <point x="776.2" y="315.1" type="line" smooth="yes"/>
      <point x="783.9" y="389.7"/>
      <point x="738.0" y="441.9"/>
      <point x="654.9000000000001" y="441.9" type="curve" smooth="yes"/>
      <point x="593.0" y="441.9"/>
      <point x="532.2" y="404.20000000000005"/>
      <point x="490.40000000000003" y="352.1" type="curve"/>
      <point x="493.00000000000006" y="354.0" type="line"/>
      <point x="486.6" y="413.50000000000006"/>
      <point x="443.40000000000003" y="441.9"/>
      <point x="374.5" y="441.9" type="curve" smooth="yes"/>
      <point x="300.6" y="441.9"/>
      <point x="240.90000000000003" y="406.40000000000003"/>
      <point x="200.8" y="347.1" type="curve"/>
      <point x="203.40000000000003" y="332.2" type="line"/>
    </contour>
  </outline>
</glyph>
<glyph name="n" format="2">
  <advance width="570.1"/>
  <unicode hex="006E"/>
  <anchor x="259.3" y="0.0" name="bottom"/>
  <anchor x="317.7" y="472.40000000000003" name="top"/>
  <outline>
    <contour>
      <point x="204.40000000000003" y="423.20000000000005" type="line"/>
      <point x="103.19999999999999" y="423.20000000000005" type="line"/>
      <point x="51.7" y="0.0" type="line"/>
      <point x="163.8" y="0.0" type="line"/>
      <point x="187.0" y="187.29999999999998" type="line" smooth="yes"/>
      <point x="197.70000000000002" y="278.8"/>
      <point x="253.3" y="345.3"/>
      <point x="323.4" y="345.3" type="curve" smooth="yes"/>
      <point x="372.6" y="345.3"/>
      <point x="391.7" y="317.0"/>
      <point x="388.5" y="274.40000000000003" type="curve" smooth="yes"/>
      <point x="354.8" y="0.0" type="line"/>
      <point x="466.9" y="0.0" type="line"/>
      <point x="505.40000000000003" y="314.40000000000003" type="line" smooth="yes"/>
      <point x="512.7" y="389.3"/>
      <point x="461.0" y="441.2"/>
      <point x="380.20000000000005" y="441.2" type="curve" smooth="yes"/>
      <point x="299.5" y="441.2"/>
      <point x="234.90000000000003" y="403.0"/>
      <point x="198.8" y="346.5" type="curve"/>
      <point x="205.00000000000003" y="332.3" type="line"/>
    </contour>
  </outline>
</glyph>
<glyph name="o" format="2">
  <advance width="556.8000000000001"/>
  <unicode hex="006F"/>
  <anchor x="264.2" y="0.0" name="bottom"/>
  <anchor x="269.3" y="236.20000000000002" name="center"/>
  <anchor x="378.1" y="6.700000000000003" name="ogonek"/>
  <anchor x="289.9" y="433.5" name="top"/>
  <anchor x="416.4" y="349.6" name="topright"/>
  <outline>
    <contour>
      <point x="269.7" y="-10.8" type="curve" smooth="yes"/>
      <point x="462.0" y="-10.8"/>
      <point x="515.6" y="144.3"/>
      <point x="515.6" y="232.3" type="curve" smooth="yes"/>
      <point x="515.6" y="364.90000000000003"/>
      <point x="403.5" y="440.5"/>
      <point x="288.9" y="440.5" type="curve" smooth="yes"/>
      <point x="107.6" y="440.5"/>
      <point x="41.599999999999994" y="302.6"/>
      <point x="41.599999999999994" y="197.70000000000002" type="curve" smooth="yes"/>
      <point x="41.599999999999994" y="55.5"/>
      <point x="166.10000000000002" y="-10.8"/>
    </contour>
    <contour>
      <point x="273.1" y="81.70000000000002" type="curve" smooth="yes"/>
      <point x="222.3" y="81.70000000000002"/>
      <point x="154.70000000000002" y="112.9"/>
      <point x="154.70000000000002" y="203.20000000000002" type="curve" smooth="yes"/>
      <point x="154.70000000000002" y="266.2"/>
      <point x="192.3" y="348.7"/>
      <point x="284.8" y="348.7" type="curve" smooth="yes"/>
      <point x="330.1" y="348.7"/>
      <point x="401.79999999999995" y="320.90000000000003"/>
      <point x="401.79999999999995" y="227.20000000000002" type="curve" smooth="yes"/>
      <point x="401.79999999999995" y="165.9"/>
      <point x="368.0" y="81.70000000000002"/>
    </contour>
  </outline>
</glyph>
<glyph name="p" format="2">
  <advance width="595.8"/>
  <unicode hex="0070"/>
  <anchor x="258.4" y="0.0" name="bottom"/>
  <anchor x="310.59999999999997" y="423.20000000000005" name="top"/>
  <outline>
    <contour>
      <point x="293.9" y="-10.8" type="curve" smooth="yes"/>
      <point x="453.6" y="-10.8"/>
      <point x="556.6" y="110.60000000000001"/>
      <point x="556.6" y="250.2" type="curve" smooth="yes"/>
      <point x="556.6" y="365.8"/>
      <point x="469.1" y="442.2"/>
      <point x="361.2" y="442.2" type="curve" smooth="yes"/>
      <point x="301.3" y="442.2"/>
      <point x="234.50000000000003" y="409.8"/>
      <point x="176.8" y="362.9" type="curve"/>
      <point x="201.10000000000002" y="333.20000000000005" type="line"/>
      <point x="201.90000000000003" y="431.1" type="line"/>
      <point x="105.3" y="431.1" type="line"/>
      <point x="25.899999999999995" y="-203.4" type="line"/>
      <point x="137.3" y="-203.4" type="line"/>
      <point x="170.3" y="92.80000000000001" type="line"/>
      <point x="144.0" y="63.999999999999986" type="line"/>
      <point x="168.5" y="20.199999999999992"/>
      <point x="234.10000000000002" y="-10.8"/>
    </contour>
    <contour>
      <point x="291.1" y="83.40000000000002" type="curve" smooth="yes"/>
      <point x="221.8" y="83.40000000000002"/>
      <point x="190.20000000000002" y="130.5"/>
      <point x="178.60000000000002" y="175.0" type="curve"/>
      <point x="189.5" y="262.8" type="line"/>
      <point x="217.0" y="319.09999999999997"/>
      <point x="264.0" y="352.8"/>
      <point x="322.0" y="352.8" type="curve" smooth="yes"/>
      <point x="386.1" y="352.8"/>
      <point x="442.8" y="304.1"/>
      <point x="442.8" y="232.70000000000002" type="curve" smooth="yes"/>
      <point x="442.8" y="154.70000000000002"/>
      <point x="382.59999999999997" y="83.40000000000002"/>
    </contour>
  </outline>
</glyph>
<glyph name="q" format="2">
  <advance width="599.6"/>
  <unicode hex="0071"/>
  <anchor x="263.4" y="0.0" name="bottom"/>
  <anchor x="315.6" y="423.20000000000005" name="top"/>
  <outline>
    <contour>
      <point x="238.1" y="-9.100000000000001" type="curve" smooth="yes"/>
      <point x="349.2" y="-10.8"/>
      <point x="413.0" y="60.50000000000001"/>
      <point x="425.2" y="76.39999999999999" type="curve"/>
      <point x="396.6" y="101.3" type="line"/>
      <point x="359.2" y="-203.4" type="line"/>
      <point x="471.3" y="-203.4" type="line"/>
      <point x="548.6" y="423.20000000000005" type="line"/>
      <point x="444.1" y="423.20000000000005" type="line"/>
      <point x="425.7" y="345.90000000000003" type="line"/>
      <point x="436.29999999999995" y="360.6" type="line"/>
      <point x="412.9" y="403.70000000000005"/>
      <point x="368.0" y="442.2"/>
      <point x="281.3" y="442.2" type="curve" smooth="yes"/>
      <point x="143.3" y="442.2"/>
      <point x="41.3" y="321.90000000000003"/>
      <point x="41.3" y="194.3" type="curve" smooth="yes"/>
      <point x="41.3" y="66.3"/>
      <point x="141.5" y="-10.8"/>
    </contour>
    <contour>
      <point x="270.4" y="79.60000000000002" type="curve" smooth="yes"/>
      <point x="206.3" y="79.60000000000002"/>
      <point x="149.60000000000002" y="128.3"/>
      <point x="149.60000000000002" y="199.10000000000002" type="curve" smooth="yes"/>
      <point x="149.60000000000002" y="277.70000000000005"/>
      <point x="209.8" y="349.0"/>
      <point x="301.3" y="349.0" type="curve" smooth="yes"/>
      <point x="370.90000000000003" y="349.0"/>
      <point x="405.3" y="302.5"/>
      <point x="416.9" y="256.5" type="curve"/>
      <point x="403.90000000000003" y="169.0" type="line"/>
      <point x="375.5" y="113.60000000000001"/>
      <point x="327.5" y="79.60000000000002"/>
    </contour>
  </outline>
</glyph>
<glyph name="r" format="2">
  <advance width="392.70000000000005"/>
  <unicode hex="0072"/>
  <anchor x="164.8" y="0.0" name="bottom"/>
  <anchor x="188.20000000000002" y="472.40000000000003" name="top"/>
  <outline>
    <contour>
      <point x="203.70000000000002" y="423.20000000000005" type="line"/>
      <point x="103.19999999999999" y="423.20000000000005" type="line"/>
      <point x="51.7" y="0.0" type="line"/>
      <point x="163.10000000000002" y="0.0" type="line"/>
      <point x="185.60000000000002" y="181.8" type="line" smooth="yes"/>
      <point x="194.60000000000002" y="260.2"/>
      <point x="266.90000000000003" y="337.79999999999995"/>
      <point x="361.8" y="330.09999999999997" type="curve"/>
      <point x="380.7" y="441.9" type="line"/>
      <point x="326.0" y="441.6"/>
      <point x="241.00000000000003" y="399.90000000000003"/>
      <point x="197.60000000000002" y="324.1" type="curve"/>
    </contour>
  </outline>
</glyph>
<glyph name="s" format="2">
  <advance width="424.3"/>
  <unicode hex="0073"/>
  <anchor x="168.3" y="0.0" name="bottom"/>
  <anchor x="253.20000000000002" y="472.40000000000003" name="top"/>
  <outline>
    <contour>
      <point x="190.3" y="-8.700000000000001" type="curve" smooth="yes"/>
      <point x="304.6" y="-9.4"/>
      <point x="357.5" y="60.900000000000006"/>
      <point x="363.80000000000007" y="126.9" type="curve" smooth="yes"/>
      <point x="369.40000000000003" y="192.5"/>
      <point x="330.20000000000005" y="227.4"/>
      <point x="272.90000000000003" y="251.5" type="curve" smooth="yes"/>
      <point x="231.5" y="268.5"/>
      <point x="183.70000000000002" y="279.6"/>
      <point x="183.40000000000003" y="315.59999999999997" type="curve" smooth="yes"/>
      <point x="183.40000000000003" y="338.0"/>
      <point x="200.3" y="362.09999999999997"/>
      <point x="241.60000000000002" y="362.1" type="curve" smooth="yes"/>
      <point x="274.40000000000003" y="362.1"/>
      <point x="308.0" y="349.2"/>
      <point x="334.8" y="318.8" type="curve"/>
      <point x="386.1" y="383.70000000000005" type="line"/>
      <point x="336.3" y="430.0"/>
      <point x="273.0" y="438.9"/>
      <point x="226.2" y="438.90000000000003" type="curve" smooth="yes"/>
      <point x="103.79999999999998" y="439.20000000000005"/>
      <point x="68.6" y="352.3"/>
      <point x="68.6" y="299.59999999999997" type="curve" smooth="yes"/>
      <point x="68.6" y="247.9"/>
      <point x="99.0" y="207.29999999999998"/>
      <point x="162.3" y="182.4" type="curve" smooth="yes"/>
      <point x="205.5" y="165.5"/>
      <point x="249.99999999999997" y="154.0"/>
      <point x="250.0" y="117.7" type="curve" smooth="yes"/>
      <point x="250.0" y="97.9"/>
      <point x="235.10000000000002" y="70.20000000000002"/>
      <point x="189.60000000000002" y="70.20000000000002" type="curve" smooth="yes"/>
      <point x="161.9" y="70.20000000000002"/>
      <point x="119.30000000000001" y="74.10000000000001"/>
      <point x="73.80000000000001" y="128.50000000000003" type="curve"/>
      <point x="19.399999999999995" y="68.7" type="line"/>
      <point x="68.5" y="2.4999999999999982"/>
      <point x="151.60000000000002" y="-8.700000000000001"/>
    </contour>
  </outline>
</glyph>
<glyph name="t" format="2">
  <advance width="373.3"/>
  <unicode hex="0074"/>
  <anchor x="162.0" y="0.0" name="bottom"/>
  <anchor x="172.9" y="197.3" name="center"/>
  <anchor x="232.4" y="595.8000000000001" name="top"/>
  <anchor x="345.4" y="500.29999999999995" name="topright"/>
  <outline>
    <contour>
      <point x="162.9" y="609.2" type="line"/>
      <point x="140.5" y="423.1" type="line"/>
      <point x="67.7" y="423.1" type="line"/>
      <point x="57.099999999999994" y="335.1" type="line"/>
      <point x="129.89999999999998" y="335.1" type="line"/>
      <point x="89.3" y="0.0" type="line"/>
      <point x="201.40000000000003" y="0.0" type="line"/>
      <point x="242.0" y="335.1" type="line"/>
      <point x="352.8" y="335.1" type="line"/>
      <point x="363.4" y="423.1" type="line"/>
      <point x="252.60000000000002" y="423.1" type="line"/>
      <point x="275.3" y="609.2" type="line"/>
    </contour>
  </outline>
</glyph>
<glyph name="v" format="2">
  <advance width="510.3"/>
  <unicode hex="0076"/>
  <anchor x="206.5" y="0.0" name="bottom"/>
  <anchor x="264.9" y="472.40000000000003" name="top"/>
  <outline>
    <contour>
      <point x="228.70000000000002" y="-10.799999999999999" type="line"/>
      <point x="233.0" y="-10.799999999999999" type="line"/>
      <point x="517.6" y="423.20000000000005" type="line"/>
      <point x="392.5" y="423.20000000000005" type="line"/>
      <point x="217.0" y="109.50000000000001" type="line"/>
      <point x="284.90000000000003" y="107.10000000000002" type="line"/>
      <point x="171.10000000000002" y="423.20000000000005" type="line"/>
      <point x="38.4" y="423.20000000000005" type="line"/>
    </contour>
  </outline>
</glyph>
<glyph name="w" format="2">
  <advance width="678.6"/>
  <unicode hex="0077"/>
  <anchor x="311.40000000000003" y="0.0" name="bottom"/>
  <anchor x="363.6" y="423.20000000000005" name="top"/>
  <outline>
    <contour>
      <point x="436.2" y="-12.999999999999998" type="line"/>
      <point x="443.0" y="-12.999999999999998" type="line"/>
      <point x="685.9" y="423.20000000000005" type="line"/>
      <point x="576.3" y="423.20000000000005" type="line"/>
      <point x="443.1" y="171.20000000000005" type="line"/>
      <point x="464.6" y="172.90000000000003" type="line"/>
      <point x="384.5" y="423.20000000000005" type="line"/>
      <point x="288.29999999999995" y="423.20000000000005" type="line"/>
      <point x="309.2" y="361.5" type="line"/>
      <point x="195.3" y="164.90000000000003" type="line"/>
      <point x="234.0" y="158.50000000000003" type="line"/>
      <point x="147.70000000000002" y="423.20000000000005" type="line"/>
      <point x="38.4" y="423.20000000000005" type="line"/>
      <point x="176.0" y="-11.999999999999996" type="line"/>
      <point x="182.79999999999998" y="-11.999999999999996" type="line"/>
      <point x="337.5" y="267.5" type="line"/>
    </contour>
  </outline>
</glyph>
<glyph name="x" format="2">
  <advance width="480.70000000000005"/>
  <unicode hex="0078"/>
  <outline>
    <contour>
      <point x="452.1" y="0.0" type="line"/>
      <point x="183.5" y="423.20000000000005" type="line"/>
      <point x="45.699999999999996" y="423.20000000000005" type="line"/>
      <point x="317.0" y="0.0" type="line"/>
    </contour>
    <contour>
      <point x="261.40000000000003" y="275.8" type="line"/>
      <point x="292.3" y="194.6" type="line"/>
      <point x="485.4" y="423.2" type="line"/>
      <point x="371.90000000000003" y="423.2" type="line"/>
    </contour>
    <contour>
      <point x="233.60000000000002" y="148.4" type="line"/>
      <point x="190.6" y="224.10000000000002" type="line"/>
      <point x="-1.8000000000000078" y="0.0" type="line"/>
      <point x="111.4" y="0.0" type="line"/>
    </contour>
  </outline>
</glyph>
<glyph name="y" format="2">
  <advance width="512.7"/>
  <unicode hex="0079"/>
  <anchor x="411.90000000000003" y="-2.0999999999999988" name="bottom"/>
  <anchor x="300.20000000000005" y="423.20000000000005" name="top"/>
  <outline>
    <contour>
      <point x="73.0" y="-203.4" type="line"/>
      <point x="183.10000000000002" y="-203.4" type="line"/>
      <point x="533.4000000000001" y="423.20000000000005" type="line"/>
      <point x="430.20000000000005" y="423.20000000000005" type="line"/>
    </contour>
    <contour>
      <point x="207.0" y="-2.5999999999999996" type="line"/>
      <point x="300.20000000000005" y="53.90000000000001" type="line"/>
      <point x="180.00000000000003" y="423.20000000000005" type="line"/>
      <point x="54.199999999999996" y="423.20000000000005" type="line"/>
    </contour>
  </outline>
</glyph>
<glyph name="z" format="2">
  <advance width="486.6"/>
  <unicode hex="007A"/>
  <anchor x="209.40000000000003" y="0.0" name="bottom"/>
  <anchor x="261.90000000000003" y="423.20000000000005" name="top"/>
  <outline>
    <contour>
      <point x="142.5" y="331.4" type="curve" smooth="yes"/>
      <point x="306.29999999999995" y="331.4" type="line"/>
      <point x="292.7" y="363.9" type="line"/>
      <point x="-2.7000000000000064" y="0.0" type="line"/>
      <point x="404.0" y="0.0" type="line"/>
      <point x="415.3" y="91.80000000000003" type="line"/>
      <point x="150.90000000000003" y="91.80000000000003" type="line"/>
      <point x="169.60000000000002" y="68.50000000000001" type="line"/>
      <point x="458.80000000000007" y="423.20000000000005" type="line"/>
      <point x="189.00000000000003" y="423.20000000000005" type="line" smooth="yes"/>
      <point x="164.60000000000002" y="423.20000000000005"/>
      <point x="156.20000000000002" y="425.9"/>
      <point x="159.3" y="450.3" type="curve" smooth="yes"/>
      <point x="160.00000000000003" y="463.7" type="line"/>
      <point x="75.4" y="463.7" type="line"/>
      <point x="69.9" y="416.0" type="line" smooth="yes"/>
      <point x="63.8" y="361.8"/>
      <point x="96.0" y="331.4"/>
    </contour>
  </outline>
</glyph>
<glyph name="braceleft" format="2">
  <advance width="359.40000000000003"/>
  <unicode hex="007B"/>
  <outline>
    <contour>
      <point x="329.70000000000005" y="659.4" type="curve" smooth="yes"/>
      <point x="371.2" y="659.4" type="line"/>
      <point x="383.2" y="757.7" type="line"/>
      <point x="313.5" y="757.7" type="line" smooth="yes"/>
      <point x="243.3" y="757.7"/>
      <point x="187.9" y="764.5"/>
      <point x="171.9" y="638.0" type="curve" smooth="yes"/>
      <point x="153.0" y="485.9" type="line" smooth="yes"/>
      <point x="146.0" y="430.20000000000005"/>
      <point x="121.6" y="351.5"/>
      <point x="55.6" y="348.5" type="curve"/>
      <point x="44.0" y="252.6" type="line"/>
      <point x="44.0" y="252.6" type="line"/>
      <point x="109.0" y="249.6"/>
      <point x="114.7" y="170.89999999999998"/>
      <point x="107.7" y="115.5" type="curve" smooth="yes"/>
      <point x="88.3" y="-40.10000000000001" type="line" smooth="yes"/>
      <point x="73.8" y="-158.9"/>
      <point x="136.4" y="-151.8"/>
      <point x="201.8" y="-151.8" type="curve" smooth="yes"/>
      <point x="271.8" y="-151.8" type="line"/>
      <point x="283.8" y="-53.79999999999998" type="line"/>
      <point x="242.3" y="-53.79999999999998" type="line" smooth="yes"/>
      <point x="200.60000000000002" y="-53.79999999999998"/>
      <point x="190.20000000000002" y="-39.69999999999999"/>
      <point x="201.20000000000002" y="48.90000000000001" type="curve" smooth="yes"/>
      <point x="216.8" y="174.8" type="line" smooth="yes"/>
      <point x="225.60000000000002" y="244.79999999999998"/>
      <point x="189.0" y="286.9"/>
      <point x="167.3" y="302.1" type="curve"/>
      <point x="193.3" y="319.70000000000005"/>
      <point x="240.0" y="358.4"/>
      <point x="248.8" y="431.09999999999997" type="curve" smooth="yes"/>
      <point x="263.7" y="557.7" type="line" smooth="yes"/>
      <point x="274.40000000000003" y="646.3"/>
      <point x="288.0" y="659.4"/>
    </contour>
  </outline>
</glyph>
<glyph name="bar" format="2">
  <advance width="294.90000000000003"/>
  <unicode hex="007C"/>
  <outline>
    <contour>
      <point x="177.5" y="711.0" type="line"/>
      <point x="61.099999999999994" y="-235.8" type="line"/>
      <point x="162.5" y="-235.8" type="line"/>
      <point x="278.90000000000003" y="711.0" type="line"/>
    </contour>
  </outline>
</glyph>
<glyph name="braceright" format="2">
  <advance width="363.0"/>
  <unicode hex="007D"/>
  <outline>
    <contour>
      <point x="72.89999999999999" y="-53.79999999999998" type="curve" smooth="yes"/>
      <point x="31.39999999999999" y="-53.79999999999998" type="line"/>
      <point x="19.399999999999984" y="-151.8" type="line"/>
      <point x="89.1" y="-151.8" type="line" smooth="yes"/>
      <point x="159.3" y="-151.8"/>
      <point x="216.10000000000002" y="-157.8"/>
      <point x="231.10000000000002" y="-31.700000000000003" type="curve" smooth="yes"/>
      <point x="249.8" y="123.9" type="line" smooth="yes"/>
      <point x="256.8" y="181.3"/>
      <point x="285.40000000000003" y="251.0"/>
      <point x="346.70000000000005" y="252.6" type="curve"/>
      <point x="358.3" y="348.5" type="line"/>
      <point x="358.3" y="348.5" type="line"/>
      <point x="298.0" y="350.1"/>
      <point x="286.7" y="420.5"/>
      <point x="293.4" y="477.2" type="curve" smooth="yes"/>
      <point x="312.8" y="638.0" type="line" smooth="yes"/>
      <point x="328.8" y="765.5"/>
      <point x="267.9" y="757.7"/>
      <point x="200.5" y="757.7" type="curve" smooth="yes"/>
      <point x="130.79999999999998" y="757.7" type="line"/>
      <point x="118.79999999999998" y="659.4" type="line"/>
      <point x="160.29999999999998" y="659.4" type="line" smooth="yes"/>
      <point x="201.99999999999997" y="659.4"/>
      <point x="211.39999999999998" y="646.3"/>
      <point x="200.39999999999998" y="557.7" type="curve" smooth="yes"/>
      <point x="184.79999999999998" y="431.09999999999997" type="line" smooth="yes"/>
      <point x="176.0" y="358.4"/>
      <point x="213.29999999999998" y="319.70000000000005"/>
      <point x="235.29999999999995" y="302.1" type="curve"/>
      <point x="208.29999999999995" y="285.7"/>
      <point x="162.6" y="246.4"/>
      <point x="152.29999999999998" y="166.7" type="curve" smooth="yes"/>
      <point x="137.89999999999998" y="48.90000000000001" type="line" smooth="yes"/>
      <point x="127.19999999999999" y="-39.69999999999999"/>
      <point x="114.6" y="-53.79999999999998"/>
    </contour>
  </outline>
</glyph>
<glyph name="asciitilde" format="2">
  <advance width="459.40000000000003"/>
  <unicode hex="007E"/>
  <outline>
    <contour>
      <point x="322.4" y="425.4" type="curve"/>
      <point x="386.9" y="421.0"/>
      <point x="445.70000000000005" y="486.5"/>
      <point x="444.6" y="585.2" type="curve"/>
      <point x="375.5" y="590.3000000000001" type="line"/>
      <point x="371.8" y="542.9"/>
      <point x="359.00000000000006" y="504.5"/>
      <point x="328.90000000000003" y="506.5" type="curve"/>
      <point x="307.8" y="507.5"/>
      <point x="291.8" y="526.4"/>
      <point x="273.0" y="546.6999999999999" type="curve"/>
      <point x="250.10000000000002" y="572.4"/>
      <point x="224.8" y="600.5"/>
      <point x="185.10000000000002" y="602.5" type="curve"/>
      <point x="104.6" y="607.6"/>
      <point x="50.49999999999999" y="532.8000000000001"/>
      <point x="46.8" y="442.7" type="curve"/>
      <point x="115.9" y="437.3" type="line"/>
      <point x="119.20000000000002" y="483.3"/>
      <point x="137.3" y="519.3000000000001"/>
      <point x="167.9" y="517.6" type="curve"/>
      <point x="188.3" y="516.3000000000001"/>
      <point x="203.0" y="500.5"/>
      <point x="218.70000000000002" y="483.29999999999995" type="curve"/>
      <point x="243.60000000000002" y="457.6"/>
      <point x="270.6" y="428.09999999999997"/>
    </contour>
  </outline>
</glyph>
<glyph name="exclamdown" format="2">
  <advance width="201.4"/>
  <unicode hex="00A1"/>
  <outline>
    <contour>
      <point x="99.2" y="-205.3" type="line"/>
      <point x="169.5" y="364.59999999999997" type="line"/>
      <point x="69.1" y="364.59999999999997" type="line"/>
      <point x="-1.200000000000017" y="-205.3" type="line"/>
    </contour>
    <contour>
      <point x="149.2" y="555.4" type="curve" smooth="yes"/>
      <point x="111.99999999999999" y="559.6"/>
      <point x="83.59999999999998" y="541.7"/>
      <point x="76.79999999999998" y="508.0" type="curve" smooth="yes"/>
      <point x="70.29999999999998" y="475.99999999999994"/>
      <point x="89.6" y="447.4"/>
      <point x="126.1" y="442.29999999999995" type="curve" smooth="yes"/>
      <point x="162.9" y="437.79999999999995"/>
      <point x="195.0" y="459.4"/>
      <point x="201.20000000000002" y="491.4" type="curve" smooth="yes"/>
      <point x="207.70000000000002" y="525.1"/>
      <point x="186.70000000000002" y="550.6"/>
    </contour>
  </outline>
</glyph>
<glyph name="cent" format="2">
  <advance width="470.3"/>
  <unicode hex="00A2"/>
  <anchor x="200.1" y="0.0" name="bottom"/>
  <anchor x="266.40000000000003" y="433.5" name="top"/>
  <outline>
    <contour>
      <point x="272.8" y="491.0" type="line"/>
      <point x="204.6" y="-68.0" type="line"/>
      <point x="273.3" y="-68.0" type="line"/>
      <point x="341.5" y="491.0" type="line"/>
    </contour>
    <component base="c"/>
  </outline>
</glyph>
<glyph name="sterling" format="2">
  <advance width="580.5"/>
  <unicode hex="00A3"/>
  <outline>
    <contour>
      <point x="426.90000000000003" y="397.6" type="line"/>
      <point x="104.30000000000001" y="397.6" type="line"/>
      <point x="90.6" y="285.2" type="line"/>
      <point x="413.20000000000005" y="285.2" type="line"/>
    </contour>
    <contour>
      <point x="187.9" y="546.8000000000001" type="curve" smooth="yes"/>
      <point x="146.2" y="202.2" type="line" smooth="yes"/>
      <point x="136.70000000000002" y="123.00000000000001"/>
      <point x="123.2" y="112.10000000000002"/>
      <point x="82.4" y="112.10000000000002" type="curve" smooth="yes"/>
      <point x="37.400000000000006" y="112.10000000000002" type="line"/>
      <point x="23.700000000000003" y="0.0" type="line"/>
      <point x="426.6" y="0.0" type="line" smooth="yes"/>
      <point x="526.9" y="0.0"/>
      <point x="569.2" y="50.900000000000006"/>
      <point x="578.3000000000001" y="121.80000000000001" type="curve" smooth="yes"/>
      <point x="586.8000000000001" y="193.20000000000002" type="line"/>
      <point x="485.7" y="192.5" type="line"/>
      <point x="480.8" y="154.10000000000002" type="line" smooth="yes"/>
      <point x="477.5" y="124.10000000000002"/>
      <point x="456.90000000000003" y="112.10000000000002"/>
      <point x="416.8" y="112.10000000000002" type="curve" smooth="yes"/>
      <point x="221.3" y="112.10000000000002" type="line"/>
      <point x="227.60000000000002" y="106.50000000000001" type="line"/>
      <point x="245.40000000000003" y="122.70000000000002"/>
      <point x="255.10000000000002" y="161.3"/>
      <point x="260.90000000000003" y="193.3" type="curve" smooth="yes"/>
      <point x="263.6" y="212.10000000000002" type="line"/>
      <point x="299.6" y="504.0" type="line" smooth="yes"/>
      <point x="307.3" y="568.8000000000001"/>
      <point x="342.5" y="602.1"/>
      <point x="418.0" y="602.1" type="curve" smooth="yes"/>
      <point x="481.1" y="602.1"/>
      <point x="507.6" y="575.1"/>
      <point x="523.7" y="551.4000000000001" type="curve"/>
      <point x="614.9000000000001" y="609.0" type="line"/>
      <point x="588.7" y="674.4"/>
      <point x="526.2" y="714.2"/>
      <point x="429.3" y="714.2" type="curve" smooth="yes"/>
      <point x="297.8" y="714.2"/>
      <point x="199.9" y="642.1999999999999"/>
    </contour>
  </outline>
</glyph>
<glyph name="currency" format="2">
  <advance width="505.5"/>
  <unicode hex="00A4"/>
  <outline>
    <contour>
      <point x="416.09999999999997" y="435.29999999999995" type="curve"/>
      <point x="445.0" y="460.2" type="line"/>
      <point x="402.6" y="510.5" type="line"/>
      <point x="372.0" y="485.20000000000005" type="line"/>
      <point x="372.0" y="485.20000000000005" type="line"/>
      <point x="350.3" y="501.0"/>
      <point x="323.4" y="511.9"/>
      <point x="293.90000000000003" y="513.6" type="curve" smooth="yes"/>
      <point x="263.7" y="515.0"/>
      <point x="235.9" y="505.8"/>
      <point x="209.2" y="493.1" type="curve"/>
      <point x="185.5" y="520.8" type="line"/>
      <point x="132.5" y="476.0" type="line"/>
      <point x="140.39999999999998" y="466.1"/>
      <point x="147.29999999999998" y="457.2"/>
      <point x="155.2" y="447.3" type="curve"/>
      <point x="136.8" y="423.8"/>
      <point x="124.6" y="397.0"/>
      <point x="121.5" y="365.6" type="curve" smooth="yes"/>
      <point x="121.5" y="365.6" type="line" smooth="yes"/>
      <point x="118.39999999999999" y="335.9"/>
      <point x="124.0" y="307.2"/>
      <point x="136.2" y="284.09999999999997" type="curve"/>
      <point x="104.99999999999999" y="257.2" type="line"/>
      <point x="147.7" y="206.6" type="line"/>
      <point x="179.6" y="233.5" type="line"/>
      <point x="179.6" y="233.5" type="line"/>
      <point x="200.3" y="219.0"/>
      <point x="226.5" y="209.4"/>
      <point x="256.4" y="207.7" type="curve" smooth="yes"/>
      <point x="286.29999999999995" y="207.0"/>
      <point x="314.2" y="213.5"/>
      <point x="339.5" y="226.6" type="curve"/>
      <point x="348.4" y="217.4"/>
      <point x="356.6" y="206.79999999999998"/>
      <point x="365.5" y="197.29999999999998" type="curve"/>
      <point x="418.5" y="242.4" type="line"/>
      <point x="394.9" y="271.7" type="line"/>
      <point x="414.3" y="295.9"/>
      <point x="427.8" y="323.7"/>
      <point x="430.2" y="356.1" type="curve" smooth="yes"/>
      <point x="433.3" y="384.1"/>
      <point x="427.70000000000005" y="411.5"/>
    </contour>
    <contour>
      <point x="189.9" y="361.40000000000003" type="curve" smooth="yes"/>
      <point x="189.9" y="361.40000000000003" type="line" smooth="yes"/>
      <point x="193.7" y="411.0"/>
      <point x="238.4" y="448.7"/>
      <point x="286.4" y="447.3" type="curve" smooth="yes"/>
      <point x="332.6" y="444.9"/>
      <point x="366.3" y="405.8"/>
      <point x="362.5" y="358.90000000000003" type="curve" smooth="yes"/>
      <point x="358.7" y="310.3"/>
      <point x="313.6" y="272.3"/>
      <point x="265.29999999999995" y="274.0" type="curve" smooth="yes"/>
      <point x="219.4" y="276.4"/>
      <point x="185.4" y="315.5"/>
    </contour>
  </outline>
</glyph>
<glyph name="yen" format="2">
  <advance width="703.7"/>
  <unicode hex="00A5"/>
  <outline>
    <contour>
      <point x="178.9" y="306.6" type="line"/>
      <point x="167.9" y="215.49999999999997" type="line"/>
      <point x="544.0" y="215.49999999999997" type="line"/>
      <point x="555.0" y="306.6" type="line"/>
    </contour>
    <contour>
      <point x="166.5" y="163.20000000000002" type="line"/>
      <point x="155.5" y="71.8" type="line"/>
      <point x="530.6" y="71.8" type="line"/>
      <point x="541.6" y="163.20000000000002" type="line"/>
    </contour>
    <contour>
      <point x="303.4" y="301.8" type="line"/>
      <point x="266.29999999999995" y="0.0" type="line"/>
      <point x="382.8" y="0.0" type="line"/>
      <point x="419.90000000000003" y="301.8" type="line"/>
      <point x="744.9" y="728.2" type="line"/>
      <point x="601.3000000000001" y="728.2" type="line"/>
      <point x="359.0" y="398.9" type="line"/>
      <point x="394.2" y="401.6" type="line"/>
      <point x="229.20000000000002" y="728.2" type="line"/>
      <point x="86.5" y="728.2" type="line"/>
    </contour>
  </outline>
</glyph>
<glyph name="brokenbar" format="2">
  <advance width="218.10000000000002"/>
  <unicode hex="00A6"/>
  <outline>
    <contour>
      <point x="77.1" y="118.7" type="line"/>
      <point x="33.39999999999999" y="-236.8" type="line"/>
      <point x="134.5" y="-236.8" type="line"/>
      <point x="178.20000000000002" y="118.7" type="line"/>
    </contour>
    <contour>
      <point x="149.8" y="711.0" type="line"/>
      <point x="106.1" y="355.5" type="line"/>
      <point x="207.20000000000002" y="355.5" type="line"/>
      <point x="251.20000000000002" y="711.0" type="line"/>
    </contour>
  </outline>
</glyph>
<glyph name="section" format="2">
  <advance width="575.5"/>
  <unicode hex="00A7"/>
  <outline>
    <contour>
      <point x="367.2" y="132.1" type="line"/>
      <point x="466.3" y="146.20000000000002"/>
      <point x="525.5" y="211.5"/>
      <point x="534.8" y="288.0" type="curve" smooth="yes"/>
      <point x="549.5" y="402.6"/>
      <point x="453.8" y="443.0"/>
      <point x="372.2" y="470.6" type="curve" smooth="yes"/>
      <point x="303.3" y="493.6"/>
      <point x="246.5" y="517.1"/>
      <point x="252.70000000000002" y="568.6999999999999" type="curve" smooth="yes"/>
      <point x="256.6" y="604.5999999999999"/>
      <point x="292.7" y="634.8"/>
      <point x="364.3" y="630.5" type="curve" smooth="yes"/>
      <point x="406.7" y="626.5"/>
      <point x="448.7" y="609.4"/>
      <point x="492.70000000000005" y="568.0" type="curve"/>
      <point x="553.0" y="650.9" type="line"/>
      <point x="507.3" y="694.2"/>
      <point x="443.3" y="725.9"/>
      <point x="364.3" y="732.0" type="curve" smooth="yes"/>
      <point x="214.5" y="741.4"/>
      <point x="140.29999999999998" y="648.3000000000001"/>
      <point x="129.6" y="560.0" type="curve" smooth="yes"/>
      <point x="121.29999999999998" y="487.8"/>
      <point x="152.1" y="423.29999999999995"/>
      <point x="255.39999999999998" y="383.5" type="curve"/>
      <point x="269.09999999999997" y="424.0" type="line"/>
      <point x="184.9" y="433.8"/>
      <point x="87.39999999999999" y="391.4"/>
      <point x="75.0" y="283.09999999999997" type="curve" smooth="yes"/>
      <point x="62.0" y="177.79999999999998"/>
      <point x="159.4" y="128.89999999999998"/>
      <point x="242.09999999999997" y="101.8" type="curve"/>
      <point x="305.2" y="81.69999999999999"/>
      <point x="363.0" y="57.89999999999999"/>
      <point x="355.79999999999995" y="5.000000000000002" type="curve" smooth="yes"/>
      <point x="349.9" y="-47.89999999999999"/>
      <point x="297.3" y="-74.99999999999999"/>
      <point x="238.2" y="-71.39999999999998" type="curve" smooth="yes"/>
      <point x="186.10000000000002" y="-68.79999999999998"/>
      <point x="135.60000000000002" y="-43.099999999999994"/>
      <point x="83.10000000000001" y="5.800000000000011" type="curve"/>
      <point x="13.5" y="-86.80000000000001" type="line"/>
      <point x="68.2" y="-140.3"/>
      <point x="148.9" y="-170.3"/>
      <point x="232.3" y="-175.6" type="curve" smooth="yes"/>
      <point x="362.0" y="-183.6"/>
      <point x="465.8" y="-97.8"/>
      <point x="479.20000000000005" y="14.400000000000007" type="curve" smooth="yes"/>
      <point x="491.3" y="111.30000000000001"/>
      <point x="421.5" y="166.5"/>
      <point x="329.7" y="177.4" type="curve"/>
    </contour>
    <contour>
      <point x="419.3" y="274.2" type="curve" smooth="yes"/>
      <point x="411.4" y="223.8"/>
      <point x="348.0" y="197.4"/>
      <point x="297.29999999999995" y="196.8" type="curve"/>
      <point x="235.60000000000002" y="218.0"/>
      <point x="182.3" y="250.2"/>
      <point x="191.20000000000002" y="304.8" type="curve" smooth="yes"/>
      <point x="198.10000000000002" y="344.8"/>
      <point x="246.0" y="375.3"/>
      <point x="313.29999999999995" y="368.3" type="curve"/>
      <point x="365.7" y="356.7"/>
      <point x="427.5" y="322.1"/>
    </contour>
  </outline>
</glyph>
<glyph name="dieresis" format="2">
  <advance width="376.20000000000005"/>
  <unicode hex="00A8"/>
  <outline>
    <contour>
      <point x="71.1" y="540.6" type="curve" smooth="yes"/>
      <point x="71.1" y="540.6" type="line" smooth="yes"/>
      <point x="67.29999999999998" y="505.5"/>
      <point x="94.19999999999999" y="478.29999999999995"/>
      <point x="124.5" y="476.9" type="curve" smooth="yes"/>
      <point x="152.7" y="475.2"/>
      <point x="185.8" y="498.3"/>
      <point x="189.9" y="534.4" type="curve" smooth="yes"/>
      <point x="193.7" y="569.5"/>
      <point x="166.1" y="597.1"/>
      <point x="137.89999999999998" y="598.8" type="curve" smooth="yes"/>
      <point x="108.0" y="600.2"/>
      <point x="74.89999999999998" y="575.7"/>
    </contour>
    <contour>
      <point x="262.59999999999997" y="540.6" type="curve" smooth="yes"/>
      <point x="262.59999999999997" y="540.6" type="line" smooth="yes"/>
      <point x="258.79999999999995" y="504.5"/>
      <point x="285.7" y="478.29999999999995"/>
      <point x="316.0" y="476.9" type="curve" smooth="yes"/>
      <point x="343.5" y="475.2"/>
      <point x="377.3" y="498.3"/>
      <point x="381.4" y="534.4" type="curve" smooth="yes"/>
      <point x="385.20000000000005" y="568.8"/>
      <point x="357.6" y="597.1"/>
      <point x="329.40000000000003" y="598.8" type="curve" smooth="yes"/>
      <point x="298.8" y="600.2"/>
      <point x="266.4" y="575.7"/>
    </contour>
  </outline>
</glyph>
<glyph name="copyright" format="2">
  <advance width="861.5"/>
  <unicode hex="00A9"/>
  <outline>
    <contour>
      <point x="582.4" y="184.89999999999998" type="curve"/>
      <point x="540.6" y="263.7" type="line"/>
      <point x="515.2" y="240.0"/>
      <point x="482.0" y="230.20000000000002"/>
      <point x="453.0" y="232.20000000000002" type="curve" smooth="yes"/>
      <point x="398.20000000000005" y="235.8"/>
      <point x="369.0" y="281.1"/>
      <point x="375.90000000000003" y="333.5" type="curve" smooth="yes"/>
      <point x="382.40000000000003" y="384.7"/>
      <point x="423.2" y="428.19999999999993"/>
      <point x="475.2" y="425.59999999999997" type="curve" smooth="yes"/>
      <point x="501.09999999999997" y="423.59999999999997"/>
      <point x="525.8" y="417.29999999999995"/>
      <point x="544.7" y="395.1" type="curve"/>
      <point x="600.2" y="478.7" type="line"/>
      <point x="573.4000000000001" y="506.4"/>
      <point x="518.9" y="520.9"/>
      <point x="478.90000000000003" y="523.5999999999999" type="curve" smooth="yes"/>
      <point x="361.2" y="531.0"/>
      <point x="274.1" y="452.29999999999995"/>
      <point x="260.0" y="336.9" type="curve" smooth="yes"/>
      <point x="247.29999999999998" y="233.0"/>
      <point x="317.1" y="140.2"/>
      <point x="422.4" y="131.09999999999997" type="curve" smooth="yes"/>
      <point x="490.20000000000005" y="126.69999999999997"/>
      <point x="547.8" y="155.7"/>
    </contour>
    <contour>
      <point x="401.4" y="-28.600000000000037" type="curve" smooth="yes"/>
      <point x="600.8000000000001" y="-40.700000000000045"/>
      <point x="778.2" y="101.89999999999998"/>
      <point x="803.1" y="303.0" type="curve" smooth="yes"/>
      <point x="828.0" y="507.8"/>
      <point x="684.9000000000001" y="667.9"/>
      <point x="488.20000000000005" y="680.0" type="curve" smooth="yes"/>
      <point x="291.5" y="691.8000000000001"/>
      <point x="111.39999999999998" y="551.2"/>
      <point x="86.19999999999999" y="347.4" type="curve" smooth="yes"/>
      <point x="62.29999999999998" y="145.29999999999998"/>
      <point x="204.39999999999998" y="-16.50000000000003"/>
    </contour>
    <contour>
      <point x="412.4" y="62.09999999999999" type="curve" smooth="yes"/>
      <point x="260.1" y="71.1"/>
      <point x="163.7" y="189.5"/>
      <point x="182.1" y="340.9" type="curve" smooth="yes"/>
      <point x="201.5" y="493.70000000000005"/>
      <point x="329.40000000000003" y="599.3"/>
      <point x="476.6" y="589.6" type="curve" smooth="yes"/>
      <point x="624.4" y="580.6"/>
      <point x="725.1999999999999" y="461.6"/>
      <point x="705.5" y="309.2" type="curve" smooth="yes"/>
      <point x="687.1" y="158.0"/>
      <point x="559.9000000000001" y="52.399999999999984"/>
    </contour>
  </outline>
</glyph>
<glyph name="ordfeminine" format="2">
  <advance width="395.3"/>
  <unicode hex="00AA"/>
  <outline>
    <contour>
      <point x="184.6" y="424.0" type="curve"/>
      <point x="243.5" y="424.0"/>
      <point x="281.9" y="466.5"/>
      <point x="290.29999999999995" y="478.5" type="curve"/>
      <point x="287.6" y="493.99999999999994" type="line"/>
      <point x="279.4" y="430.4" type="line"/>
      <point x="365.0" y="430.4" type="line"/>
      <point x="399.7" y="718.3000000000001" type="line"/>
      <point x="319.5" y="718.3000000000001" type="line"/>
      <point x="310.59999999999997" y="679.0" type="line"/>
      <point x="296.29999999999995" y="706.5"/>
      <point x="271.0" y="728.8"/>
      <point x="219.6" y="728.8" type="curve"/>
      <point x="152.3" y="728.8"/>
      <point x="84.5" y="669.6"/>
      <point x="73.5" y="574.5" type="curve"/>
      <point x="61.39999999999999" y="474.59999999999997"/>
      <point x="112.19999999999999" y="424.0"/>
    </contour>
    <contour>
      <point x="220.0" y="493.1" type="curve"/>
      <point x="180.4" y="493.1"/>
      <point x="154.20000000000002" y="530.1"/>
      <point x="160.10000000000002" y="577.6" type="curve"/>
      <point x="166.3" y="626.5999999999999"/>
      <point x="200.7" y="659.7"/>
      <point x="239.6" y="659.7" type="curve"/>
      <point x="273.59999999999997" y="659.7"/>
      <point x="296.09999999999997" y="637.2"/>
      <point x="301.09999999999997" y="604.4" type="curve"/>
      <point x="293.99999999999994" y="550.5999999999999" type="line"/>
      <point x="281.2" y="515.8"/>
      <point x="254.79999999999998" y="493.1"/>
    </contour>
  </outline>
</glyph>
<glyph name="guillemetleft" format="2">
  <advance width="610.3000000000001"/>
  <unicode hex="00AB"/>
  <outline>
    <contour>
      <point x="148.4" y="242.8" type="curve"/>
      <point x="297.7" y="47.39999999999999" type="line"/>
      <point x="311.40000000000003" y="161.50000000000003" type="line"/>
      <point x="302.40000000000003" y="172.3"/>
      <point x="267.3" y="232.0"/>
      <point x="258.3" y="242.8" type="curve"/>
      <point x="270.0" y="253.60000000000002"/>
      <point x="320.20000000000005" y="312.3"/>
      <point x="331.9" y="323.1" type="curve"/>
      <point x="345.6" y="437.5" type="line"/>
      <point x="331.5" y="425.5"/>
      <point x="162.5" y="254.79999999999998"/>
    </contour>
    <contour>
      <point x="321.8" y="242.8" type="curve"/>
      <point x="471.8" y="47.39999999999999" type="line"/>
      <point x="485.5" y="161.50000000000003" type="line"/>
      <point x="476.5" y="172.3"/>
      <point x="440.7" y="232.0"/>
      <point x="431.7" y="242.8" type="curve"/>
      <point x="443.40000000000003" y="253.60000000000002"/>
      <point x="494.3" y="313.29999999999995"/>
      <point x="506.0" y="323.8" type="curve"/>
      <point x="519.7" y="437.5" type="line"/>
      <point x="505.6" y="425.5"/>
      <point x="335.9" y="254.79999999999998"/>
    </contour>
  </outline>
</glyph>
<glyph name="logicalnot" format="2">
  <advance width="487.4"/>
  <unicode hex="00AC"/>
  <outline>
    <contour>
      <point x="78.69999999999999" y="309.5" type="line"/>
      <point x="63.999999999999986" y="197.4" type="line"/>
      <point x="313.29999999999995" y="197.4" type="line"/>
      <point x="301.9" y="103.6" type="line"/>
      <point x="418.1" y="103.6" type="line"/>
      <point x="443.9" y="309.5" type="line"/>
    </contour>
  </outline>
</glyph>
<glyph name="registered" format="2">
  <advance width="518.7"/>
  <unicode hex="00AE"/>
  <outline>
    <contour>
      <point x="267.0" y="273.79999999999995" type="curve"/>
      <point x="392.90000000000003" y="266.69999999999993"/>
      <point x="508.5" y="356.9"/>
      <point x="523.7" y="485.5" type="curve"/>
      <point x="539.9000000000001" y="616.5"/>
      <point x="448.30000000000007" y="718.2"/>
      <point x="322.40000000000003" y="726.3000000000001" type="curve"/>
      <point x="196.8" y="733.4"/>
      <point x="81.19999999999999" y="644.1999999999999"/>
      <point x="65.3" y="513.9" type="curve"/>
      <point x="49.8" y="384.59999999999997"/>
      <point x="141.4" y="281.9"/>
    </contour>
    <contour>
      <point x="274.20000000000005" y="335.29999999999995" type="curve"/>
      <point x="183.0" y="340.7"/>
      <point x="120.2" y="415.3"/>
      <point x="132.3" y="509.8" type="curve"/>
      <point x="144.10000000000002" y="605.3000000000001"/>
      <point x="222.70000000000002" y="670.5"/>
      <point x="315.20000000000005" y="665.1" type="curve"/>
      <point x="406.70000000000005" y="659.4"/>
      <point x="469.5" y="585.0999999999999"/>
      <point x="457.40000000000003" y="489.59999999999997" type="curve"/>
      <point x="445.6" y="395.09999999999997"/>
      <point x="367.0" y="329.59999999999997"/>
    </contour>
    <contour>
      <point x="228.10000000000002" y="619.6999999999999" type="line"/>
      <point x="200.2" y="395.4" type="line"/>
      <point x="261.0" y="395.4" type="line"/>
      <point x="270.40000000000003" y="466.2" type="line"/>
      <point x="313.90000000000003" y="465.9" type="line"/>
      <point x="365.0" y="465.3"/>
      <point x="387.8" y="498.5"/>
      <point x="391.5" y="535.0" type="curve"/>
      <point x="398.20000000000005" y="581.7"/>
      <point x="374.3" y="618.8"/>
      <point x="319.6" y="618.8" type="curve"/>
    </contour>
    <contour>
      <point x="295.3" y="513.0" type="curve"/>
      <point x="276.8" y="513.3" type="line"/>
      <point x="283.40000000000003" y="569.5999999999999" type="line"/>
      <point x="302.8" y="569.0" type="line"/>
      <point x="322.3" y="568.0"/>
      <point x="328.5" y="552.4"/>
      <point x="327.20000000000005" y="537.4" type="curve"/>
      <point x="324.90000000000003" y="521.2"/>
      <point x="317.1" y="512.0"/>
    </contour>
    <contour>
      <point x="345.20000000000005" y="475.79999999999995" type="line"/>
      <point x="282.0" y="478.2" type="line"/>
      <point x="303.7" y="394.5" type="line"/>
      <point x="371.70000000000005" y="394.2" type="line"/>
    </contour>
  </outline>
</glyph>
<glyph name="macron" format="2">
  <advance width="405.90000000000003"/>
  <unicode hex="00AF"/>
  <outline>
    <contour>
      <point x="153.20000000000002" y="544.9" type="line"/>
      <point x="145.7" y="482.0" type="line"/>
      <point x="379.8" y="482.0" type="line"/>
      <point x="387.0" y="544.9" type="line"/>
    </contour>
  </outline>
</glyph>
<glyph name="degree" format="2">
  <advance width="285.8"/>
  <unicode hex="00B0"/>
  <outline>
    <contour>
      <point x="46.39999999999999" y="572.7" type="curve" smooth="yes"/>
      <point x="46.39999999999999" y="572.7" type="line" smooth="yes"/>
      <point x="40.199999999999974" y="513.7"/>
      <point x="81.99999999999999" y="464.4"/>
      <point x="142.29999999999998" y="461.3" type="curve" smooth="yes"/>
      <point x="201.0" y="458.2"/>
      <point x="255.79999999999998" y="504.50000000000006"/>
      <point x="261.29999999999995" y="565.5999999999999" type="curve" smooth="yes"/>
      <point x="267.5" y="624.2"/>
      <point x="226.4" y="672.5"/>
      <point x="168.5" y="675.9" type="curve" smooth="yes"/>
      <point x="107.1" y="679.0"/>
      <point x="52.59999999999998" y="633.4"/>
    </contour>
    <contour>
      <point x="149.79999999999998" y="522.1" type="curve"/>
      <point x="149.79999999999998" y="522.1" type="line"/>
      <point x="124.99999999999999" y="522.8"/>
      <point x="107.19999999999999" y="543.0"/>
      <point x="109.6" y="568.1" type="curve" smooth="yes"/>
      <point x="111.69999999999999" y="594.4000000000001"/>
      <point x="134.7" y="615.1"/>
      <point x="161.0" y="614.1" type="curve" smooth="yes"/>
      <point x="185.79999999999998" y="612.7"/>
      <point x="203.59999999999997" y="591.8000000000001"/>
      <point x="201.9" y="566.7" type="curve" smooth="yes"/>
      <point x="199.5" y="540.4000000000001"/>
      <point x="176.1" y="521.4"/>
    </contour>
  </outline>
</glyph>
<glyph name="plusminus" format="2">
  <advance width="532.6"/>
  <unicode hex="00B1"/>
  <outline>
    <contour>
      <point x="290.09999999999997" y="579.6" type="line"/>
      <point x="273.6" y="445.1" type="line"/>
      <point x="141.9" y="445.1" type="line"/>
      <point x="130.2" y="347.5" type="line"/>
      <point x="261.9" y="347.5" type="line"/>
      <point x="245.39999999999998" y="214.1" type="line"/>
      <point x="347.20000000000005" y="214.1" type="line"/>
      <point x="364.0" y="347.5" type="line"/>
      <point x="495.70000000000005" y="347.5" type="line"/>
      <point x="507.40000000000003" y="445.1" type="line"/>
      <point x="375.7" y="445.1" type="line"/>
      <point x="392.2" y="579.6" type="line"/>
    </contour>
    <contour>
      <point x="108.8" y="175.8" type="line"/>
      <point x="96.8" y="77.49999999999999" type="line"/>
      <point x="462.3" y="77.49999999999999" type="line"/>
      <point x="474.3" y="175.8" type="line"/>
    </contour>
  </outline>
</glyph>
<glyph name="twosuperior" format="2">
  <advance width="405.3"/>
  <unicode hex="00B2"/>
  <outline>
    <contour>
      <point x="110.6" y="630.5" type="curve"/>
      <point x="134.1" y="557.4" type="line"/>
      <point x="151.1" y="579.0999999999999"/>
      <point x="187.6" y="599.6"/>
      <point x="218.4" y="599.6" type="curve" smooth="yes"/>
      <point x="255.89999999999998" y="599.6"/>
      <point x="273.7" y="578.6"/>
      <point x="268.1" y="530.0" type="curve" smooth="yes"/>
      <point x="259.4" y="459.20000000000005"/>
      <point x="154.0" y="391.29999999999995"/>
      <point x="87.89999999999999" y="352.6" type="curve"/>
      <point x="80.0" y="289.3" type="line"/>
      <point x="369.6" y="289.3" type="line"/>
      <point x="380.9" y="382.5" type="line"/>
      <point x="175.4" y="382.5" type="line"/>
      <point x="149.8" y="307.09999999999997" type="line"/>
      <point x="226.4" y="365.0"/>
      <point x="374.3" y="446.79999999999995"/>
      <point x="388.8" y="560.3" type="curve" smooth="yes"/>
      <point x="398.5" y="641.8"/>
      <point x="346.20000000000005" y="691.4"/>
      <point x="260.0" y="693.1" type="curve" smooth="yes"/>
      <point x="202.6" y="693.8000000000001"/>
      <point x="138.89999999999998" y="666.9"/>
    </contour>
  </outline>
</glyph>
<glyph name="threesuperior" format="2">
  <advance width="383.7"/>
  <unicode hex="00B3"/>
  <outline>
    <contour>
      <point x="172.4" y="285.49999999999994" type="curve" smooth="yes"/>
      <point x="263.6" y="285.49999999999994"/>
      <point x="330.2" y="345.3"/>
      <point x="339.90000000000003" y="421.29999999999995" type="curve" smooth="yes"/>
      <point x="348.3" y="489.59999999999997"/>
      <point x="281.40000000000003" y="543.2"/>
      <point x="234.9" y="542.6" type="curve"/>
      <point x="202.5" y="542.6"/>
      <point x="178.1" y="530.4"/>
      <point x="159.6" y="515.9" type="curve"/>
      <point x="230.10000000000002" y="495.5" type="line"/>
      <point x="357.2" y="684.5" type="line"/>
      <point x="121.39999999999999" y="684.5" type="line"/>
      <point x="110.8" y="603.6999999999999" type="line"/>
      <point x="251.0" y="603.6999999999999" type="line"/>
      <point x="229.2" y="621.3" type="line"/>
      <point x="129.79999999999998" y="491.1" type="line"/>
      <point x="134.6" y="481.20000000000005" type="line"/>
      <point x="144.6" y="485.79999999999995"/>
      <point x="163.1" y="490.4"/>
      <point x="177.79999999999998" y="490.4" type="curve" smooth="yes"/>
      <point x="215.29999999999998" y="490.4"/>
      <point x="243.8" y="465.4"/>
      <point x="238.5" y="424.4" type="curve" smooth="yes"/>
      <point x="233.19999999999996" y="384.79999999999995"/>
      <point x="206.29999999999998" y="363.2"/>
      <point x="167.5" y="358.7" type="curve" smooth="yes"/>
      <point x="136.8" y="354.6"/>
      <point x="112.8" y="386.0"/>
      <point x="102.9" y="399.2" type="curve"/>
      <point x="63.59999999999999" y="334.09999999999997" type="line"/>
      <point x="81.0" y="312.69999999999993"/>
      <point x="115.6" y="285.49999999999994"/>
    </contour>
  </outline>
</glyph>
<glyph name="acute" format="2">
  <advance width="291.3"/>
  <unicode hex="00B4"/>
  <outline>
    <contour>
      <point x="323.0" y="621.3" type="line"/>
      <point x="198.9" y="621.3" type="line"/>
      <point x="114.6" y="486.9" type="line"/>
      <point x="184.3" y="486.9" type="line"/>
    </contour>
  </outline>
</glyph>
<glyph name="micro" format="2">
  <advance width="561.5"/>
  <unicode hex="00B5"/>
  <outline>
    <contour>
      <point x="184.9" y="-18.0" type="curve" smooth="yes"/>
      <point x="262.0" y="-18.0"/>
      <point x="324.5" y="22.59999999999999"/>
      <point x="358.8" y="79.39999999999999" type="curve"/>
      <point x="356.8" y="0.0" type="line"/>
      <point x="458.3" y="0.0" type="line"/>
      <point x="510.50000000000006" y="423.20000000000005" type="line"/>
      <point x="398.40000000000003" y="423.20000000000005" type="line"/>
      <point x="375.2" y="236.20000000000002" type="line" smooth="yes"/>
      <point x="364.5" y="144.70000000000002"/>
      <point x="307.8" y="77.60000000000002"/>
      <point x="241.3" y="77.60000000000002" type="curve"/>
      <point x="194.9" y="78.50000000000001"/>
      <point x="179.00000000000003" y="106.80000000000001"/>
      <point x="181.60000000000002" y="149.4" type="curve"/>
      <point x="215.3" y="423.20000000000005" type="line"/>
      <point x="103.19999999999999" y="423.20000000000005" type="line"/>
      <point x="65.0" y="109.7" type="line"/>
      <point x="27.7" y="-201.0" type="line"/>
      <point x="120.50000000000001" y="-201.0" type="line"/>
      <point x="165.20000000000002" y="163.20000000000002" type="line"/>
      <point x="69.5" y="101.80000000000001" type="line"/>
      <point x="66.39999999999999" y="32.0"/>
      <point x="111.0" y="-18.0"/>
    </contour>
  </outline>
</glyph>
<glyph name="paragraph" format="2">
  <advance width="569.2"/>
  <unicode hex="00B6"/>
  <outline>
    <contour>
      <point x="256.8" y="429.2" type="curve"/>
      <point x="204.1" y="0.0" type="line"/>
      <point x="304.5" y="0.0" type="line"/>
      <point x="386.20000000000005" y="664.4" type="line"/>
      <point x="451.9" y="664.4" type="line"/>
      <point x="370.2" y="0.0" type="line"/>
      <point x="469.90000000000003" y="0.0" type="line"/>
      <point x="563.6" y="761.7" type="line"/>
      <point x="297.8" y="761.7" type="line" smooth="yes"/>
      <point x="198.1" y="761.7"/>
      <point x="110.7" y="679.0"/>
      <point x="110.7" y="578.3" type="curve" smooth="yes"/>
      <point x="110.7" y="494.9"/>
      <point x="171.4" y="429.2"/>
    </contour>
  </outline>
</glyph>
<glyph name="cedilla" format="2">
  <advance width="458.90000000000003"/>
  <unicode hex="00B8"/>
  <outline>
    <contour>
      <point x="100.89999999999999" y="-140.5" type="curve"/>
      <point x="60.89999999999999" y="-184.5" type="line"/>
      <point x="79.99999999999999" y="-207.7"/>
      <point x="111.69999999999999" y="-228.6"/>
      <point x="165.6" y="-232.0" type="curve"/>
      <point x="239.70000000000002" y="-236.0"/>
      <point x="313.5" y="-207.8"/>
      <point x="321.9" y="-137.5" type="curve"/>
      <point x="329.29999999999995" y="-77.89999999999999"/>
      <point x="279.7" y="-44.199999999999996"/>
      <point x="207.79999999999998" y="-41.19999999999999" type="curve"/>
      <point x="189.9" y="-41.3"/>
      <point x="170.5" y="-43.099999999999994"/>
      <point x="155.9" y="-46.599999999999994" type="curve"/>
      <point x="175.4" y="-75.7" type="line"/>
      <point x="252.0" y="1.5000000000000009" type="line"/>
      <point x="167.0" y="3.3" type="line"/>
      <point x="98.5" y="-42.8" type="line"/>
      <point x="109.79999999999998" y="-97.8" type="line"/>
      <point x="128.2" y="-92.9"/>
      <point x="152.5" y="-88.9"/>
      <point x="173.79999999999998" y="-89.9" type="curve"/>
      <point x="220.5" y="-92.9"/>
      <point x="231.39999999999998" y="-113.3"/>
      <point x="228.79999999999998" y="-133.4" type="curve"/>
      <point x="225.2" y="-160.7"/>
      <point x="190.6" y="-172.8"/>
      <point x="161.79999999999998" y="-171.5" type="curve"/>
      <point x="134.39999999999998" y="-169.5"/>
      <point x="112.5" y="-157.2"/>
    </contour>
  </outline>
</glyph>
<glyph name="onesuperior" format="2">
  <advance width="276.5"/>
  <unicode hex="00B9"/>
  <outline>
    <contour>
      <point x="94.0" y="673.4" type="line"/>
      <point x="82.29999999999998" y="573.0" type="line"/>
      <point x="144.89999999999998" y="573.0" type="line"/>
      <point x="109.89999999999999" y="283.9" type="line"/>
      <point x="214.70000000000002" y="283.9" type="line"/>
      <point x="261.40000000000003" y="673.4" type="line"/>
    </contour>
  </outline>
</glyph>
<glyph name="ordmasculine" format="2">
  <advance width="376.1"/>
  <unicode hex="00BA"/>
  <outline>
    <contour>
      <point x="75.5" y="584.6999999999999" type="curve"/>
      <point x="63.8" y="490.70000000000005"/>
      <point x="123.19999999999999" y="427.8"/>
      <point x="214.2" y="422.09999999999997" type="curve"/>
      <point x="310.0" y="416.4"/>
      <point x="378.9" y="477.8"/>
      <point x="389.9" y="565.0" type="curve"/>
      <point x="400.6" y="652.2"/>
      <point x="345.70000000000005" y="721.5"/>
      <point x="252.3" y="727.2" type="curve"/>
      <point x="158.9" y="733.2"/>
      <point x="86.19999999999999" y="671.9000000000001"/>
    </contour>
    <contour>
      <point x="161.8" y="578.2" type="curve"/>
      <point x="167.70000000000002" y="621.4"/>
      <point x="201.8" y="655.2"/>
      <point x="242.0" y="652.6" type="curve"/>
      <point x="283.0" y="650.0"/>
      <point x="308.5" y="614.2"/>
      <point x="303.29999999999995" y="569.8" type="curve"/>
      <point x="297.4" y="526.7"/>
      <point x="263.79999999999995" y="494.1"/>
      <point x="222.4" y="496.7" type="curve"/>
      <point x="183.5" y="499.3"/>
      <point x="156.9" y="534.8000000000001"/>
    </contour>
  </outline>
</glyph>
<glyph name="guillemetright" format="2">
  <advance width="610.3000000000001"/>
  <unicode hex="00BB"/>
  <outline>
    <contour>
      <point x="436.90000000000003" y="242.8" type="curve"/>
      <point x="287.6" y="47.39999999999999" type="line"/>
      <point x="273.9" y="161.50000000000003" type="line"/>
      <point x="282.9" y="172.3"/>
      <point x="318.0" y="232.0"/>
      <point x="327.0" y="242.8" type="curve"/>
      <point x="315.29999999999995" y="253.60000000000002"/>
      <point x="265.09999999999997" y="312.3"/>
      <point x="253.39999999999998" y="323.1" type="curve"/>
      <point x="239.7" y="437.5" type="line"/>
      <point x="253.8" y="425.5"/>
      <point x="422.8" y="254.79999999999998"/>
    </contour>
    <contour>
      <point x="263.5" y="242.8" type="curve"/>
      <point x="113.5" y="47.39999999999999" type="line"/>
      <point x="99.8" y="161.50000000000003" type="line"/>
      <point x="108.80000000000001" y="172.3"/>
      <point x="144.6" y="232.0"/>
      <point x="153.59999999999997" y="242.8" type="curve"/>
      <point x="141.89999999999998" y="253.60000000000002"/>
      <point x="91.0" y="313.29999999999995"/>
      <point x="79.3" y="323.8" type="curve"/>
      <point x="65.6" y="437.5" type="line"/>
      <point x="79.69999999999999" y="425.5"/>
      <point x="249.4" y="254.79999999999998"/>
    </contour>
  </outline>
</glyph>
<glyph name="onequarter" format="2">
  <advance width="895.9"/>
  <unicode hex="00BC"/>
  <outline>
    <contour>
      <point x="699.2" y="766.4723" type="curve"/>
      <point x="598.1" y="766.4723" type="line"/>
      <point x="471.7" y="510.7482"/>
      <point x="347.0" y="255.7241"/>
      <point x="220.6" y="0.0" type="curve"/>
      <point x="322.0" y="0.0" type="line"/>
      <point x="448.4" y="255.7241"/>
      <point x="572.8" y="510.7482"/>
    </contour>
    <component base="onesuperior"/>
    <component base="foursuperior" xOffset="465.40000000000003" yOffset="-276.29999999999995"/>
  </outline>
</glyph>
<glyph name="questiondown" format="2">
  <advance width="436.5"/>
  <unicode hex="00BF"/>
  <outline>
    <contour>
      <point x="323.50000000000006" y="274.2" type="curve" smooth="yes"/>
      <point x="335.50000000000006" y="372.6" type="line"/>
      <point x="234.8" y="372.6" type="line"/>
      <point x="224.8" y="293.20000000000005" type="line" smooth="yes"/>
      <point x="216.2" y="225.5"/>
      <point x="153.49999999999997" y="196.0"/>
      <point x="116.1" y="170.7" type="curve" smooth="yes"/>
      <point x="39.99999999999999" y="118.6"/>
      <point x="-6.7000000000000135" y="58.2"/>
      <point x="-6.7000000000000135" y="-26.6" type="curve" smooth="yes"/>
      <point x="-6.7000000000000135" y="-125.0"/>
      <point x="66.39999999999999" y="-204.70000000000002"/>
      <point x="169.4" y="-204.70000000000002" type="curve" smooth="yes"/>
      <point x="319.1" y="-204.70000000000002"/>
      <point x="371.90000000000003" y="-98.79999999999998"/>
      <point x="395.9" y="-44.49999999999999" type="curve"/>
      <point x="368.8" y="-33.199999999999996"/>
      <point x="339.7" y="-22.199999999999992"/>
      <point x="312.29999999999995" y="-11.899999999999991" type="curve"/>
      <point x="312.29999999999995" y="-11.899999999999991" type="line"/>
      <point x="285.09999999999997" y="-75.29999999999998"/>
      <point x="255.89999999999998" y="-106.39999999999998"/>
      <point x="181.4" y="-106.39999999999998" type="curve" smooth="yes"/>
      <point x="128.70000000000002" y="-106.39999999999998"/>
      <point x="96.80000000000001" y="-69.0"/>
      <point x="96.80000000000001" y="-18.7" type="curve" smooth="yes"/>
      <point x="96.80000000000001" y="34.2"/>
      <point x="127.00000000000001" y="81.1"/>
      <point x="187.60000000000002" y="124.1" type="curve" smooth="yes"/>
      <point x="254.1" y="170.8"/>
      <point x="312.5" y="186.7"/>
    </contour>
    <contour>
      <point x="308.0" y="544.3000000000001" type="curve" smooth="yes"/>
      <point x="308.0" y="544.3000000000001" type="line" smooth="yes"/>
      <point x="276.7" y="544.3000000000001"/>
      <point x="241.29999999999995" y="518.1"/>
      <point x="241.29999999999995" y="478.59999999999997" type="curve" smooth="yes"/>
      <point x="241.29999999999995" y="447.59999999999997"/>
      <point x="266.79999999999995" y="423.4"/>
      <point x="293.0" y="423.4" type="curve" smooth="yes"/>
      <point x="325.40000000000003" y="423.4"/>
      <point x="361.5" y="452.70000000000005"/>
      <point x="361.5" y="490.5" type="curve" smooth="yes"/>
      <point x="361.5" y="523.2"/>
      <point x="335.6" y="544.3000000000001"/>
    </contour>
  </outline>
</glyph>
<glyph name="AE" format="2">
  <advance width="959.9"/>
  <unicode hex="00C6"/>
  <anchor x="424.9" y="0.0" name="bottom"/>
  <anchor x="696.3" y="728.2" name="top"/>
  <outline>
    <contour>
      <point x="543.6" y="728.2" type="line"/>
      <point x="454.5" y="0.0" type="line"/>
      <point x="870.3" y="0.0" type="line"/>
      <point x="884.0" y="112.10000000000002" type="line"/>
      <point x="584.4" y="112.10000000000002" type="line"/>
      <point x="608.2" y="307.79999999999995" type="line"/>
      <point x="853.1" y="307.79999999999995" type="line"/>
      <point x="866.8" y="419.9" type="line"/>
      <point x="621.6" y="419.9" type="line"/>
      <point x="646.1" y="615.8" type="line"/>
      <point x="931.7" y="615.8" type="line"/>
      <point x="945.4000000000001" y="728.2" type="line"/>
    </contour>
    <contour>
      <point x="541.8000000000001" y="594.6999999999999" type="curve"/>
      <point x="543.6" y="728.2" type="line"/>
      <point x="-16.600000000000005" y="0.0" type="line"/>
      <point x="117.50000000000001" y="0.0" type="line"/>
      <point x="526.7" y="553.8" type="line"/>
      <point x="527.5999999999999" y="555.5999999999999"/>
      <point x="537.1" y="581.2"/>
    </contour>
    <contour>
      <point x="253.8" y="264.0" type="line"/>
      <point x="207.70000000000002" y="171.5" type="line"/>
      <point x="490.9" y="171.5" type="line"/>
      <point x="502.20000000000005" y="264.0" type="line"/>
    </contour>
  </outline>
</glyph>
<glyph name="multiply" format="2">
  <advance width="521.7"/>
  <unicode hex="00D7"/>
  <outline>
    <contour>
      <point x="313.4" y="262.40000000000003" type="curve"/>
      <point x="232.20000000000002" y="354.50000000000006" type="line"/>
      <point x="134.79999999999998" y="265.7" type="line"/>
      <point x="215.0" y="175.0" type="line"/>
      <point x="180.7" y="144.3"/>
      <point x="148.1" y="116.4"/>
      <point x="115.5" y="86.40000000000002" type="curve"/>
      <point x="140.20000000000002" y="58.30000000000001"/>
      <point x="165.2" y="30.200000000000006"/>
      <point x="191.3" y="1.7000000000000004" type="curve"/>
      <point x="222.5" y="30.0"/>
      <point x="256.8" y="59.3"/>
      <point x="288.0" y="88.6" type="curve"/>
      <point x="314.70000000000005" y="58.599999999999994"/>
      <point x="342.1" y="30.0"/>
      <point x="367.8" y="0.0" type="curve"/>
      <point x="466.90000000000003" y="87.10000000000002" type="line"/>
      <point x="440.20000000000005" y="118.10000000000002"/>
      <point x="415.90000000000003" y="148.10000000000002"/>
      <point x="389.20000000000005" y="177.4" type="curve"/>
      <point x="420.4" y="206.70000000000002"/>
      <point x="454.70000000000005" y="237.4"/>
      <point x="485.9" y="265.0" type="curve"/>
      <point x="461.20000000000005" y="293.1"/>
      <point x="437.9" y="323.6"/>
      <point x="413.2" y="351.4" type="curve"/>
      <point x="377.9" y="320.70000000000005"/>
      <point x="347.7" y="293.1"/>
    </contour>
  </outline>
</glyph>
<glyph name="Oslash" format="2">
  <advance width="853.2"/>
  <unicode hex="00D8"/>
  <anchor x="400.5" y="0.0" name="bottom"/>
  <anchor x="490.3" y="728.2" name="top"/>
  <anchor x="461.2" y="350.0" name="center"/>
  <anchor x="582.7" y="7.900000000000002" name="ogonek"/>
  <anchor x="49.599999999999994" y="700.0" name="topleft"/>
  <anchor x="715.9" y="588.7" name="topright"/>
  <outline>
    <contour>
      <point x="842.0" y="682.2" type="line"/>
      <point x="792.0" y="733.9" type="line"/>
      <point x="103.7" y="32.800000000000004" type="line"/>
      <point x="155.10000000000002" y="-17.900000000000006" type="line"/>
    </contour>
    <component base="O"/>
  </outline>
</glyph>
<glyph name="Thorn" format="2">
  <advance width="596.9"/>
  <unicode hex="00DE"/>
  <outline>
    <contour>
      <point x="350.1" y="598.0" type="curve" smooth="yes"/>
      <point x="265.40000000000003" y="598.0" type="line"/>
      <point x="279.20000000000005" y="711.0" type="line"/>
      <point x="159.2" y="711.0" type="line"/>
      <point x="71.5" y="0.0" type="line"/>
      <point x="191.5" y="0.0" type="line"/>
      <point x="206.70000000000002" y="122.6" type="line"/>
      <point x="308.70000000000005" y="122.6" type="line" smooth="yes"/>
      <point x="511.30000000000007" y="122.6"/>
      <point x="588.3000000000001" y="270.8"/>
      <point x="588.3000000000001" y="393.0" type="curve" smooth="yes"/>
      <point x="588.3000000000001" y="522.6"/>
      <point x="495.40000000000003" y="598.0"/>
    </contour>
    <contour>
      <point x="318.2" y="235.4" type="curve" smooth="yes"/>
      <point x="220.40000000000003" y="235.4" type="line"/>
      <point x="251.0" y="485.9" type="line"/>
      <point x="349.8" y="485.9" type="line" smooth="yes"/>
      <point x="439.40000000000003" y="485.9"/>
      <point x="466.6" y="422.4"/>
      <point x="466.6" y="376.5" type="curve" smooth="yes"/>
      <point x="466.6" y="327.20000000000005"/>
      <point x="430.0" y="235.4"/>
    </contour>
  </outline>
</glyph>
<glyph name="germandbls" format="2">
  <advance width="617.6"/>
  <unicode hex="00DF"/>
  <outline>
    <contour>
      <point x="352.70000000000005" y="-6.4" type="curve" smooth="yes"/>
      <point x="507.6" y="-10.900000000000002"/>
      <point x="561.5" y="113.70000000000002"/>
      <point x="565.7" y="212.9" type="curve" smooth="yes"/>
      <point x="569.3000000000001" y="309.0"/>
      <point x="533.0" y="364.09999999999997"/>
      <point x="473.20000000000005" y="393.8" type="curve"/>
      <point x="535.0" y="418.5"/>
      <point x="558.5" y="470.9"/>
      <point x="558.5" y="520.8" type="curve" smooth="yes"/>
      <point x="558.5" y="609.8000000000001"/>
      <point x="495.70000000000005" y="666.4"/>
      <point x="389.1" y="667.9" type="curve"/>
      <point x="261.2" y="668.8"/>
      <point x="164.0" y="604.7"/>
      <point x="144.2" y="475.90000000000003" type="curve" smooth="yes"/>
      <point x="136.9" y="428.40000000000003" type="line"/>
      <point x="71.9" y="428.40000000000003" type="line"/>
      <point x="54.39999999999999" y="336.6" type="line"/>
      <point x="119.39999999999999" y="336.6" type="line"/>
      <point x="60.3" y="0.0" type="line"/>
      <point x="172.70000000000002" y="0.0" type="line"/>
      <point x="247.10000000000002" y="421.4" type="line" smooth="yes"/>
      <point x="263.8" y="517.7"/>
      <point x="297.5" y="577.3"/>
      <point x="372.9" y="576.1" type="curve" smooth="yes"/>
      <point x="422.4" y="574.9"/>
      <point x="444.0" y="550.0"/>
      <point x="444.0" y="511.40000000000003" type="curve" smooth="yes"/>
      <point x="444.0" y="479.7"/>
      <point x="422.3" y="435.7"/>
      <point x="365.3" y="440.3" type="curve"/>
      <point x="354.0" y="342.7" type="line"/>
      <point x="359.40000000000003" y="342.0" type="line"/>
      <point x="422.0" y="339.5"/>
      <point x="458.3" y="292.6"/>
      <point x="453.59999999999997" y="219.3" type="curve" smooth="yes"/>
      <point x="450.6" y="168.00000000000003"/>
      <point x="421.6" y="78.50000000000001"/>
      <point x="349.5" y="78.50000000000001" type="curve" smooth="yes"/>
      <point x="330.5" y="78.50000000000001"/>
      <point x="299.1" y="88.50000000000001"/>
      <point x="279.8" y="107.10000000000002" type="curve"/>
      <point x="231.9" y="37.50000000000001" type="line"/>
      <point x="255.8" y="10.200000000000003"/>
      <point x="307.5" y="-6.4"/>
    </contour>
  </outline>
</glyph>
<glyph name="ae" format="2">
  <advance width="818.0"/>
  <unicode hex="00E6"/>
  <anchor x="383.4" y="0.0" name="bottom"/>
  <anchor x="435.6" y="423.20000000000005" name="top"/>
  <outline>
    <contour>
      <point x="545.1" y="-10.8" type="curve" smooth="yes"/>
      <point x="591.9" y="-11.700000000000001"/>
      <point x="645.3000000000001" y="2.4999999999999982"/>
      <point x="690.1" y="26.3" type="curve"/>
      <point x="649.8000000000001" y="112.00000000000001" type="line"/>
      <point x="620.3000000000001" y="94.00000000000001"/>
      <point x="589.5" y="84.20000000000002"/>
      <point x="557.0" y="84.80000000000003" type="curve" smooth="yes"/>
      <point x="510.8" y="86.90000000000002"/>
      <point x="426.40000000000003" y="117.9"/>
      <point x="439.9" y="228.3" type="curve"/>
      <point x="450.5" y="304.5"/>
      <point x="501.9" y="354.7"/>
      <point x="568.8000000000001" y="353.2" type="curve" smooth="yes"/>
      <point x="615.2" y="352.0"/>
      <point x="656.2" y="328.79999999999995"/>
      <point x="669.7" y="271.7" type="curve"/>
      <point x="694.3000000000001" y="284.0" type="line"/>
      <point x="398.4" y="227.8" type="line"/>
      <point x="403.1" y="165.5" type="line"/>
      <point x="788.6" y="234.9" type="line"/>
      <point x="774.4" y="401.6"/>
      <point x="667.0" y="439.4"/>
      <point x="585.2" y="441.2" type="curve" smooth="yes"/>
      <point x="456.3" y="443.3"/>
      <point x="343.2" y="352.4"/>
      <point x="328.5" y="229.3" type="curve"/>
      <point x="305.40000000000003" y="33.49999999999999"/>
      <point x="466.09999999999997" y="-8.400000000000002"/>
    </contour>
    <contour>
      <point x="196.5" y="-10.7" type="curve" smooth="yes"/>
      <point x="264.6" y="-10.7"/>
      <point x="328.8" y="10.100000000000005"/>
      <point x="371.90000000000003" y="57.2" type="curve"/>
      <point x="384.90000000000003" y="159.0" type="line"/>
      <point x="340.4" y="177.0" type="line"/>
      <point x="331.8" y="109.30000000000001" type="line"/>
      <point x="309.8" y="85.9"/>
      <point x="270.3" y="67.60000000000001"/>
      <point x="234.4" y="65.9" type="curve" smooth="yes"/>
      <point x="193.20000000000002" y="65.30000000000001"/>
      <point x="156.20000000000002" y="78.80000000000001"/>
      <point x="155.3" y="117.80000000000001" type="curve"/>
      <point x="154.40000000000003" y="144.9"/>
      <point x="172.5" y="177.6"/>
      <point x="233.20000000000002" y="176.1" type="curve" smooth="yes"/>
      <point x="271.6" y="176.39999999999998"/>
      <point x="312.0" y="163.2"/>
      <point x="348.70000000000005" y="130.2" type="curve"/>
      <point x="375.0" y="195.10000000000002" type="line"/>
      <point x="328.8" y="235.60000000000002"/>
      <point x="287.5" y="251.70000000000002"/>
      <point x="215.6" y="253.2" type="curve" smooth="yes"/>
      <point x="79.9" y="255.0"/>
      <point x="30.89999999999999" y="178.0"/>
      <point x="30.89999999999999" y="115.9" type="curve" smooth="yes"/>
      <point x="30.89999999999999" y="30.2"/>
      <point x="117.2" y="-10.7"/>
    </contour>
    <contour>
      <point x="318.0" y="217.6" type="line"/>
      <point x="431.6" y="262.1" type="line"/>
      <point x="434.6" y="282.4" type="line" smooth="yes"/>
      <point x="450.6" y="412.20000000000005"/>
      <point x="322.7" y="439.1"/>
      <point x="261.7" y="440.90000000000003" type="curve" smooth="yes"/>
      <point x="178.7" y="442.1"/>
      <point x="114.79999999999998" y="408.5"/>
      <point x="67.39999999999999" y="366.8" type="curve"/>
      <point x="115.0" y="292.5" type="line"/>
      <point x="144.4" y="323.2"/>
      <point x="186.8" y="350.4"/>
      <point x="235.29999999999998" y="349.5" type="curve" smooth="yes"/>
      <point x="271.7" y="348.6"/>
      <point x="332.9" y="338.40000000000003"/>
      <point x="322.9" y="258.1" type="curve" smooth="yes"/>
    </contour>
  </outline>
</glyph>
<glyph name="ccedilla" format="2">
  <advance width="448.5"/>
  <unicode hex="00E7"/>
  <outline>
    <contour>
      <point x="365.5" y="109.30000000000001" type="curve"/>
      <point x="365.5" y="109.30000000000001" type="line"/>
      <point x="341.5" y="91.50000000000003"/>
      <point x="311.5" y="81.30000000000001"/>
      <point x="277.8" y="81.30000000000001" type="curve" smooth="yes"/>
      <point x="206.10000000000002" y="81.30000000000001"/>
      <point x="160.8" y="132.70000000000002"/>
      <point x="160.8" y="198.2" type="curve" smooth="yes"/>
      <point x="160.8" y="279.70000000000005"/>
      <point x="224.8" y="342.5"/>
      <point x="310.4" y="342.5" type="curve" smooth="yes"/>
      <point x="343.09999999999997" y="342.5"/>
      <point x="371.5" y="332.29999999999995"/>
      <point x="390.9" y="314.90000000000003" type="curve"/>
      <point x="414.2" y="339.2"/>
      <point x="437.1" y="361.8"/>
      <point x="459.70000000000005" y="385.1" type="curve"/>
      <point x="423.5" y="415.20000000000005"/>
      <point x="377.0" y="434.3"/>
      <point x="321.40000000000003" y="434.3" type="curve" smooth="yes"/>
      <point x="186.8" y="434.3"/>
      <point x="66.6" y="322.5"/>
      <point x="66.6" y="189.7" type="curve" smooth="yes"/>
      <point x="66.6" y="79.3"/>
      <point x="151.0" y="-10.8"/>
      <point x="266.5" y="-10.8" type="curve" smooth="yes"/>
      <point x="320.7" y="-10.8"/>
      <point x="372.3" y="8.299999999999999"/>
      <point x="414.1" y="38.699999999999996" type="curve"/>
      <point x="397.0" y="62.7"/>
      <point x="383.3" y="85.30000000000001"/>
    </contour>
    <contour>
      <point x="272.1" y="-7.7" type="curve" smooth="yes"/>
      <point x="273.1" y="0.0" type="line"/>
      <point x="212.3" y="0.0" type="line"/>
      <point x="209.3" y="-22.900000000000002" type="line" smooth="yes"/>
      <point x="201.9" y="-88.7"/>
      <point x="263.5" y="-83.3"/>
      <point x="263.5" y="-128.0" type="curve" smooth="yes"/>
      <point x="263.5" y="-158.5"/>
      <point x="245.0" y="-186.29999999999998"/>
      <point x="210.3" y="-186.29999999999998" type="curve" smooth="yes"/>
      <point x="185.9" y="-186.29999999999998"/>
      <point x="169.8" y="-171.1"/>
      <point x="166.8" y="-151.0" type="curve"/>
      <point x="147.7" y="-160.3"/>
      <point x="127.60000000000001" y="-170.20000000000002"/>
      <point x="108.5" y="-179.8" type="curve"/>
      <point x="120.6" y="-234.3"/>
      <point x="162.3" y="-260.5"/>
      <point x="210.0" y="-260.5" type="curve" smooth="yes"/>
      <point x="292.40000000000003" y="-260.5"/>
      <point x="337.0" y="-193.8"/>
      <point x="337.0" y="-130.6" type="curve" smooth="yes"/>
      <point x="337.0" y="-103.3"/>
      <point x="328.0" y="-79.0"/>
      <point x="307.8" y="-61.7" type="curve" smooth="yes"/>
      <point x="292.5" y="-48.300000000000004"/>
      <point x="267.1" y="-46.50000000000001"/>
    </contour>
  </outline>
</glyph>
<glyph name="eth" format="2">
  <advance width="555.7"/>
  <unicode hex="00F0"/>
  <outline>
    <contour>
      <point x="257.6" y="-9.5" type="curve" smooth="yes"/>
      <point x="445.40000000000003" y="-10.400000000000002"/>
      <point x="520.5" y="154.8"/>
      <point x="522.3" y="305.3" type="curve" smooth="yes"/>
      <point x="523.8000000000001" y="462.8"/>
      <point x="451.00000000000006" y="646.5"/>
      <point x="298.90000000000003" y="776.8000000000001" type="curve"/>
      <point x="207.6" y="707.9" type="line"/>
      <point x="344.9" y="579.0"/>
      <point x="422.6" y="452.90000000000003"/>
      <point x="401.6" y="246.5" type="curve"/>
      <point x="440.4" y="231.79999999999998" type="line"/>
      <point x="447.9" y="375.59999999999997"/>
      <point x="350.3" y="442.3"/>
      <point x="264.1" y="442.9" type="curve" smooth="yes"/>
      <point x="124.0" y="444.1"/>
      <point x="47.99999999999999" y="330.6"/>
      <point x="44.0" y="228.4" type="curve" smooth="yes"/>
      <point x="35.49999999999999" y="29.09999999999999"/>
      <point x="187.60000000000002" y="-8.900000000000002"/>
    </contour>
    <contour>
      <point x="268.1" y="82.00000000000001" type="curve" smooth="yes"/>
      <point x="223.3" y="82.60000000000002"/>
      <point x="150.60000000000002" y="110.9"/>
      <point x="151.90000000000003" y="206.4" type="curve" smooth="yes"/>
      <point x="152.8" y="263.5"/>
      <point x="189.9" y="349.9"/>
      <point x="282.1" y="349.4" type="curve" smooth="yes"/>
      <point x="317.1" y="349.09999999999997"/>
      <point x="408.59999999999997" y="326.3"/>
      <point x="397.9" y="213.1" type="curve" smooth="yes"/>
      <point x="391.7" y="149.9"/>
      <point x="347.79999999999995" y="82.80000000000001"/>
    </contour>
    <contour>
      <point x="504.8" y="660.0" type="line"/>
      <point x="477.70000000000005" y="736.1" type="line"/>
      <point x="206.20000000000002" y="595.8000000000001" type="line"/>
      <point x="234.20000000000002" y="519.0" type="line"/>
    </contour>
  </outline>
</glyph>
<glyph name="divide" format="2">
  <advance width="507.90000000000003"/>
  <unicode hex="00F7"/>
  <outline>
    <contour>
      <point x="207.6" y="102.4" type="curve" smooth="yes"/>
      <point x="207.6" y="102.4" type="line" smooth="yes"/>
      <point x="207.6" y="69.7"/>
      <point x="233.5" y="48.3"/>
      <point x="261.70000000000005" y="48.3" type="curve" smooth="yes"/>
      <point x="291.6" y="48.3"/>
      <point x="328.1" y="74.8"/>
      <point x="328.1" y="114.7" type="curve" smooth="yes"/>
      <point x="328.1" y="146.0"/>
      <point x="302.2" y="170.20000000000002"/>
      <point x="276.0" y="170.20000000000002" type="curve" smooth="yes"/>
      <point x="243.7" y="170.20000000000002"/>
      <point x="207.6" y="140.9"/>
    </contour>
    <contour>
      <point x="244.79999999999998" y="403.0" type="curve" smooth="yes"/>
      <point x="244.79999999999998" y="403.0" type="line" smooth="yes"/>
      <point x="244.79999999999998" y="370.3"/>
      <point x="270.0" y="349.20000000000005"/>
      <point x="297.9" y="349.20000000000005" type="curve" smooth="yes"/>
      <point x="328.8" y="349.20000000000005"/>
      <point x="365.3" y="375.40000000000003"/>
      <point x="365.3" y="415.6" type="curve" smooth="yes"/>
      <point x="365.3" y="446.6"/>
      <point x="339.4" y="470.80000000000007"/>
      <point x="313.2" y="470.80000000000007" type="curve" smooth="yes"/>
      <point x="280.2" y="470.80000000000007"/>
      <point x="244.79999999999998" y="441.50000000000006"/>
    </contour>
    <contour>
      <point x="107.0" y="305.90000000000003" type="line"/>
      <point x="94.7" y="208.3" type="line"/>
      <point x="460.2" y="208.3" type="line"/>
      <point x="472.5" y="305.90000000000003" type="line"/>
    </contour>
  </outline>
</glyph>
<glyph name="oslash" format="2">
  <advance width="528.9000000000001"/>
  <unicode hex="00F8"/>
  <anchor x="264.2" y="0.0" name="bottom"/>
  <anchor x="269.3" y="236.20000000000002" name="center"/>
  <anchor x="378.1" y="6.700000000000003" name="ogonek"/>
  <anchor x="289.9" y="433.5" name="top"/>
  <anchor x="416.4" y="349.6" name="topright"/>
  <outline>
    <contour>
      <point x="525.9" y="412.8" type="curve"/>
      <point x="481.4" y="452.1" type="line"/>
      <point x="424.8" y="394.20000000000005"/>
      <point x="100.0" y="71.0"/>
      <point x="43.7" y="13.100000000000001" type="curve"/>
      <point x="85.10000000000001" y="-28.900000000000006" type="line"/>
      <point x="142.1" y="29.999999999999986"/>
      <point x="467.90000000000003" y="353.90000000000003"/>
    </contour>
    <component base="o"/>
  </outline>
</glyph>
<glyph name="thorn" format="2">
  <advance width="573.7"/>
  <unicode hex="00FE"/>
  <outline>
    <contour>
      <point x="241.3" y="780.3000000000001" type="line"/>
      <point x="146.8" y="780.3000000000001" type="line"/>
      <point x="25.89999999999999" y="-203.4" type="line"/>
      <point x="120.10000000000001" y="-203.4" type="line"/>
      <point x="152.5" y="55.199999999999974" type="line"/>
      <point x="147.8" y="48.49999999999998" type="line"/>
      <point x="163.60000000000002" y="20.199999999999992"/>
      <point x="214.8" y="-10.8"/>
      <point x="280.8" y="-10.8" type="curve" smooth="yes"/>
      <point x="423.0" y="-10.8"/>
      <point x="532.8000000000001" y="76.1"/>
      <point x="532.8000000000001" y="240.70000000000002" type="curve" smooth="yes"/>
      <point x="532.8000000000001" y="360.70000000000005"/>
      <point x="457.7" y="434.3"/>
      <point x="340.5" y="434.3" type="curve" smooth="yes"/>
      <point x="266.2" y="434.3"/>
      <point x="210.9" y="396.0"/>
      <point x="186.70000000000002" y="368.40000000000003" type="curve"/>
      <point x="187.60000000000002" y="344.70000000000005" type="line"/>
    </contour>
    <contour>
      <point x="430.0" y="229.70000000000002" type="curve" smooth="yes"/>
      <point x="430.0" y="141.10000000000002"/>
      <point x="373.9" y="81.30000000000001"/>
      <point x="287.6" y="81.30000000000001" type="curve" smooth="yes"/>
      <point x="216.60000000000002" y="81.30000000000001"/>
      <point x="170.3" y="132.0"/>
      <point x="170.3" y="198.2" type="curve" smooth="yes"/>
      <point x="170.3" y="279.70000000000005"/>
      <point x="236.0" y="342.5"/>
      <point x="319.9" y="342.5" type="curve" smooth="yes"/>
      <point x="389.90000000000003" y="342.5"/>
      <point x="430.0" y="294.59999999999997"/>
    </contour>
  </outline>
</glyph>
<glyph name="dcroat" format="2">
  <advance width="575.2"/>
  <unicode hex="0111"/>
  <anchor x="304.8" y="0.0" name="bottom"/>
  <anchor x="363.0" y="324.09999999999997" name="center"/>
  <anchor x="315.0" y="472.40000000000003" name="top"/>
  <anchor x="640.6" y="550.0999999999999" name="topright"/>
  <outline>
    <contour>
      <point x="334.1" y="684.7" type="line"/>
      <point x="324.5" y="604.3" type="line"/>
      <point x="626.5" y="604.3" type="line"/>
      <point x="636.4" y="684.7" type="line"/>
    </contour>
    <component base="d"/>
  </outline>
</glyph>
<glyph name="eogonek" format="2">
  <advance width="529.2"/>
  <unicode hex="0119"/>
  <outline>
    <contour>
      <point x="292.4" y="-199.4" type="curve"/>
      <point x="335.70000000000005" y="-201.5"/>
      <point x="389.90000000000003" y="-175.1"/>
      <point x="420.8" y="-135.4" type="curve"/>
      <point x="386.4" y="-76.39999999999998" type="line"/>
      <point x="363.09999999999997" y="-105.89999999999999"/>
      <point x="339.0" y="-122.1"/>
      <point x="312.0" y="-120.69999999999999" type="curve"/>
      <point x="288.09999999999997" y="-119.69999999999999"/>
      <point x="266.6" y="-102.89999999999999"/>
      <point x="269.7" y="-72.1" type="curve"/>
      <point x="271.8" y="-43.3"/>
      <point x="297.3" y="-20.2"/>
      <point x="338.5" y="1.1999999999999957" type="curve" smooth="yes"/>
      <point x="357.4" y="9.899999999999997"/>
      <point x="379.8" y="17.9"/>
      <point x="404.20000000000005" y="26.3" type="curve"/>
      <point x="363.9" y="112.70000000000002" type="line"/>
      <point x="336.70000000000005" y="96.00000000000001"/>
      <point x="308.8" y="84.80000000000003"/>
      <point x="278.90000000000003" y="84.80000000000003" type="curve" smooth="yes"/>
      <point x="218.00000000000003" y="84.80000000000003"/>
      <point x="152.3" y="122.00000000000001"/>
      <point x="152.3" y="219.0" type="curve" smooth="yes"/>
      <point x="152.3" y="287.8"/>
      <point x="196.9" y="352.5"/>
      <point x="283.7" y="352.5" type="curve" smooth="yes"/>
      <point x="332.5" y="352.5"/>
      <point x="370.4" y="320.9"/>
      <point x="383.8" y="271.7" type="curve"/>
      <point x="423.2" y="285.2" type="line"/>
      <point x="132.10000000000002" y="204.9" type="line"/>
      <point x="149.90000000000003" y="140.7" type="line"/>
      <point x="503.4" y="234.9" type="line"/>
      <point x="480.00000000000006" y="396.6"/>
      <point x="386.8" y="440.5"/>
      <point x="287.2" y="440.5" type="curve" smooth="yes"/>
      <point x="117.29999999999998" y="440.5"/>
      <point x="40.199999999999996" y="311.70000000000005"/>
      <point x="40.199999999999996" y="206.3" type="curve" smooth="yes"/>
      <point x="40.199999999999996" y="65.0"/>
      <point x="131.0" y="-9.8"/>
      <point x="266.9" y="-9.8" type="curve" smooth="yes"/>
      <point x="286.5" y="-2.199999999999999"/>
      <point x="309.9" y="8.200000000000001"/>
      <point x="328.59999999999997" y="19.1" type="curve"/>
      <point x="277.9" y="40.800000000000004" type="line"/>
      <point x="203.69999999999996" y="13.700000000000003"/>
      <point x="175.89999999999998" y="-46.300000000000004"/>
      <point x="175.89999999999998" y="-88.3" type="curve"/>
      <point x="175.89999999999998" y="-152.2"/>
      <point x="226.09999999999997" y="-195.3"/>
    </contour>
  </outline>
</glyph>
<glyph name="gcommaaccent" format="2">
  <advance width="614.7"/>
  <unicode hex="0123"/>
  <anchor x="380.3" y="722.1" name="bottom"/>
  <anchor x="329.20000000000005" y="472.40000000000003" name="top"/>
  <outline>
    <contour>
      <point x="365.09999999999997" y="688.5000000000001" type="line"/>
      <point x="306.70000000000005" y="652.5000000000001"/>
      <point x="275.20000000000005" y="572.0"/>
      <point x="283.79999999999995" y="515.9000000000001" type="curve"/>
      <point x="382.4" y="514.9000000000001" type="line"/>
      <point x="375.5" y="564.3"/>
      <point x="390.70000000000005" y="622.1"/>
      <point x="422.40000000000003" y="649.2" type="curve"/>
    </contour>
    <component base="g"/>
  </outline>
</glyph>
<glyph name="Hbar" format="2">
  <advance width="949.8"/>
  <unicode hex="0126"/>
  <anchor x="435.5" y="0.0" name="bottom"/>
  <anchor x="476.1" y="357.9" name="center"/>
  <anchor x="516.7" y="731.3" name="top"/>
  <anchor x="42.29999999999998" y="700.0" name="topleft"/>
  <outline>
    <contour>
      <point x="143.8" y="583.8000000000001" type="line"/>
      <point x="136.3" y="520.9" type="line"/>
      <point x="883.7" y="520.9" type="line"/>
      <point x="891.2" y="583.8000000000001" type="line"/>
    </contour>
    <component base="H" xOffset="69.1"/>
  </outline>
</glyph>
<glyph name="Iogonek" format="2">
  <advance width="313.20000000000005"/>
  <unicode hex="012E"/>
  <outline>
    <contour>
      <point x="92.5" y="-221.5" type="curve"/>
      <point x="135.8" y="-223.9"/>
      <point x="190.0" y="-197.2"/>
      <point x="220.9" y="-157.5" type="curve"/>
      <point x="186.5" y="-98.5" type="line"/>
      <point x="163.2" y="-128.3"/>
      <point x="139.10000000000002" y="-144.2"/>
      <point x="112.4" y="-142.79999999999998" type="curve"/>
      <point x="88.2" y="-141.8"/>
      <point x="66.70000000000002" y="-128.8"/>
      <point x="69.80000000000001" y="-94.19999999999999" type="curve"/>
      <point x="73.60000000000001" y="-53.099999999999994"/>
      <point x="121.4" y="-27.499999999999996"/>
      <point x="192.20000000000002" y="0.0" type="curve"/>
      <point x="281.3" y="728.2" type="line"/>
      <point x="161.3" y="728.2" type="line"/>
      <point x="72.19999999999999" y="0.0" type="line"/>
      <point x="78.8" y="22.6" type="line"/>
      <point x="5.799999999999983" y="-4.399999999999999"/>
      <point x="-24.000000000000007" y="-69.0"/>
      <point x="-24.000000000000007" y="-110.7" type="curve"/>
      <point x="-24.000000000000007" y="-174.3"/>
      <point x="26.199999999999996" y="-217.4"/>
    </contour>
  </outline>
</glyph>
<glyph name="iogonek" format="2">
  <advance width="253.5"/>
  <unicode hex="012F"/>
  <outline>
    <contour>
      <point x="78.6" y="-221.5" type="curve"/>
      <point x="121.60000000000001" y="-223.9"/>
      <point x="175.8" y="-197.2"/>
      <point x="206.70000000000002" y="-157.5" type="curve"/>
      <point x="172.3" y="-98.5" type="line"/>
      <point x="149.0" y="-128.3"/>
      <point x="124.9" y="-144.2"/>
      <point x="98.2" y="-142.79999999999998" type="curve"/>
      <point x="74.00000000000001" y="-141.8"/>
      <point x="52.50000000000001" y="-128.8"/>
      <point x="55.600000000000016" y="-94.19999999999999" type="curve"/>
      <point x="58.70000000000001" y="-55.199999999999996"/>
      <point x="99.30000000000001" y="-27.499999999999996"/>
      <point x="162.10000000000002" y="0.2999999999999998" type="curve"/>
      <point x="214.0" y="423.20000000000005" type="line"/>
      <point x="101.89999999999999" y="423.20000000000005" type="line"/>
      <point x="49.699999999999996" y="0.0" type="line"/>
      <point x="152.10000000000002" y="1.4999999999999991" type="line"/>
      <point x="60.8" y="13.3" type="line"/>
      <point x="-12.200000000000014" y="-12.3"/>
      <point x="-38.2" y="-71.4"/>
      <point x="-38.2" y="-110.7" type="curve"/>
      <point x="-38.2" y="-174.3"/>
      <point x="11.999999999999996" y="-217.4"/>
    </contour>
    <component base="dotaccentcomb" xOffset="-24.200000000000006" yOffset="-31.30000000000001"/>
  </outline>
</glyph>
<glyph name="idotless" format="2">
  <advance width="266.3"/>
  <unicode hex="0131"/>
  <anchor x="98.7" y="0.0" name="bottom"/>
  <anchor x="127.4" y="10.0" name="ogonek"/>
  <anchor x="156.9" y="423.20000000000005" name="top"/>
  <outline>
    <contour>
      <point x="103.19999999999999" y="423.20000000000005" type="line"/>
      <point x="51.0" y="0.0" type="line"/>
      <point x="163.10000000000002" y="0.0" type="line"/>
      <point x="215.3" y="423.20000000000005" type="line"/>
    </contour>
  </outline>
</glyph>
<glyph name="kgreenlandic" format="2">
  <advance width="529.0"/>
  <unicode hex="0138"/>
  <outline>
    <contour>
      <point x="169.60000000000002" y="121.7" type="line"/>
      <point x="513.8000000000001" y="423.20000000000005" type="line"/>
      <point x="378.2" y="423.20000000000005" type="line"/>
      <point x="165.20000000000002" y="220.70000000000002" type="line"/>
    </contour>
    <contour>
      <point x="163.10000000000002" y="0.0" type="line"/>
      <point x="215.3" y="423.20000000000005" type="line"/>
      <point x="103.19999999999999" y="423.20000000000005" type="line"/>
      <point x="51.0" y="0.0" type="line"/>
    </contour>
    <contour>
      <point x="295.3" y="244.10000000000002" type="line"/>
      <point x="204.0" y="194.9" type="line"/>
      <point x="331.09999999999997" y="0.0" type="line"/>
      <point x="460.6" y="0.0" type="line"/>
    </contour>
  </outline>
</glyph>
<glyph name="Lslash" format="2">
  <advance width="620.2"/>
  <unicode hex="0141"/>
  <anchor x="299.2" y="0.0" name="bottom"/>
  <anchor x="387.4" y="364.09999999999997" name="center"/>
  <anchor x="217.4" y="743.7" name="top"/>
  <anchor x="655.4000000000001" y="728.2" name="topright"/>
  <outline>
    <contour>
      <point x="474.40000000000003" y="457.9" type="line"/>
      <point x="58.3" y="334.3" type="line"/>
      <point x="46.0" y="237.0" type="line"/>
      <point x="462.1" y="360.6" type="line"/>
    </contour>
    <component base="L"/>
  </outline>
</glyph>
<glyph name="lslash" format="2">
  <advance width="284.8"/>
  <unicode hex="0142"/>
  <anchor x="121.00000000000001" y="0.0" name="bottom"/>
  <anchor x="147.10000000000002" y="282.3" name="center"/>
  <anchor x="204.3" y="770.3000000000001" name="top"/>
  <anchor x="338.1" y="739.0" name="topright"/>
  <outline>
    <contour>
      <point x="300.3" y="398.9" type="line"/>
      <point x="37.3" y="334.3" type="line"/>
      <point x="25.69999999999999" y="237.0" type="line"/>
      <point x="289.0" y="301.6" type="line"/>
    </contour>
    <component base="l" xOffset="10.000000000000002"/>
  </outline>
</glyph>
<glyph name="Eng" format="2">
  <advance width="804.1"/>
  <unicode hex="014A"/>
  <anchor x="388.5" y="0.0" name="bottom"/>
  <anchor x="455.9" y="700.0" name="top"/>
  <outline>
    <contour>
      <point x="564.2" y="-204.10000000000002" type="line"/>
      <point x="644.0" y="-162.5"/>
      <point x="685.5" y="-93.6"/>
      <point x="696.9000000000001" y="-1.4999999999999991" type="curve" smooth="yes"/>
      <point x="786.6999999999999" y="728.2" type="line"/>
      <point x="669.8" y="728.2" type="line"/>
      <point x="609.9" y="219.40000000000003" type="line"/>
      <point x="635.6999999999999" y="208.10000000000005" type="line"/>
      <point x="152.29999999999998" y="753.0" type="line"/>
      <point x="147.5" y="753.0" type="line"/>
      <point x="54.999999999999986" y="0.0" type="line"/>
      <point x="172.60000000000002" y="0.0" type="line"/>
      <point x="231.5" y="502.2" type="line"/>
      <point x="199.3" y="518.7" type="line"/>
      <point x="689.3" y="-23.400000000000006" type="line"/>
      <point x="601.3" y="129.70000000000002" type="line"/>
      <point x="586.2" y="3.8000000000000043" type="line" smooth="yes"/>
      <point x="579.5" y="-58.7"/>
      <point x="551.4" y="-104.6"/>
      <point x="508.09999999999997" y="-134.5" type="curve"/>
    </contour>
  </outline>
</glyph>
<glyph name="eng" format="2">
  <advance width="570.1"/>
  <unicode hex="014B"/>
  <outline>
    <contour>
      <point x="467.3" y="4.000000000000002" type="curve" smooth="yes"/>
      <point x="505.40000000000003" y="314.40000000000003" type="line" smooth="yes"/>
      <point x="512.7" y="389.3"/>
      <point x="461.0" y="441.2"/>
      <point x="380.20000000000005" y="441.2" type="curve" smooth="yes"/>
      <point x="300.1" y="441.2"/>
      <point x="239.20000000000002" y="403.0"/>
      <point x="203.40000000000003" y="346.5" type="curve"/>
      <point x="205.70000000000002" y="329.9" type="line"/>
      <point x="204.40000000000003" y="423.20000000000005" type="line"/>
      <point x="103.19999999999999" y="423.20000000000005" type="line"/>
      <point x="51.7" y="0.0" type="line"/>
      <point x="163.8" y="0.0" type="line"/>
      <point x="187.0" y="187.29999999999998" type="line" smooth="yes"/>
      <point x="197.70000000000002" y="278.8"/>
      <point x="253.3" y="345.3"/>
      <point x="323.4" y="345.3" type="curve" smooth="yes"/>
      <point x="372.6" y="345.3"/>
      <point x="391.70000000000005" y="317.0"/>
      <point x="388.5" y="274.40000000000003" type="curve" smooth="yes"/>
      <point x="355.2" y="3.8000000000000043" type="line" smooth="yes"/>
      <point x="347.2" y="-58.7"/>
      <point x="321.1" y="-104.6"/>
      <point x="277.8" y="-134.5" type="curve"/>
      <point x="334.2" y="-204.10000000000002" type="line"/>
      <point x="413.0" y="-162.5"/>
      <point x="456.2" y="-88.1"/>
    </contour>
  </outline>
</glyph>
<glyph name="OE" format="2">
  <advance width="1013.8000000000001"/>
  <unicode hex="0152"/>
  <outline>
    <contour>
      <point x="563.3000000000001" y="614.4" type="curve"/>
      <point x="615.4000000000001" y="723.2" type="line"/>
      <point x="586.7" y="731.2"/>
      <point x="555.3" y="736.2"/>
      <point x="522.6" y="736.2" type="curve" smooth="yes"/>
      <point x="288.7" y="736.2"/>
      <point x="103.1" y="552.2"/>
      <point x="103.1" y="325.40000000000003" type="curve" smooth="yes"/>
      <point x="103.1" y="139.5"/>
      <point x="241.6" y="-8.0"/>
      <point x="431.5" y="-8.0" type="curve" smooth="yes"/>
      <point x="463.2" y="-8.0"/>
      <point x="493.2" y="-4.0"/>
      <point x="523.9" y="3.7" type="curve"/>
      <point x="505.40000000000003" y="111.70000000000002" type="line"/>
      <point x="486.3" y="107.10000000000002"/>
      <point x="467.5" y="105.10000000000002"/>
      <point x="448.4" y="105.10000000000002" type="curve" smooth="yes"/>
      <point x="318.40000000000003" y="105.10000000000002"/>
      <point x="223.8" y="207.4"/>
      <point x="223.8" y="336.4" type="curve" smooth="yes"/>
      <point x="223.8" y="497.79999999999995"/>
      <point x="344.9" y="620.6999999999999"/>
      <point x="508.9" y="620.6999999999999" type="curve" smooth="yes"/>
      <point x="528.0" y="620.6999999999999"/>
      <point x="545.8" y="618.4"/>
    </contour>
    <contour>
      <point x="570.3" y="728.2" type="line"/>
      <point x="481.2" y="0.0" type="line"/>
      <point x="948.0" y="0.0" type="line"/>
      <point x="961.7" y="111.40000000000002" type="line"/>
      <point x="614.9" y="111.40000000000002" type="line"/>
      <point x="639.4" y="309.5" type="line"/>
      <point x="931.5" y="309.5" type="line"/>
      <point x="944.5" y="419.9" type="line"/>
      <point x="652.1" y="419.9" type="line"/>
      <point x="677.3000000000001" y="619.9" type="line"/>
      <point x="1010.1" y="619.9" type="line"/>
      <point x="1023.1" y="728.2" type="line"/>
    </contour>
  </outline>
</glyph>
<glyph name="oe" format="2">
  <advance width="813.7"/>
  <unicode hex="0153"/>
  <anchor x="361.3" y="0.0" name="bottom"/>
  <anchor x="413.5" y="423.20000000000005" name="top"/>
  <anchor x="664.8" y="28.200000000000003" name="ogonek"/>
  <outline>
    <contour>
      <point x="262.4" y="-11.8" type="curve" smooth="yes"/>
      <point x="313.0" y="-11.8"/>
      <point x="368.2" y="2.899999999999999"/>
      <point x="407.0" y="28.0" type="curve"/>
      <point x="359.1" y="102.00000000000001" type="line"/>
      <point x="337.40000000000003" y="87.50000000000001"/>
      <point x="311.70000000000005" y="79.30000000000001"/>
      <point x="282.0" y="79.30000000000001" type="curve" smooth="yes"/>
      <point x="204.0" y="79.30000000000001"/>
      <point x="154.0" y="132.60000000000002"/>
      <point x="154.0" y="199.8" type="curve" smooth="yes"/>
      <point x="154.0" y="281.0"/>
      <point x="215.8" y="339.8"/>
      <point x="284.40000000000003" y="339.8" type="curve" smooth="yes"/>
      <point x="330.3" y="339.8"/>
      <point x="363.9" y="319.6"/>
      <point x="384.3" y="301.7" type="curve"/>
      <point x="448.9" y="370.20000000000005" type="line"/>
      <point x="411.70000000000005" y="405.9"/>
      <point x="356.6" y="432.3"/>
      <point x="277.2" y="432.3" type="curve" smooth="yes"/>
      <point x="122.8" y="432.3"/>
      <point x="40.9" y="306.6"/>
      <point x="40.9" y="192.2" type="curve" smooth="yes"/>
      <point x="40.9" y="34.39999999999999"/>
      <point x="181.9" y="-11.8"/>
    </contour>
    <component base="e" xOffset="278.8"/>
  </outline>
</glyph>
<glyph name="uring" format="2">
  <advance width="564.2"/>
  <unicode hex="016F"/>
  <anchor x="277.5" y="-15.500000000000005" name="bottom"/>
  <anchor x="438.70000000000005" y="8.600000000000001" name="ogonek"/>
  <anchor x="313.2" y="472.40000000000003" name="top"/>
  <anchor x="476.1" y="309.3" name="topright"/>
  <outline>
    <contour>
      <point x="263.2" y="543.9000000000001" type="curve" smooth="yes"/>
      <point x="263.2" y="543.9000000000001" type="line" smooth="yes"/>
      <point x="263.2" y="500.20000000000005"/>
      <point x="297.20000000000005" y="464.5"/>
      <point x="340.9" y="464.5" type="curve" smooth="yes"/>
      <point x="391.6" y="464.5"/>
      <point x="439.40000000000003" y="509.6"/>
      <point x="439.40000000000003" y="561.0" type="curve" smooth="yes"/>
      <point x="439.40000000000003" y="604.0"/>
      <point x="406.1" y="639.7"/>
      <point x="362.4" y="639.7" type="curve" smooth="yes"/>
      <point x="311.70000000000005" y="639.7"/>
      <point x="263.2" y="594.6"/>
    </contour>
    <contour>
      <point x="317.8" y="547.6" type="curve" smooth="yes"/>
      <point x="317.8" y="547.6" type="line" smooth="yes"/>
      <point x="317.8" y="568.7"/>
      <point x="335.5" y="585.1"/>
      <point x="355.90000000000003" y="585.1" type="curve" smooth="yes"/>
      <point x="373.70000000000005" y="585.1"/>
      <point x="385.5" y="572.7"/>
      <point x="385.5" y="554.9000000000001" type="curve" smooth="yes"/>
      <point x="385.5" y="534.5"/>
      <point x="367.8" y="518.1"/>
      <point x="347.70000000000005" y="518.1" type="curve" smooth="yes"/>
      <point x="329.90000000000003" y="518.1"/>
      <point x="317.8" y="531.5"/>
    </contour>
    <component base="u"/>
  </outline>
</glyph>
